M48
; DRILL file {KiCad 8.0.7} date 2025-01-05T21:05:22-0700
; FORMAT={-:-/ absolute / inch / decimal}
; #@! TF.CreationDate,2025-01-05T21:05:22-07:00
; #@! TF.GenerationSoftware,Kicad,Pcbnew,8.0.7
; #@! TF.FileFunction,Plated,1,2,PTH
FMAT,2
INCH
; #@! TA.AperFunction,Plated,PTH,ViaDrill
T1C0.0118
; #@! TA.AperFunction,Plated,PTH,ComponentDrill
T2C0.0236
; #@! TA.AperFunction,Plated,PTH,ComponentDrill
T3C0.0394
%
G90
G05
T1
X9.5472Y-4.7294
X9.5484Y-4.8928
X9.5785Y-4.8387
X9.5886Y-4.9537
X9.6346Y-4.8749
X9.6354Y-4.8154
X9.6357Y-4.7826
X9.6561Y-5.6378
X9.6654Y-5.4837
X9.7357Y-4.8701
X9.7372Y-4.0746
X9.7421Y-5.8395
X9.7459Y-4.0197
X9.7549Y-4.1005
X9.7802Y-4.8274
X9.7853Y-4.1049
X9.7956Y-4.4556
X9.7969Y-5.3313
X9.7984Y-5.87
X9.814Y-4.5146
X9.8157Y-4.0702
X9.8209Y-5.5253
X9.8444Y-4.5046
X9.8537Y-4.0577
X9.8681Y-5.0711
X9.8861Y-4.3963
X9.8868Y-4.7549
X9.8957Y-4.5085
X9.9213Y-4.1416
X9.9424Y-4.7712
X9.9542Y-5.666
X9.965Y-4.7469
X9.9778Y-5.6342
X9.9803Y-4.5206
X9.9924Y-5.7347
X10.015Y-5.8704
X10.0234Y-5.7452
X10.0706Y-4.8386
X10.155Y-4.1822
X10.1811Y-5.0517
X10.1949Y-4.9885
X10.1969Y-4.5219
X10.1988Y-4.7315
X10.2343Y-5.2115
T3
X9.4902Y-5.0398
X9.4902Y-5.1398
X9.5457Y-4.2898
X9.5457Y-4.3898
X9.5457Y-4.4898
X9.6457Y-4.2898
X9.6457Y-4.3898
X9.6457Y-4.4898
X10.3716Y-4.4134
X10.3716Y-4.5134
X10.3912Y-4.0197
X10.3912Y-4.1197
X10.4705Y-5.2563
X10.4705Y-5.3563
T2
G00X9.7366Y-5.9035
M15
G01X9.7366Y-5.9272
M16
G05
G00X9.7366Y-6.0531
M15
G01X9.7366Y-6.0768
M16
G05
G00X10.0768Y-5.9035
M15
G01X10.0768Y-5.9272
M16
G05
G00X10.0768Y-6.0531
M15
G01X10.0768Y-6.0768
M16
G05
M30
