%TF.GenerationSoftware,KiCad,Pcbnew,8.0.7*%
%TF.CreationDate,2025-01-05T21:05:33-07:00*%
%TF.ProjectId,Hat PCB,48617420-5043-4422-9e6b-696361645f70,rev?*%
%TF.SameCoordinates,Original*%
%TF.FileFunction,Copper,L1,Top*%
%TF.FilePolarity,Positive*%
%FSLAX46Y46*%
G04 Gerber Fmt 4.6, Leading zero omitted, Abs format (unit mm)*
G04 Created by KiCad (PCBNEW 8.0.7) date 2025-01-05 21:05:33*
%MOMM*%
%LPD*%
G01*
G04 APERTURE LIST*
G04 Aperture macros list*
%AMRoundRect*
0 Rectangle with rounded corners*
0 $1 Rounding radius*
0 $2 $3 $4 $5 $6 $7 $8 $9 X,Y pos of 4 corners*
0 Add a 4 corners polygon primitive as box body*
4,1,4,$2,$3,$4,$5,$6,$7,$8,$9,$2,$3,0*
0 Add four circle primitives for the rounded corners*
1,1,$1+$1,$2,$3*
1,1,$1+$1,$4,$5*
1,1,$1+$1,$6,$7*
1,1,$1+$1,$8,$9*
0 Add four rect primitives between the rounded corners*
20,1,$1+$1,$2,$3,$4,$5,0*
20,1,$1+$1,$4,$5,$6,$7,0*
20,1,$1+$1,$6,$7,$8,$9,0*
20,1,$1+$1,$8,$9,$2,$3,0*%
G04 Aperture macros list end*
%TA.AperFunction,SMDPad,CuDef*%
%ADD10RoundRect,0.147500X0.172500X-0.147500X0.172500X0.147500X-0.172500X0.147500X-0.172500X-0.147500X0*%
%TD*%
%TA.AperFunction,ComponentPad*%
%ADD11R,1.700000X1.700000*%
%TD*%
%TA.AperFunction,ComponentPad*%
%ADD12O,1.700000X1.700000*%
%TD*%
%TA.AperFunction,SMDPad,CuDef*%
%ADD13RoundRect,0.135000X0.135000X0.185000X-0.135000X0.185000X-0.135000X-0.185000X0.135000X-0.185000X0*%
%TD*%
%TA.AperFunction,SMDPad,CuDef*%
%ADD14RoundRect,0.135000X-0.135000X-0.185000X0.135000X-0.185000X0.135000X0.185000X-0.135000X0.185000X0*%
%TD*%
%TA.AperFunction,SMDPad,CuDef*%
%ADD15RoundRect,0.250000X-0.250000X-0.475000X0.250000X-0.475000X0.250000X0.475000X-0.250000X0.475000X0*%
%TD*%
%TA.AperFunction,SMDPad,CuDef*%
%ADD16RoundRect,0.250000X-0.475000X0.250000X-0.475000X-0.250000X0.475000X-0.250000X0.475000X0.250000X0*%
%TD*%
%TA.AperFunction,SMDPad,CuDef*%
%ADD17RoundRect,0.062500X-0.412500X-0.062500X0.412500X-0.062500X0.412500X0.062500X-0.412500X0.062500X0*%
%TD*%
%TA.AperFunction,HeatsinkPad*%
%ADD18R,1.450000X2.400000*%
%TD*%
%TA.AperFunction,SMDPad,CuDef*%
%ADD19RoundRect,0.147500X-0.172500X0.147500X-0.172500X-0.147500X0.172500X-0.147500X0.172500X0.147500X0*%
%TD*%
%TA.AperFunction,SMDPad,CuDef*%
%ADD20RoundRect,0.062500X-0.337500X-0.062500X0.337500X-0.062500X0.337500X0.062500X-0.337500X0.062500X0*%
%TD*%
%TA.AperFunction,HeatsinkPad*%
%ADD21R,1.700000X1.400000*%
%TD*%
%TA.AperFunction,SMDPad,CuDef*%
%ADD22RoundRect,0.135000X0.185000X-0.135000X0.185000X0.135000X-0.185000X0.135000X-0.185000X-0.135000X0*%
%TD*%
%TA.AperFunction,SMDPad,CuDef*%
%ADD23R,1.600000X0.550000*%
%TD*%
%TA.AperFunction,SMDPad,CuDef*%
%ADD24R,0.550000X1.600000*%
%TD*%
%TA.AperFunction,SMDPad,CuDef*%
%ADD25RoundRect,0.175000X-0.175000X-0.425000X0.175000X-0.425000X0.175000X0.425000X-0.175000X0.425000X0*%
%TD*%
%TA.AperFunction,SMDPad,CuDef*%
%ADD26RoundRect,0.190000X0.190000X0.410000X-0.190000X0.410000X-0.190000X-0.410000X0.190000X-0.410000X0*%
%TD*%
%TA.AperFunction,SMDPad,CuDef*%
%ADD27RoundRect,0.200000X0.200000X0.400000X-0.200000X0.400000X-0.200000X-0.400000X0.200000X-0.400000X0*%
%TD*%
%TA.AperFunction,SMDPad,CuDef*%
%ADD28RoundRect,0.175000X0.175000X0.425000X-0.175000X0.425000X-0.175000X-0.425000X0.175000X-0.425000X0*%
%TD*%
%TA.AperFunction,SMDPad,CuDef*%
%ADD29RoundRect,0.190000X-0.190000X-0.410000X0.190000X-0.410000X0.190000X0.410000X-0.190000X0.410000X0*%
%TD*%
%TA.AperFunction,SMDPad,CuDef*%
%ADD30RoundRect,0.200000X-0.200000X-0.400000X0.200000X-0.400000X0.200000X0.400000X-0.200000X0.400000X0*%
%TD*%
%TA.AperFunction,ComponentPad*%
%ADD31O,1.100000X1.700000*%
%TD*%
%TA.AperFunction,SMDPad,CuDef*%
%ADD32RoundRect,0.150000X0.587500X0.150000X-0.587500X0.150000X-0.587500X-0.150000X0.587500X-0.150000X0*%
%TD*%
%TA.AperFunction,SMDPad,CuDef*%
%ADD33R,1.700000X0.900000*%
%TD*%
%TA.AperFunction,SMDPad,CuDef*%
%ADD34RoundRect,0.250000X0.250000X0.475000X-0.250000X0.475000X-0.250000X-0.475000X0.250000X-0.475000X0*%
%TD*%
%TA.AperFunction,ViaPad*%
%ADD35C,0.600000*%
%TD*%
%TA.AperFunction,Conductor*%
%ADD36C,0.200000*%
%TD*%
G04 APERTURE END LIST*
D10*
%TO.P,D2,1,K*%
%TO.N,VCC*%
X243500000Y-129970000D03*
%TO.P,D2,2,A*%
%TO.N,Net-(D2-A)*%
X243500000Y-129000000D03*
%TD*%
D11*
%TO.P,J1,1,Pin_1*%
%TO.N,Net-(J1-Pin_1)*%
X265950000Y-136050000D03*
D12*
%TO.P,J1,2,Pin_2*%
%TO.N,GND*%
X265950000Y-133510000D03*
%TD*%
D13*
%TO.P,R6,1*%
%TO.N,Net-(P1-CC)*%
X248470000Y-147550000D03*
%TO.P,R6,2*%
%TO.N,GND*%
X247450000Y-147550000D03*
%TD*%
D14*
%TO.P,R5,1*%
%TO.N,Net-(R5-Pad1)*%
X250917500Y-108000000D03*
%TO.P,R5,2*%
%TO.N,Net-(R5-Pad2)*%
X251937500Y-108000000D03*
%TD*%
%TO.P,R1,1*%
%TO.N,Net-(Q1-G)*%
X242530000Y-125050000D03*
%TO.P,R1,2*%
%TO.N,GND*%
X243550000Y-125050000D03*
%TD*%
D11*
%TO.P,J5,1,Pin_1*%
%TO.N,Net-(D2-A)*%
X241050000Y-128010000D03*
D12*
%TO.P,J5,2,Pin_2*%
%TO.N,VCC*%
X241050000Y-130550000D03*
%TD*%
D15*
%TO.P,C1,1*%
%TO.N,Net-(U1-AVCC)*%
X257050000Y-125500000D03*
%TO.P,C1,2*%
%TO.N,GND*%
X258950000Y-125500000D03*
%TD*%
D16*
%TO.P,C3,1*%
%TO.N,Net-(U2-V+)*%
X257937500Y-103375000D03*
%TO.P,C3,2*%
%TO.N,GND*%
X257937500Y-105275000D03*
%TD*%
D14*
%TO.P,R7,1*%
%TO.N,Net-(D1-K)*%
X252430000Y-140050000D03*
%TO.P,R7,2*%
%TO.N,Net-(U4-STAT)*%
X253450000Y-140050000D03*
%TD*%
D17*
%TO.P,U3,1,Rg*%
%TO.N,Net-(R5-Pad1)*%
X249987500Y-112225000D03*
%TO.P,U3,2,-*%
%TO.N,Net-(J3-Pin_1)*%
X249987500Y-112725000D03*
%TO.P,U3,3,+*%
%TO.N,Net-(J3-Pin_2)*%
X249987500Y-113225000D03*
%TO.P,U3,4,V-*%
%TO.N,GND*%
X249987500Y-113725000D03*
%TO.P,U3,5,Ref*%
%TO.N,unconnected-(U3-Ref-Pad5)*%
X252787500Y-113725000D03*
%TO.P,U3,6*%
%TO.N,Net-(U1-ADC7)*%
X252787500Y-113225000D03*
%TO.P,U3,7,V+*%
%TO.N,Net-(U3-V+)*%
X252787500Y-112725000D03*
%TO.P,U3,8,Rg*%
%TO.N,Net-(R5-Pad2)*%
X252787500Y-112225000D03*
D18*
%TO.P,U3,9,EP*%
%TO.N,GND*%
X251387500Y-112975000D03*
%TD*%
D14*
%TO.P,R4,1*%
%TO.N,Net-(R4-Pad1)*%
X249480000Y-98500000D03*
%TO.P,R4,2*%
%TO.N,Net-(R4-Pad2)*%
X250500000Y-98500000D03*
%TD*%
D19*
%TO.P,D1,1,K*%
%TO.N,Net-(D1-K)*%
X251000000Y-141015000D03*
%TO.P,D1,2,A*%
%TO.N,VDD*%
X251000000Y-141985000D03*
%TD*%
D16*
%TO.P,C2,1*%
%TO.N,Net-(U3-V+)*%
X259000000Y-112000000D03*
%TO.P,C2,2*%
%TO.N,GND*%
X259000000Y-113900000D03*
%TD*%
D14*
%TO.P,R3,1*%
%TO.N,Net-(U4-PROG)*%
X244480000Y-138500000D03*
%TO.P,R3,2*%
%TO.N,GND*%
X245500000Y-138500000D03*
%TD*%
D20*
%TO.P,U4,1,V_{DD}*%
%TO.N,VDD*%
X250050000Y-145000000D03*
%TO.P,U4,2,V_{DD}*%
X250050000Y-145500000D03*
%TO.P,U4,3,V_{BAT}*%
%TO.N,Net-(J1-Pin_1)*%
X250050000Y-146000000D03*
%TO.P,U4,4,V_{BAT}*%
X250050000Y-146500000D03*
%TO.P,U4,5,STAT*%
%TO.N,Net-(U4-STAT)*%
X252950000Y-146500000D03*
%TO.P,U4,6,V_{SS}*%
%TO.N,GND*%
X252950000Y-146000000D03*
%TO.P,U4,7,NC*%
%TO.N,unconnected-(U4-NC-Pad7)*%
X252950000Y-145500000D03*
%TO.P,U4,8,PROG*%
%TO.N,Net-(U4-PROG)*%
X252950000Y-145000000D03*
D21*
%TO.P,U4,9*%
%TO.N,N/C*%
X251500000Y-145750000D03*
%TD*%
D11*
%TO.P,J4,1,Pin_1*%
%TO.N,Net-(J4-Pin_1)*%
X245000000Y-114040000D03*
D12*
%TO.P,J4,2,Pin_2*%
%TO.N,VCC*%
X242460000Y-114040000D03*
%TO.P,J4,3,Pin_3*%
%TO.N,Net-(J4-Pin_3)*%
X245000000Y-111500000D03*
%TO.P,J4,4,Pin_4*%
%TO.N,Net-(J4-Pin_4)*%
X242460000Y-111500000D03*
%TO.P,J4,5,Pin_5*%
%TO.N,Net-(J4-Pin_5)*%
X245000000Y-108960000D03*
%TO.P,J4,6,Pin_6*%
%TO.N,GND*%
X242460000Y-108960000D03*
%TD*%
D15*
%TO.P,C5,1*%
%TO.N,VDD*%
X258050000Y-133550000D03*
%TO.P,C5,2*%
%TO.N,GND*%
X259950000Y-133550000D03*
%TD*%
D22*
%TO.P,R2,1*%
%TO.N,VCC*%
X254500000Y-131000000D03*
%TO.P,R2,2*%
%TO.N,Net-(U1-AVCC)*%
X254500000Y-129980000D03*
%TD*%
D15*
%TO.P,C4,1*%
%TO.N,Net-(J1-Pin_1)*%
X247100000Y-141550000D03*
%TO.P,C4,2*%
%TO.N,GND*%
X249000000Y-141550000D03*
%TD*%
D23*
%TO.P,U1,1,PD3*%
%TO.N,unconnected-(U1-PD3-Pad1)*%
X246000000Y-120500000D03*
%TO.P,U1,2,PD4*%
%TO.N,unconnected-(U1-PD4-Pad2)*%
X246000000Y-121300000D03*
%TO.P,U1,3,GND*%
%TO.N,GND*%
X246000000Y-122100000D03*
%TO.P,U1,4,VCC*%
%TO.N,VCC*%
X246000000Y-122900000D03*
%TO.P,U1,5,GND*%
%TO.N,GND*%
X246000000Y-123700000D03*
%TO.P,U1,6,VCC*%
%TO.N,VCC*%
X246000000Y-124500000D03*
%TO.P,U1,7,XTAL1/PB6*%
%TO.N,unconnected-(U1-XTAL1{slash}PB6-Pad7)*%
X246000000Y-125300000D03*
%TO.P,U1,8,XTAL2/PB7*%
%TO.N,unconnected-(U1-XTAL2{slash}PB7-Pad8)*%
X246000000Y-126100000D03*
D24*
%TO.P,U1,9,PD5*%
%TO.N,unconnected-(U1-PD5-Pad9)*%
X247450000Y-127550000D03*
%TO.P,U1,10,PD6*%
%TO.N,unconnected-(U1-PD6-Pad10)*%
X248250000Y-127550000D03*
%TO.P,U1,11,PD7*%
%TO.N,unconnected-(U1-PD7-Pad11)*%
X249050000Y-127550000D03*
%TO.P,U1,12,PB0*%
%TO.N,unconnected-(U1-PB0-Pad12)*%
X249850000Y-127550000D03*
%TO.P,U1,13,PB1*%
%TO.N,Net-(Q1-G)*%
X250650000Y-127550000D03*
%TO.P,U1,14,PB2*%
%TO.N,unconnected-(U1-PB2-Pad14)*%
X251450000Y-127550000D03*
%TO.P,U1,15,PB3*%
%TO.N,Net-(J4-Pin_4)*%
X252250000Y-127550000D03*
%TO.P,U1,16,PB4*%
%TO.N,Net-(J4-Pin_1)*%
X253050000Y-127550000D03*
D23*
%TO.P,U1,17,PB5*%
%TO.N,Net-(J4-Pin_3)*%
X254500000Y-126100000D03*
%TO.P,U1,18,AVCC*%
%TO.N,Net-(U1-AVCC)*%
X254500000Y-125300000D03*
%TO.P,U1,19,ADC6*%
%TO.N,Net-(U1-ADC6)*%
X254500000Y-124500000D03*
%TO.P,U1,20,AREF*%
%TO.N,Net-(U1-AREF)*%
X254500000Y-123700000D03*
%TO.P,U1,21,GND*%
%TO.N,GND*%
X254500000Y-122900000D03*
%TO.P,U1,22,ADC7*%
%TO.N,Net-(U1-ADC7)*%
X254500000Y-122100000D03*
%TO.P,U1,23,PC0*%
%TO.N,unconnected-(U1-PC0-Pad23)*%
X254500000Y-121300000D03*
%TO.P,U1,24,PC1*%
%TO.N,unconnected-(U1-PC1-Pad24)*%
X254500000Y-120500000D03*
D24*
%TO.P,U1,25,PC2*%
%TO.N,unconnected-(U1-PC2-Pad25)*%
X253050000Y-119050000D03*
%TO.P,U1,26,PC3*%
%TO.N,unconnected-(U1-PC3-Pad26)*%
X252250000Y-119050000D03*
%TO.P,U1,27,PC4*%
%TO.N,unconnected-(U1-PC4-Pad27)*%
X251450000Y-119050000D03*
%TO.P,U1,28,PC5*%
%TO.N,unconnected-(U1-PC5-Pad28)*%
X250650000Y-119050000D03*
%TO.P,U1,29,~{RESET}/PC6*%
%TO.N,Net-(J4-Pin_5)*%
X249850000Y-119050000D03*
%TO.P,U1,30,PD0*%
%TO.N,unconnected-(U1-PD0-Pad30)*%
X249050000Y-119050000D03*
%TO.P,U1,31,PD1*%
%TO.N,unconnected-(U1-PD1-Pad31)*%
X248250000Y-119050000D03*
%TO.P,U1,32,PD2*%
%TO.N,unconnected-(U1-PD2-Pad32)*%
X247450000Y-119050000D03*
%TD*%
D25*
%TO.P,P1,A5,CC*%
%TO.N,Net-(P1-CC)*%
X251130000Y-150170000D03*
D26*
%TO.P,P1,A9,VBUS*%
%TO.N,VDD*%
X253150000Y-150170000D03*
D27*
%TO.P,P1,A12,GND*%
%TO.N,GND*%
X254380000Y-150170000D03*
D28*
%TO.P,P1,B5,VCONN*%
%TO.N,unconnected-(P1-VCONN-PadB5)*%
X252130000Y-150170000D03*
D29*
%TO.P,P1,B9,VBUS*%
%TO.N,VDD*%
X250110000Y-150170000D03*
D30*
%TO.P,P1,B12,GND*%
%TO.N,GND*%
X248880000Y-150170000D03*
D31*
%TO.P,P1,S1,SHIELD*%
%TO.N,unconnected-(P1-SHIELD-PadS1)_2*%
X247310000Y-150250000D03*
%TO.N,unconnected-(P1-SHIELD-PadS1)_3*%
X247310000Y-154050000D03*
%TO.N,unconnected-(P1-SHIELD-PadS1)_1*%
X255950000Y-150250000D03*
%TO.N,unconnected-(P1-SHIELD-PadS1)*%
X255950000Y-154050000D03*
%TD*%
D32*
%TO.P,Q1,1,G*%
%TO.N,Net-(Q1-G)*%
X242500000Y-120900000D03*
%TO.P,Q1,2,S*%
%TO.N,GND*%
X242500000Y-119000000D03*
%TO.P,Q1,3,D*%
%TO.N,Net-(D2-A)*%
X240625000Y-119950000D03*
%TD*%
D33*
%TO.P,SW1,1,A*%
%TO.N,Net-(J1-Pin_1)*%
X247450000Y-135250000D03*
%TO.P,SW1,2,B*%
%TO.N,VCC*%
X247450000Y-131850000D03*
%TD*%
D11*
%TO.P,J2,1,Pin_1*%
%TO.N,Net-(J2-Pin_1)*%
X263937500Y-102100000D03*
D12*
%TO.P,J2,2,Pin_2*%
%TO.N,Net-(J2-Pin_2)*%
X263937500Y-104640000D03*
%TD*%
D11*
%TO.P,J3,1,Pin_1*%
%TO.N,Net-(J3-Pin_1)*%
X263437500Y-112100000D03*
D12*
%TO.P,J3,2,Pin_2*%
%TO.N,Net-(J3-Pin_2)*%
X263437500Y-114640000D03*
%TD*%
D17*
%TO.P,U2,1,Rg*%
%TO.N,Net-(R4-Pad1)*%
X248487500Y-101725000D03*
%TO.P,U2,2,-*%
%TO.N,Net-(J2-Pin_1)*%
X248487500Y-102225000D03*
%TO.P,U2,3,+*%
%TO.N,Net-(J2-Pin_2)*%
X248487500Y-102725000D03*
%TO.P,U2,4,V-*%
%TO.N,GND*%
X248487500Y-103225000D03*
%TO.P,U2,5,Ref*%
%TO.N,unconnected-(U2-Ref-Pad5)*%
X251287500Y-103225000D03*
%TO.P,U2,6*%
%TO.N,Net-(U1-ADC6)*%
X251287500Y-102725000D03*
%TO.P,U2,7,V+*%
%TO.N,Net-(U2-V+)*%
X251287500Y-102225000D03*
%TO.P,U2,8,Rg*%
%TO.N,Net-(R4-Pad2)*%
X251287500Y-101725000D03*
D18*
%TO.P,U2,9,EP*%
%TO.N,GND*%
X249887500Y-102475000D03*
%TD*%
D15*
%TO.P,C7,1*%
%TO.N,GND*%
X258600000Y-129500000D03*
%TO.P,C7,2*%
%TO.N,VCC*%
X260500000Y-129500000D03*
%TD*%
D34*
%TO.P,C6,1*%
%TO.N,GND*%
X259000000Y-120500000D03*
%TO.P,C6,2*%
%TO.N,Net-(U1-AREF)*%
X257100000Y-120500000D03*
%TD*%
D35*
%TO.N,Net-(Q1-G)*%
X248418100Y-122615700D03*
X243294600Y-122903700D03*
%TO.N,Net-(U4-PROG)*%
X252837000Y-143917000D03*
X245264000Y-143200000D03*
%TO.N,Net-(J4-Pin_4)*%
X251125000Y-120775000D03*
%TO.N,Net-(J4-Pin_1)*%
X252536000Y-121188000D03*
%TO.N,Net-(J4-Pin_3)*%
X253112000Y-120572000D03*
%TO.N,Net-(J3-Pin_1)*%
X248808000Y-113173000D03*
%TO.N,Net-(J3-Pin_2)*%
X251351000Y-114515000D03*
%TO.N,Net-(J2-Pin_2)*%
X247324000Y-103495000D03*
%TO.N,Net-(J2-Pin_1)*%
X247545000Y-102100000D03*
%TO.N,Net-(J1-Pin_1)*%
X248841000Y-135416000D03*
%TO.N,GND*%
X252000000Y-105197000D03*
X257938000Y-106228000D03*
X253437000Y-143109000D03*
X250284000Y-103066000D03*
X249275000Y-114672000D03*
X253806000Y-145662000D03*
X247450000Y-148324000D03*
X259950000Y-132371000D03*
X249450000Y-140343000D03*
X251108000Y-111666000D03*
X248880000Y-149098000D03*
X247775000Y-104153000D03*
X254380000Y-149109000D03*
X259050000Y-120179000D03*
X249318000Y-103382000D03*
X253500000Y-114823000D03*
X244748000Y-121479000D03*
X245500000Y-139285000D03*
X255792000Y-122900000D03*
X250650000Y-128805000D03*
X250049000Y-114417000D03*
X242500000Y-120128000D03*
X244738000Y-122310000D03*
X244719000Y-123823000D03*
X242530000Y-124276000D03*
X259000000Y-114856000D03*
X247286000Y-123700000D03*
X243550000Y-125825000D03*
X258600000Y-128312300D03*
X254594000Y-145928900D03*
X248545400Y-104265100D03*
X258950000Y-126707700D03*
%TD*%
D36*
%TO.N,Net-(Q1-G)*%
X250650000Y-124847600D02*
X248418100Y-122615700D01*
X250650000Y-127550000D02*
X250650000Y-124847600D01*
X243294600Y-124364800D02*
X243294600Y-122903700D01*
X242609400Y-125050000D02*
X243294600Y-124364800D01*
X242530000Y-125050000D02*
X242609400Y-125050000D01*
X243294600Y-121694600D02*
X243294600Y-122903700D01*
X242500000Y-120900000D02*
X243294600Y-121694600D01*
%TO.N,Net-(U1-ADC7)*%
X253300200Y-113225000D02*
X252787500Y-113225000D01*
X255551700Y-115476500D02*
X253300200Y-113225000D01*
X255551700Y-122100000D02*
X255551700Y-115476500D01*
X254500000Y-122100000D02*
X255551700Y-122100000D01*
%TO.N,Net-(U1-ADC6)*%
X251731900Y-102725000D02*
X251287500Y-102725000D01*
X260005100Y-110998200D02*
X251731900Y-102725000D01*
X260005100Y-120932800D02*
X260005100Y-110998200D01*
X256437900Y-124500000D02*
X260005100Y-120932800D01*
X254500000Y-124500000D02*
X256437900Y-124500000D01*
%TO.N,Net-(D2-A)*%
X240625000Y-126483300D02*
X241050000Y-126908300D01*
X240625000Y-119950000D02*
X240625000Y-126483300D01*
X241050000Y-128010000D02*
X241050000Y-126908300D01*
X242510000Y-128010000D02*
X243500000Y-129000000D01*
X241050000Y-128010000D02*
X242510000Y-128010000D01*
%TO.N,Net-(U4-STAT)*%
X254818400Y-146500000D02*
X252950000Y-146500000D01*
X255178500Y-146139900D02*
X254818400Y-146500000D01*
X255178500Y-141778500D02*
X255178500Y-146139900D01*
X253450000Y-140050000D02*
X255178500Y-141778500D01*
%TO.N,Net-(R5-Pad1)*%
X249987500Y-108930000D02*
X250917500Y-108000000D01*
X249987500Y-112225000D02*
X249987500Y-108930000D01*
%TO.N,Net-(R5-Pad2)*%
X252787500Y-108850000D02*
X251937500Y-108000000D01*
X252787500Y-112225000D02*
X252787500Y-108850000D01*
%TO.N,Net-(R4-Pad2)*%
X251287500Y-99287500D02*
X250500000Y-98500000D01*
X251287500Y-101725000D02*
X251287500Y-99287500D01*
%TO.N,Net-(R4-Pad1)*%
X248487500Y-99492500D02*
X249480000Y-98500000D01*
X248487500Y-101725000D02*
X248487500Y-99492500D01*
%TO.N,Net-(U4-PROG)*%
X244480000Y-142416000D02*
X244480000Y-138500000D01*
X245264000Y-143200000D02*
X244480000Y-142416000D01*
X252950000Y-144030000D02*
X252950000Y-145000000D01*
X252837000Y-143917000D02*
X252950000Y-144030000D01*
%TO.N,Net-(P1-CC)*%
X248151900Y-147868100D02*
X248470000Y-147550000D01*
X248151900Y-150756100D02*
X248151900Y-147868100D01*
X248483300Y-151087500D02*
X248151900Y-150756100D01*
X250462600Y-151087500D02*
X248483300Y-151087500D01*
X251130000Y-150420100D02*
X250462600Y-151087500D01*
X251130000Y-150170000D02*
X251130000Y-150420100D01*
%TO.N,Net-(U1-AREF)*%
X255784700Y-123700000D02*
X254500000Y-123700000D01*
X257100000Y-122384700D02*
X255784700Y-123700000D01*
X257100000Y-120500000D02*
X257100000Y-122384700D01*
%TO.N,VCC*%
X245380000Y-131850000D02*
X243500000Y-129970000D01*
X247450000Y-131850000D02*
X245380000Y-131850000D01*
X244948300Y-128521700D02*
X243500000Y-129970000D01*
X244948300Y-124500000D02*
X244948300Y-128521700D01*
X246000000Y-124500000D02*
X244948300Y-124500000D01*
X259000000Y-131000000D02*
X260500000Y-129500000D01*
X254500000Y-131000000D02*
X259000000Y-131000000D01*
X253650000Y-131850000D02*
X247450000Y-131850000D01*
X254500000Y-131000000D02*
X253650000Y-131850000D01*
X246000000Y-122900000D02*
X244134100Y-122900000D01*
X244134100Y-116815800D02*
X244134100Y-122900000D01*
X242460000Y-115141700D02*
X244134100Y-116815800D01*
X244572900Y-124500000D02*
X244948300Y-124500000D01*
X244134100Y-124061200D02*
X244572900Y-124500000D01*
X244134100Y-122900000D02*
X244134100Y-124061200D01*
X242460000Y-114040000D02*
X242460000Y-115141700D01*
X242731700Y-129970000D02*
X243500000Y-129970000D01*
X242151700Y-130550000D02*
X242731700Y-129970000D01*
X241050000Y-130550000D02*
X242151700Y-130550000D01*
%TO.N,Net-(J4-Pin_4)*%
X252250000Y-121900000D02*
X252250000Y-127550000D01*
X251125000Y-120775000D02*
X252250000Y-121900000D01*
%TO.N,Net-(J4-Pin_1)*%
X253050000Y-121702000D02*
X253050000Y-127550000D01*
X252536000Y-121188000D02*
X253050000Y-121702000D01*
%TO.N,Net-(J4-Pin_3)*%
X253448300Y-120908300D02*
X253448300Y-126100000D01*
X253112000Y-120572000D02*
X253448300Y-120908300D01*
X254500000Y-126100000D02*
X253448300Y-126100000D01*
%TO.N,Net-(J4-Pin_5)*%
X245228300Y-110061700D02*
X245000000Y-110061700D01*
X246439800Y-111273200D02*
X245228300Y-110061700D01*
X246439800Y-113184300D02*
X246439800Y-111273200D01*
X249850000Y-116594500D02*
X246439800Y-113184300D01*
X249850000Y-119050000D02*
X249850000Y-116594500D01*
X245000000Y-108960000D02*
X245000000Y-110061700D01*
%TO.N,Net-(J3-Pin_1)*%
X249256000Y-112725000D02*
X248808000Y-113173000D01*
X249987500Y-112725000D02*
X249256000Y-112725000D01*
%TO.N,Net-(J3-Pin_2)*%
X250634900Y-115231100D02*
X251351000Y-114515000D01*
X249053900Y-115231100D02*
X250634900Y-115231100D01*
X248703600Y-114880800D02*
X249053900Y-115231100D01*
X248703600Y-114057700D02*
X248703600Y-114880800D01*
X249536300Y-113225000D02*
X248703600Y-114057700D01*
X249987500Y-113225000D02*
X249536300Y-113225000D01*
%TO.N,Net-(J2-Pin_2)*%
X247995100Y-102725000D02*
X248487500Y-102725000D01*
X247324000Y-103396100D02*
X247995100Y-102725000D01*
X247324000Y-103495000D02*
X247324000Y-103396100D01*
%TO.N,Net-(J2-Pin_1)*%
X247670000Y-102225000D02*
X248487500Y-102225000D01*
X247545000Y-102100000D02*
X247670000Y-102225000D01*
%TO.N,Net-(D1-K)*%
X251465000Y-141015000D02*
X252430000Y-140050000D01*
X251000000Y-141015000D02*
X251465000Y-141015000D01*
%TO.N,VDD*%
X253150000Y-150056000D02*
X253150000Y-150170000D01*
X253150000Y-149942000D02*
X253150000Y-150056000D01*
X252466500Y-149258500D02*
X253150000Y-149942000D01*
X250793500Y-149258500D02*
X252466500Y-149258500D01*
X250110000Y-149942000D02*
X250793500Y-149258500D01*
X250110000Y-150170000D02*
X250110000Y-149942000D01*
X250050000Y-145500000D02*
X250050000Y-145000000D01*
X250050000Y-145000000D02*
X250050000Y-142935000D01*
X250050000Y-142935000D02*
X251000000Y-141985000D01*
X258050000Y-135156500D02*
X258050000Y-133550000D01*
X253737100Y-139469400D02*
X258050000Y-135156500D01*
X251591200Y-139469400D02*
X253737100Y-139469400D01*
X250050000Y-141010600D02*
X251591200Y-139469400D01*
X250050000Y-142935000D02*
X250050000Y-141010600D01*
X253150000Y-148678200D02*
X253150000Y-150056000D01*
X255534800Y-146293400D02*
X253150000Y-148678200D01*
X255534800Y-141267100D02*
X255534800Y-146293400D01*
X253737100Y-139469400D02*
X255534800Y-141267100D01*
%TO.N,Net-(J1-Pin_1)*%
X248717700Y-135416000D02*
X248551700Y-135250000D01*
X248841000Y-135416000D02*
X248717700Y-135416000D01*
X247450000Y-135250000D02*
X248000900Y-135250000D01*
X248000900Y-135250000D02*
X248551700Y-135250000D01*
X250050000Y-146500000D02*
X250050000Y-146000000D01*
X249705200Y-146000000D02*
X250050000Y-146000000D01*
X248000900Y-144295700D02*
X249705200Y-146000000D01*
X248000900Y-141550000D02*
X248000900Y-144295700D01*
X248000900Y-135250000D02*
X248000900Y-141550000D01*
X248000900Y-141550000D02*
X247100000Y-141550000D01*
%TO.N,Net-(U2-V+)*%
X256787500Y-102225000D02*
X257937500Y-103375000D01*
X251287500Y-102225000D02*
X256787500Y-102225000D01*
%TO.N,Net-(U3-V+)*%
X258275000Y-112725000D02*
X252787500Y-112725000D01*
X259000000Y-112000000D02*
X258275000Y-112725000D01*
%TO.N,Net-(U1-AVCC)*%
X256850000Y-125500000D02*
X257050000Y-125500000D01*
X256850000Y-127630000D02*
X256850000Y-125500000D01*
X254500000Y-129980000D02*
X256850000Y-127630000D01*
X256650000Y-125300000D02*
X254500000Y-125300000D01*
X256850000Y-125500000D02*
X256650000Y-125300000D01*
%TO.N,GND*%
X242500000Y-120128000D02*
X242500000Y-119000000D01*
X248880000Y-149098000D02*
X248880000Y-150170000D01*
X254380000Y-149109000D02*
X254380000Y-150170000D01*
X255792000Y-122900000D02*
X254500000Y-122900000D01*
X244825300Y-123823000D02*
X244948300Y-123700000D01*
X244719000Y-123823000D02*
X244825300Y-123823000D01*
X246000000Y-123700000D02*
X244948300Y-123700000D01*
X244738300Y-122310000D02*
X244948300Y-122100000D01*
X244738000Y-122310000D02*
X244738300Y-122310000D01*
X246000000Y-122100000D02*
X244948300Y-122100000D01*
X259000000Y-120229000D02*
X259000000Y-120500000D01*
X259050000Y-120179000D02*
X259000000Y-120229000D01*
X258600000Y-128312300D02*
X258600000Y-129500000D01*
X249000000Y-140793000D02*
X249000000Y-141550000D01*
X249450000Y-140343000D02*
X249000000Y-140793000D01*
X259950000Y-132371000D02*
X259950000Y-133550000D01*
X249887500Y-102669500D02*
X249887500Y-102475000D01*
X250284000Y-103066000D02*
X249887500Y-102669500D01*
X248487500Y-104207200D02*
X248545400Y-104265100D01*
X248487500Y-103225000D02*
X248487500Y-104207200D01*
X251387500Y-111945500D02*
X251387500Y-112975000D01*
X251108000Y-111666000D02*
X251387500Y-111945500D01*
X249987500Y-114355500D02*
X249987500Y-113725000D01*
X250049000Y-114417000D02*
X249987500Y-114355500D01*
X259000000Y-114856000D02*
X259000000Y-113900000D01*
X257937500Y-106227500D02*
X257937500Y-105275000D01*
X257938000Y-106228000D02*
X257937500Y-106227500D01*
X258950000Y-126707700D02*
X258950000Y-125500000D01*
X245500000Y-139285000D02*
X245500000Y-138500000D01*
X243550000Y-125825000D02*
X243550000Y-125050000D01*
X247450000Y-148324000D02*
X247450000Y-147550000D01*
X253021100Y-145928900D02*
X252950000Y-146000000D01*
X254594000Y-145928900D02*
X253021100Y-145928900D01*
%TD*%
M02*
