%TF.GenerationSoftware,KiCad,Pcbnew,8.0.7*%
%TF.CreationDate,2025-01-03T21:58:43-07:00*%
%TF.ProjectId,Hat PCB,48617420-5043-4422-9e6b-696361645f70,rev?*%
%TF.SameCoordinates,Original*%
%TF.FileFunction,Legend,Top*%
%TF.FilePolarity,Positive*%
%FSLAX46Y46*%
G04 Gerber Fmt 4.6, Leading zero omitted, Abs format (unit mm)*
G04 Created by KiCad (PCBNEW 8.0.7) date 2025-01-03 21:58:43*
%MOMM*%
%LPD*%
G01*
G04 APERTURE LIST*
%ADD10C,0.150000*%
%ADD11C,0.120000*%
%ADD12C,0.100000*%
G04 APERTURE END LIST*
D10*
X265616666Y-137834819D02*
X265616666Y-138549104D01*
X265616666Y-138549104D02*
X265569047Y-138691961D01*
X265569047Y-138691961D02*
X265473809Y-138787200D01*
X265473809Y-138787200D02*
X265330952Y-138834819D01*
X265330952Y-138834819D02*
X265235714Y-138834819D01*
X266616666Y-138834819D02*
X266045238Y-138834819D01*
X266330952Y-138834819D02*
X266330952Y-137834819D01*
X266330952Y-137834819D02*
X266235714Y-137977676D01*
X266235714Y-137977676D02*
X266140476Y-138072914D01*
X266140476Y-138072914D02*
X266045238Y-138120533D01*
X247793333Y-149174819D02*
X247460000Y-148698628D01*
X247221905Y-149174819D02*
X247221905Y-148174819D01*
X247221905Y-148174819D02*
X247602857Y-148174819D01*
X247602857Y-148174819D02*
X247698095Y-148222438D01*
X247698095Y-148222438D02*
X247745714Y-148270057D01*
X247745714Y-148270057D02*
X247793333Y-148365295D01*
X247793333Y-148365295D02*
X247793333Y-148508152D01*
X247793333Y-148508152D02*
X247745714Y-148603390D01*
X247745714Y-148603390D02*
X247698095Y-148651009D01*
X247698095Y-148651009D02*
X247602857Y-148698628D01*
X247602857Y-148698628D02*
X247221905Y-148698628D01*
X248650476Y-148174819D02*
X248460000Y-148174819D01*
X248460000Y-148174819D02*
X248364762Y-148222438D01*
X248364762Y-148222438D02*
X248317143Y-148270057D01*
X248317143Y-148270057D02*
X248221905Y-148412914D01*
X248221905Y-148412914D02*
X248174286Y-148603390D01*
X248174286Y-148603390D02*
X248174286Y-148984342D01*
X248174286Y-148984342D02*
X248221905Y-149079580D01*
X248221905Y-149079580D02*
X248269524Y-149127200D01*
X248269524Y-149127200D02*
X248364762Y-149174819D01*
X248364762Y-149174819D02*
X248555238Y-149174819D01*
X248555238Y-149174819D02*
X248650476Y-149127200D01*
X248650476Y-149127200D02*
X248698095Y-149079580D01*
X248698095Y-149079580D02*
X248745714Y-148984342D01*
X248745714Y-148984342D02*
X248745714Y-148746247D01*
X248745714Y-148746247D02*
X248698095Y-148651009D01*
X248698095Y-148651009D02*
X248650476Y-148603390D01*
X248650476Y-148603390D02*
X248555238Y-148555771D01*
X248555238Y-148555771D02*
X248364762Y-148555771D01*
X248364762Y-148555771D02*
X248269524Y-148603390D01*
X248269524Y-148603390D02*
X248221905Y-148651009D01*
X248221905Y-148651009D02*
X248174286Y-148746247D01*
X251260833Y-107284819D02*
X250927500Y-106808628D01*
X250689405Y-107284819D02*
X250689405Y-106284819D01*
X250689405Y-106284819D02*
X251070357Y-106284819D01*
X251070357Y-106284819D02*
X251165595Y-106332438D01*
X251165595Y-106332438D02*
X251213214Y-106380057D01*
X251213214Y-106380057D02*
X251260833Y-106475295D01*
X251260833Y-106475295D02*
X251260833Y-106618152D01*
X251260833Y-106618152D02*
X251213214Y-106713390D01*
X251213214Y-106713390D02*
X251165595Y-106761009D01*
X251165595Y-106761009D02*
X251070357Y-106808628D01*
X251070357Y-106808628D02*
X250689405Y-106808628D01*
X252165595Y-106284819D02*
X251689405Y-106284819D01*
X251689405Y-106284819D02*
X251641786Y-106761009D01*
X251641786Y-106761009D02*
X251689405Y-106713390D01*
X251689405Y-106713390D02*
X251784643Y-106665771D01*
X251784643Y-106665771D02*
X252022738Y-106665771D01*
X252022738Y-106665771D02*
X252117976Y-106713390D01*
X252117976Y-106713390D02*
X252165595Y-106761009D01*
X252165595Y-106761009D02*
X252213214Y-106856247D01*
X252213214Y-106856247D02*
X252213214Y-107094342D01*
X252213214Y-107094342D02*
X252165595Y-107189580D01*
X252165595Y-107189580D02*
X252117976Y-107237200D01*
X252117976Y-107237200D02*
X252022738Y-107284819D01*
X252022738Y-107284819D02*
X251784643Y-107284819D01*
X251784643Y-107284819D02*
X251689405Y-107237200D01*
X251689405Y-107237200D02*
X251641786Y-107189580D01*
X242873333Y-124334819D02*
X242540000Y-123858628D01*
X242301905Y-124334819D02*
X242301905Y-123334819D01*
X242301905Y-123334819D02*
X242682857Y-123334819D01*
X242682857Y-123334819D02*
X242778095Y-123382438D01*
X242778095Y-123382438D02*
X242825714Y-123430057D01*
X242825714Y-123430057D02*
X242873333Y-123525295D01*
X242873333Y-123525295D02*
X242873333Y-123668152D01*
X242873333Y-123668152D02*
X242825714Y-123763390D01*
X242825714Y-123763390D02*
X242778095Y-123811009D01*
X242778095Y-123811009D02*
X242682857Y-123858628D01*
X242682857Y-123858628D02*
X242301905Y-123858628D01*
X243825714Y-124334819D02*
X243254286Y-124334819D01*
X243540000Y-124334819D02*
X243540000Y-123334819D01*
X243540000Y-123334819D02*
X243444762Y-123477676D01*
X243444762Y-123477676D02*
X243349524Y-123572914D01*
X243349524Y-123572914D02*
X243254286Y-123620533D01*
X240716666Y-125134819D02*
X240716666Y-125849104D01*
X240716666Y-125849104D02*
X240669047Y-125991961D01*
X240669047Y-125991961D02*
X240573809Y-126087200D01*
X240573809Y-126087200D02*
X240430952Y-126134819D01*
X240430952Y-126134819D02*
X240335714Y-126134819D01*
X241669047Y-125134819D02*
X241192857Y-125134819D01*
X241192857Y-125134819D02*
X241145238Y-125611009D01*
X241145238Y-125611009D02*
X241192857Y-125563390D01*
X241192857Y-125563390D02*
X241288095Y-125515771D01*
X241288095Y-125515771D02*
X241526190Y-125515771D01*
X241526190Y-125515771D02*
X241621428Y-125563390D01*
X241621428Y-125563390D02*
X241669047Y-125611009D01*
X241669047Y-125611009D02*
X241716666Y-125706247D01*
X241716666Y-125706247D02*
X241716666Y-125944342D01*
X241716666Y-125944342D02*
X241669047Y-126039580D01*
X241669047Y-126039580D02*
X241621428Y-126087200D01*
X241621428Y-126087200D02*
X241526190Y-126134819D01*
X241526190Y-126134819D02*
X241288095Y-126134819D01*
X241288095Y-126134819D02*
X241192857Y-126087200D01*
X241192857Y-126087200D02*
X241145238Y-126039580D01*
X257729580Y-122266666D02*
X257777200Y-122314285D01*
X257777200Y-122314285D02*
X257824819Y-122457142D01*
X257824819Y-122457142D02*
X257824819Y-122552380D01*
X257824819Y-122552380D02*
X257777200Y-122695237D01*
X257777200Y-122695237D02*
X257681961Y-122790475D01*
X257681961Y-122790475D02*
X257586723Y-122838094D01*
X257586723Y-122838094D02*
X257396247Y-122885713D01*
X257396247Y-122885713D02*
X257253390Y-122885713D01*
X257253390Y-122885713D02*
X257062914Y-122838094D01*
X257062914Y-122838094D02*
X256967676Y-122790475D01*
X256967676Y-122790475D02*
X256872438Y-122695237D01*
X256872438Y-122695237D02*
X256824819Y-122552380D01*
X256824819Y-122552380D02*
X256824819Y-122457142D01*
X256824819Y-122457142D02*
X256872438Y-122314285D01*
X256872438Y-122314285D02*
X256920057Y-122266666D01*
X257824819Y-121314285D02*
X257824819Y-121885713D01*
X257824819Y-121599999D02*
X256824819Y-121599999D01*
X256824819Y-121599999D02*
X256967676Y-121695237D01*
X256967676Y-121695237D02*
X257062914Y-121790475D01*
X257062914Y-121790475D02*
X257110533Y-121885713D01*
X259977080Y-104491666D02*
X260024700Y-104539285D01*
X260024700Y-104539285D02*
X260072319Y-104682142D01*
X260072319Y-104682142D02*
X260072319Y-104777380D01*
X260072319Y-104777380D02*
X260024700Y-104920237D01*
X260024700Y-104920237D02*
X259929461Y-105015475D01*
X259929461Y-105015475D02*
X259834223Y-105063094D01*
X259834223Y-105063094D02*
X259643747Y-105110713D01*
X259643747Y-105110713D02*
X259500890Y-105110713D01*
X259500890Y-105110713D02*
X259310414Y-105063094D01*
X259310414Y-105063094D02*
X259215176Y-105015475D01*
X259215176Y-105015475D02*
X259119938Y-104920237D01*
X259119938Y-104920237D02*
X259072319Y-104777380D01*
X259072319Y-104777380D02*
X259072319Y-104682142D01*
X259072319Y-104682142D02*
X259119938Y-104539285D01*
X259119938Y-104539285D02*
X259167557Y-104491666D01*
X259072319Y-104158332D02*
X259072319Y-103539285D01*
X259072319Y-103539285D02*
X259453271Y-103872618D01*
X259453271Y-103872618D02*
X259453271Y-103729761D01*
X259453271Y-103729761D02*
X259500890Y-103634523D01*
X259500890Y-103634523D02*
X259548509Y-103586904D01*
X259548509Y-103586904D02*
X259643747Y-103539285D01*
X259643747Y-103539285D02*
X259881842Y-103539285D01*
X259881842Y-103539285D02*
X259977080Y-103586904D01*
X259977080Y-103586904D02*
X260024700Y-103634523D01*
X260024700Y-103634523D02*
X260072319Y-103729761D01*
X260072319Y-103729761D02*
X260072319Y-104015475D01*
X260072319Y-104015475D02*
X260024700Y-104110713D01*
X260024700Y-104110713D02*
X259977080Y-104158332D01*
X252773333Y-139334819D02*
X252440000Y-138858628D01*
X252201905Y-139334819D02*
X252201905Y-138334819D01*
X252201905Y-138334819D02*
X252582857Y-138334819D01*
X252582857Y-138334819D02*
X252678095Y-138382438D01*
X252678095Y-138382438D02*
X252725714Y-138430057D01*
X252725714Y-138430057D02*
X252773333Y-138525295D01*
X252773333Y-138525295D02*
X252773333Y-138668152D01*
X252773333Y-138668152D02*
X252725714Y-138763390D01*
X252725714Y-138763390D02*
X252678095Y-138811009D01*
X252678095Y-138811009D02*
X252582857Y-138858628D01*
X252582857Y-138858628D02*
X252201905Y-138858628D01*
X253106667Y-138334819D02*
X253773333Y-138334819D01*
X253773333Y-138334819D02*
X253344762Y-139334819D01*
X250625595Y-109979819D02*
X250625595Y-110789342D01*
X250625595Y-110789342D02*
X250673214Y-110884580D01*
X250673214Y-110884580D02*
X250720833Y-110932200D01*
X250720833Y-110932200D02*
X250816071Y-110979819D01*
X250816071Y-110979819D02*
X251006547Y-110979819D01*
X251006547Y-110979819D02*
X251101785Y-110932200D01*
X251101785Y-110932200D02*
X251149404Y-110884580D01*
X251149404Y-110884580D02*
X251197023Y-110789342D01*
X251197023Y-110789342D02*
X251197023Y-109979819D01*
X251577976Y-109979819D02*
X252197023Y-109979819D01*
X252197023Y-109979819D02*
X251863690Y-110360771D01*
X251863690Y-110360771D02*
X252006547Y-110360771D01*
X252006547Y-110360771D02*
X252101785Y-110408390D01*
X252101785Y-110408390D02*
X252149404Y-110456009D01*
X252149404Y-110456009D02*
X252197023Y-110551247D01*
X252197023Y-110551247D02*
X252197023Y-110789342D01*
X252197023Y-110789342D02*
X252149404Y-110884580D01*
X252149404Y-110884580D02*
X252101785Y-110932200D01*
X252101785Y-110932200D02*
X252006547Y-110979819D01*
X252006547Y-110979819D02*
X251720833Y-110979819D01*
X251720833Y-110979819D02*
X251625595Y-110932200D01*
X251625595Y-110932200D02*
X251577976Y-110884580D01*
X249823333Y-97784819D02*
X249490000Y-97308628D01*
X249251905Y-97784819D02*
X249251905Y-96784819D01*
X249251905Y-96784819D02*
X249632857Y-96784819D01*
X249632857Y-96784819D02*
X249728095Y-96832438D01*
X249728095Y-96832438D02*
X249775714Y-96880057D01*
X249775714Y-96880057D02*
X249823333Y-96975295D01*
X249823333Y-96975295D02*
X249823333Y-97118152D01*
X249823333Y-97118152D02*
X249775714Y-97213390D01*
X249775714Y-97213390D02*
X249728095Y-97261009D01*
X249728095Y-97261009D02*
X249632857Y-97308628D01*
X249632857Y-97308628D02*
X249251905Y-97308628D01*
X250680476Y-97118152D02*
X250680476Y-97784819D01*
X250442381Y-96737200D02*
X250204286Y-97451485D01*
X250204286Y-97451485D02*
X250823333Y-97451485D01*
X251726905Y-134174819D02*
X251726905Y-133174819D01*
X251726905Y-133174819D02*
X251965000Y-133174819D01*
X251965000Y-133174819D02*
X252107857Y-133222438D01*
X252107857Y-133222438D02*
X252203095Y-133317676D01*
X252203095Y-133317676D02*
X252250714Y-133412914D01*
X252250714Y-133412914D02*
X252298333Y-133603390D01*
X252298333Y-133603390D02*
X252298333Y-133746247D01*
X252298333Y-133746247D02*
X252250714Y-133936723D01*
X252250714Y-133936723D02*
X252203095Y-134031961D01*
X252203095Y-134031961D02*
X252107857Y-134127200D01*
X252107857Y-134127200D02*
X251965000Y-134174819D01*
X251965000Y-134174819D02*
X251726905Y-134174819D01*
X253250714Y-134174819D02*
X252679286Y-134174819D01*
X252965000Y-134174819D02*
X252965000Y-133174819D01*
X252965000Y-133174819D02*
X252869762Y-133317676D01*
X252869762Y-133317676D02*
X252774524Y-133412914D01*
X252774524Y-133412914D02*
X252679286Y-133460533D01*
X261039580Y-113116666D02*
X261087200Y-113164285D01*
X261087200Y-113164285D02*
X261134819Y-113307142D01*
X261134819Y-113307142D02*
X261134819Y-113402380D01*
X261134819Y-113402380D02*
X261087200Y-113545237D01*
X261087200Y-113545237D02*
X260991961Y-113640475D01*
X260991961Y-113640475D02*
X260896723Y-113688094D01*
X260896723Y-113688094D02*
X260706247Y-113735713D01*
X260706247Y-113735713D02*
X260563390Y-113735713D01*
X260563390Y-113735713D02*
X260372914Y-113688094D01*
X260372914Y-113688094D02*
X260277676Y-113640475D01*
X260277676Y-113640475D02*
X260182438Y-113545237D01*
X260182438Y-113545237D02*
X260134819Y-113402380D01*
X260134819Y-113402380D02*
X260134819Y-113307142D01*
X260134819Y-113307142D02*
X260182438Y-113164285D01*
X260182438Y-113164285D02*
X260230057Y-113116666D01*
X260230057Y-112735713D02*
X260182438Y-112688094D01*
X260182438Y-112688094D02*
X260134819Y-112592856D01*
X260134819Y-112592856D02*
X260134819Y-112354761D01*
X260134819Y-112354761D02*
X260182438Y-112259523D01*
X260182438Y-112259523D02*
X260230057Y-112211904D01*
X260230057Y-112211904D02*
X260325295Y-112164285D01*
X260325295Y-112164285D02*
X260420533Y-112164285D01*
X260420533Y-112164285D02*
X260563390Y-112211904D01*
X260563390Y-112211904D02*
X261134819Y-112783332D01*
X261134819Y-112783332D02*
X261134819Y-112164285D01*
X244823333Y-137784819D02*
X244490000Y-137308628D01*
X244251905Y-137784819D02*
X244251905Y-136784819D01*
X244251905Y-136784819D02*
X244632857Y-136784819D01*
X244632857Y-136784819D02*
X244728095Y-136832438D01*
X244728095Y-136832438D02*
X244775714Y-136880057D01*
X244775714Y-136880057D02*
X244823333Y-136975295D01*
X244823333Y-136975295D02*
X244823333Y-137118152D01*
X244823333Y-137118152D02*
X244775714Y-137213390D01*
X244775714Y-137213390D02*
X244728095Y-137261009D01*
X244728095Y-137261009D02*
X244632857Y-137308628D01*
X244632857Y-137308628D02*
X244251905Y-137308628D01*
X245156667Y-136784819D02*
X245775714Y-136784819D01*
X245775714Y-136784819D02*
X245442381Y-137165771D01*
X245442381Y-137165771D02*
X245585238Y-137165771D01*
X245585238Y-137165771D02*
X245680476Y-137213390D01*
X245680476Y-137213390D02*
X245728095Y-137261009D01*
X245728095Y-137261009D02*
X245775714Y-137356247D01*
X245775714Y-137356247D02*
X245775714Y-137594342D01*
X245775714Y-137594342D02*
X245728095Y-137689580D01*
X245728095Y-137689580D02*
X245680476Y-137737200D01*
X245680476Y-137737200D02*
X245585238Y-137784819D01*
X245585238Y-137784819D02*
X245299524Y-137784819D01*
X245299524Y-137784819D02*
X245204286Y-137737200D01*
X245204286Y-137737200D02*
X245156667Y-137689580D01*
X250738095Y-142804819D02*
X250738095Y-143614342D01*
X250738095Y-143614342D02*
X250785714Y-143709580D01*
X250785714Y-143709580D02*
X250833333Y-143757200D01*
X250833333Y-143757200D02*
X250928571Y-143804819D01*
X250928571Y-143804819D02*
X251119047Y-143804819D01*
X251119047Y-143804819D02*
X251214285Y-143757200D01*
X251214285Y-143757200D02*
X251261904Y-143709580D01*
X251261904Y-143709580D02*
X251309523Y-143614342D01*
X251309523Y-143614342D02*
X251309523Y-142804819D01*
X252214285Y-143138152D02*
X252214285Y-143804819D01*
X251976190Y-142757200D02*
X251738095Y-143471485D01*
X251738095Y-143471485D02*
X252357142Y-143471485D01*
X243396666Y-115824819D02*
X243396666Y-116539104D01*
X243396666Y-116539104D02*
X243349047Y-116681961D01*
X243349047Y-116681961D02*
X243253809Y-116777200D01*
X243253809Y-116777200D02*
X243110952Y-116824819D01*
X243110952Y-116824819D02*
X243015714Y-116824819D01*
X244301428Y-116158152D02*
X244301428Y-116824819D01*
X244063333Y-115777200D02*
X243825238Y-116491485D01*
X243825238Y-116491485D02*
X244444285Y-116491485D01*
X258833333Y-132229580D02*
X258785714Y-132277200D01*
X258785714Y-132277200D02*
X258642857Y-132324819D01*
X258642857Y-132324819D02*
X258547619Y-132324819D01*
X258547619Y-132324819D02*
X258404762Y-132277200D01*
X258404762Y-132277200D02*
X258309524Y-132181961D01*
X258309524Y-132181961D02*
X258261905Y-132086723D01*
X258261905Y-132086723D02*
X258214286Y-131896247D01*
X258214286Y-131896247D02*
X258214286Y-131753390D01*
X258214286Y-131753390D02*
X258261905Y-131562914D01*
X258261905Y-131562914D02*
X258309524Y-131467676D01*
X258309524Y-131467676D02*
X258404762Y-131372438D01*
X258404762Y-131372438D02*
X258547619Y-131324819D01*
X258547619Y-131324819D02*
X258642857Y-131324819D01*
X258642857Y-131324819D02*
X258785714Y-131372438D01*
X258785714Y-131372438D02*
X258833333Y-131420057D01*
X259738095Y-131324819D02*
X259261905Y-131324819D01*
X259261905Y-131324819D02*
X259214286Y-131801009D01*
X259214286Y-131801009D02*
X259261905Y-131753390D01*
X259261905Y-131753390D02*
X259357143Y-131705771D01*
X259357143Y-131705771D02*
X259595238Y-131705771D01*
X259595238Y-131705771D02*
X259690476Y-131753390D01*
X259690476Y-131753390D02*
X259738095Y-131801009D01*
X259738095Y-131801009D02*
X259785714Y-131896247D01*
X259785714Y-131896247D02*
X259785714Y-132134342D01*
X259785714Y-132134342D02*
X259738095Y-132229580D01*
X259738095Y-132229580D02*
X259690476Y-132277200D01*
X259690476Y-132277200D02*
X259595238Y-132324819D01*
X259595238Y-132324819D02*
X259357143Y-132324819D01*
X259357143Y-132324819D02*
X259261905Y-132277200D01*
X259261905Y-132277200D02*
X259214286Y-132229580D01*
X257774819Y-126266666D02*
X257298628Y-126599999D01*
X257774819Y-126838094D02*
X256774819Y-126838094D01*
X256774819Y-126838094D02*
X256774819Y-126457142D01*
X256774819Y-126457142D02*
X256822438Y-126361904D01*
X256822438Y-126361904D02*
X256870057Y-126314285D01*
X256870057Y-126314285D02*
X256965295Y-126266666D01*
X256965295Y-126266666D02*
X257108152Y-126266666D01*
X257108152Y-126266666D02*
X257203390Y-126314285D01*
X257203390Y-126314285D02*
X257251009Y-126361904D01*
X257251009Y-126361904D02*
X257298628Y-126457142D01*
X257298628Y-126457142D02*
X257298628Y-126838094D01*
X256870057Y-125885713D02*
X256822438Y-125838094D01*
X256822438Y-125838094D02*
X256774819Y-125742856D01*
X256774819Y-125742856D02*
X256774819Y-125504761D01*
X256774819Y-125504761D02*
X256822438Y-125409523D01*
X256822438Y-125409523D02*
X256870057Y-125361904D01*
X256870057Y-125361904D02*
X256965295Y-125314285D01*
X256965295Y-125314285D02*
X257060533Y-125314285D01*
X257060533Y-125314285D02*
X257203390Y-125361904D01*
X257203390Y-125361904D02*
X257774819Y-125933332D01*
X257774819Y-125933332D02*
X257774819Y-125314285D01*
X248333333Y-140229580D02*
X248285714Y-140277200D01*
X248285714Y-140277200D02*
X248142857Y-140324819D01*
X248142857Y-140324819D02*
X248047619Y-140324819D01*
X248047619Y-140324819D02*
X247904762Y-140277200D01*
X247904762Y-140277200D02*
X247809524Y-140181961D01*
X247809524Y-140181961D02*
X247761905Y-140086723D01*
X247761905Y-140086723D02*
X247714286Y-139896247D01*
X247714286Y-139896247D02*
X247714286Y-139753390D01*
X247714286Y-139753390D02*
X247761905Y-139562914D01*
X247761905Y-139562914D02*
X247809524Y-139467676D01*
X247809524Y-139467676D02*
X247904762Y-139372438D01*
X247904762Y-139372438D02*
X248047619Y-139324819D01*
X248047619Y-139324819D02*
X248142857Y-139324819D01*
X248142857Y-139324819D02*
X248285714Y-139372438D01*
X248285714Y-139372438D02*
X248333333Y-139420057D01*
X249190476Y-139658152D02*
X249190476Y-140324819D01*
X248952381Y-139277200D02*
X248714286Y-139991485D01*
X248714286Y-139991485D02*
X249333333Y-139991485D01*
X249488095Y-116704819D02*
X249488095Y-117514342D01*
X249488095Y-117514342D02*
X249535714Y-117609580D01*
X249535714Y-117609580D02*
X249583333Y-117657200D01*
X249583333Y-117657200D02*
X249678571Y-117704819D01*
X249678571Y-117704819D02*
X249869047Y-117704819D01*
X249869047Y-117704819D02*
X249964285Y-117657200D01*
X249964285Y-117657200D02*
X250011904Y-117609580D01*
X250011904Y-117609580D02*
X250059523Y-117514342D01*
X250059523Y-117514342D02*
X250059523Y-116704819D01*
X251059523Y-117704819D02*
X250488095Y-117704819D01*
X250773809Y-117704819D02*
X250773809Y-116704819D01*
X250773809Y-116704819D02*
X250678571Y-116847676D01*
X250678571Y-116847676D02*
X250583333Y-116942914D01*
X250583333Y-116942914D02*
X250488095Y-116990533D01*
X250891905Y-148604819D02*
X250891905Y-147604819D01*
X250891905Y-147604819D02*
X251272857Y-147604819D01*
X251272857Y-147604819D02*
X251368095Y-147652438D01*
X251368095Y-147652438D02*
X251415714Y-147700057D01*
X251415714Y-147700057D02*
X251463333Y-147795295D01*
X251463333Y-147795295D02*
X251463333Y-147938152D01*
X251463333Y-147938152D02*
X251415714Y-148033390D01*
X251415714Y-148033390D02*
X251368095Y-148081009D01*
X251368095Y-148081009D02*
X251272857Y-148128628D01*
X251272857Y-148128628D02*
X250891905Y-148128628D01*
X252415714Y-148604819D02*
X251844286Y-148604819D01*
X252130000Y-148604819D02*
X252130000Y-147604819D01*
X252130000Y-147604819D02*
X252034762Y-147747676D01*
X252034762Y-147747676D02*
X251939524Y-147842914D01*
X251939524Y-147842914D02*
X251844286Y-147890533D01*
X241467261Y-122900057D02*
X241372023Y-122852438D01*
X241372023Y-122852438D02*
X241276785Y-122757200D01*
X241276785Y-122757200D02*
X241133928Y-122614342D01*
X241133928Y-122614342D02*
X241038690Y-122566723D01*
X241038690Y-122566723D02*
X240943452Y-122566723D01*
X240991071Y-122804819D02*
X240895833Y-122757200D01*
X240895833Y-122757200D02*
X240800595Y-122661961D01*
X240800595Y-122661961D02*
X240752976Y-122471485D01*
X240752976Y-122471485D02*
X240752976Y-122138152D01*
X240752976Y-122138152D02*
X240800595Y-121947676D01*
X240800595Y-121947676D02*
X240895833Y-121852438D01*
X240895833Y-121852438D02*
X240991071Y-121804819D01*
X240991071Y-121804819D02*
X241181547Y-121804819D01*
X241181547Y-121804819D02*
X241276785Y-121852438D01*
X241276785Y-121852438D02*
X241372023Y-121947676D01*
X241372023Y-121947676D02*
X241419642Y-122138152D01*
X241419642Y-122138152D02*
X241419642Y-122471485D01*
X241419642Y-122471485D02*
X241372023Y-122661961D01*
X241372023Y-122661961D02*
X241276785Y-122757200D01*
X241276785Y-122757200D02*
X241181547Y-122804819D01*
X241181547Y-122804819D02*
X240991071Y-122804819D01*
X242372023Y-122804819D02*
X241800595Y-122804819D01*
X242086309Y-122804819D02*
X242086309Y-121804819D01*
X242086309Y-121804819D02*
X241991071Y-121947676D01*
X241991071Y-121947676D02*
X241895833Y-122042914D01*
X241895833Y-122042914D02*
X241800595Y-122090533D01*
X244857200Y-134883332D02*
X244904819Y-134740475D01*
X244904819Y-134740475D02*
X244904819Y-134502380D01*
X244904819Y-134502380D02*
X244857200Y-134407142D01*
X244857200Y-134407142D02*
X244809580Y-134359523D01*
X244809580Y-134359523D02*
X244714342Y-134311904D01*
X244714342Y-134311904D02*
X244619104Y-134311904D01*
X244619104Y-134311904D02*
X244523866Y-134359523D01*
X244523866Y-134359523D02*
X244476247Y-134407142D01*
X244476247Y-134407142D02*
X244428628Y-134502380D01*
X244428628Y-134502380D02*
X244381009Y-134692856D01*
X244381009Y-134692856D02*
X244333390Y-134788094D01*
X244333390Y-134788094D02*
X244285771Y-134835713D01*
X244285771Y-134835713D02*
X244190533Y-134883332D01*
X244190533Y-134883332D02*
X244095295Y-134883332D01*
X244095295Y-134883332D02*
X244000057Y-134835713D01*
X244000057Y-134835713D02*
X243952438Y-134788094D01*
X243952438Y-134788094D02*
X243904819Y-134692856D01*
X243904819Y-134692856D02*
X243904819Y-134454761D01*
X243904819Y-134454761D02*
X243952438Y-134311904D01*
X243904819Y-133978570D02*
X244904819Y-133740475D01*
X244904819Y-133740475D02*
X244190533Y-133549999D01*
X244190533Y-133549999D02*
X244904819Y-133359523D01*
X244904819Y-133359523D02*
X243904819Y-133121428D01*
X244904819Y-132216666D02*
X244904819Y-132788094D01*
X244904819Y-132502380D02*
X243904819Y-132502380D01*
X243904819Y-132502380D02*
X244047676Y-132597618D01*
X244047676Y-132597618D02*
X244142914Y-132692856D01*
X244142914Y-132692856D02*
X244190533Y-132788094D01*
X263604166Y-99224819D02*
X263604166Y-99939104D01*
X263604166Y-99939104D02*
X263556547Y-100081961D01*
X263556547Y-100081961D02*
X263461309Y-100177200D01*
X263461309Y-100177200D02*
X263318452Y-100224819D01*
X263318452Y-100224819D02*
X263223214Y-100224819D01*
X264032738Y-99320057D02*
X264080357Y-99272438D01*
X264080357Y-99272438D02*
X264175595Y-99224819D01*
X264175595Y-99224819D02*
X264413690Y-99224819D01*
X264413690Y-99224819D02*
X264508928Y-99272438D01*
X264508928Y-99272438D02*
X264556547Y-99320057D01*
X264556547Y-99320057D02*
X264604166Y-99415295D01*
X264604166Y-99415295D02*
X264604166Y-99510533D01*
X264604166Y-99510533D02*
X264556547Y-99653390D01*
X264556547Y-99653390D02*
X263985119Y-100224819D01*
X263985119Y-100224819D02*
X264604166Y-100224819D01*
X263104166Y-109224819D02*
X263104166Y-109939104D01*
X263104166Y-109939104D02*
X263056547Y-110081961D01*
X263056547Y-110081961D02*
X262961309Y-110177200D01*
X262961309Y-110177200D02*
X262818452Y-110224819D01*
X262818452Y-110224819D02*
X262723214Y-110224819D01*
X263485119Y-109224819D02*
X264104166Y-109224819D01*
X264104166Y-109224819D02*
X263770833Y-109605771D01*
X263770833Y-109605771D02*
X263913690Y-109605771D01*
X263913690Y-109605771D02*
X264008928Y-109653390D01*
X264008928Y-109653390D02*
X264056547Y-109701009D01*
X264056547Y-109701009D02*
X264104166Y-109796247D01*
X264104166Y-109796247D02*
X264104166Y-110034342D01*
X264104166Y-110034342D02*
X264056547Y-110129580D01*
X264056547Y-110129580D02*
X264008928Y-110177200D01*
X264008928Y-110177200D02*
X263913690Y-110224819D01*
X263913690Y-110224819D02*
X263627976Y-110224819D01*
X263627976Y-110224819D02*
X263532738Y-110177200D01*
X263532738Y-110177200D02*
X263485119Y-110129580D01*
X249125595Y-99479819D02*
X249125595Y-100289342D01*
X249125595Y-100289342D02*
X249173214Y-100384580D01*
X249173214Y-100384580D02*
X249220833Y-100432200D01*
X249220833Y-100432200D02*
X249316071Y-100479819D01*
X249316071Y-100479819D02*
X249506547Y-100479819D01*
X249506547Y-100479819D02*
X249601785Y-100432200D01*
X249601785Y-100432200D02*
X249649404Y-100384580D01*
X249649404Y-100384580D02*
X249697023Y-100289342D01*
X249697023Y-100289342D02*
X249697023Y-99479819D01*
X250125595Y-99575057D02*
X250173214Y-99527438D01*
X250173214Y-99527438D02*
X250268452Y-99479819D01*
X250268452Y-99479819D02*
X250506547Y-99479819D01*
X250506547Y-99479819D02*
X250601785Y-99527438D01*
X250601785Y-99527438D02*
X250649404Y-99575057D01*
X250649404Y-99575057D02*
X250697023Y-99670295D01*
X250697023Y-99670295D02*
X250697023Y-99765533D01*
X250697023Y-99765533D02*
X250649404Y-99908390D01*
X250649404Y-99908390D02*
X250077976Y-100479819D01*
X250077976Y-100479819D02*
X250697023Y-100479819D01*
D11*
%TO.C,J1*%
X264620000Y-134780000D02*
X264620000Y-132180000D01*
X267280000Y-132180000D02*
X264620000Y-132180000D01*
X267280000Y-134780000D02*
X264620000Y-134780000D01*
X267280000Y-134780000D02*
X267280000Y-132180000D01*
X267280000Y-136050000D02*
X267280000Y-137380000D01*
X267280000Y-137380000D02*
X265950000Y-137380000D01*
%TO.C,R6*%
X248113641Y-147170000D02*
X247806359Y-147170000D01*
X248113641Y-147930000D02*
X247806359Y-147930000D01*
%TO.C,R5*%
X251273859Y-107620000D02*
X251581141Y-107620000D01*
X251273859Y-108380000D02*
X251581141Y-108380000D01*
%TO.C,R1*%
X242886359Y-124670000D02*
X243193641Y-124670000D01*
X242886359Y-125430000D02*
X243193641Y-125430000D01*
%TO.C,J5*%
X239720000Y-126680000D02*
X241050000Y-126680000D01*
X239720000Y-128010000D02*
X239720000Y-126680000D01*
X239720000Y-129280000D02*
X239720000Y-131880000D01*
X239720000Y-129280000D02*
X242380000Y-129280000D01*
X239720000Y-131880000D02*
X242380000Y-131880000D01*
X242380000Y-129280000D02*
X242380000Y-131880000D01*
%TO.C,C1*%
X258315000Y-122361252D02*
X258315000Y-121838748D01*
X259785000Y-122361252D02*
X259785000Y-121838748D01*
%TO.C,C3*%
X257202500Y-104063748D02*
X257202500Y-104586252D01*
X258672500Y-104063748D02*
X258672500Y-104586252D01*
%TO.C,R7*%
X252786359Y-139670000D02*
X253093641Y-139670000D01*
X252786359Y-140430000D02*
X253093641Y-140430000D01*
%TO.C,U3*%
X249887500Y-111365000D02*
X252887500Y-111365000D01*
X249887500Y-114585000D02*
X252887500Y-114585000D01*
X249337500Y-111925000D02*
X248857500Y-111925000D01*
X249337500Y-111445000D01*
X249337500Y-111925000D01*
G36*
X249337500Y-111925000D02*
G01*
X248857500Y-111925000D01*
X249337500Y-111445000D01*
X249337500Y-111925000D01*
G37*
%TO.C,R4*%
X249836359Y-98120000D02*
X250143641Y-98120000D01*
X249836359Y-98880000D02*
X250143641Y-98880000D01*
D12*
%TO.C,D1*%
X253605000Y-132550000D02*
G75*
G02*
X253505000Y-132550000I-50000J0D01*
G01*
X253505000Y-132550000D02*
G75*
G02*
X253605000Y-132550000I50000J0D01*
G01*
D11*
%TO.C,C2*%
X258265000Y-112688748D02*
X258265000Y-113211252D01*
X259735000Y-112688748D02*
X259735000Y-113211252D01*
%TO.C,R3*%
X244836359Y-138120000D02*
X245143641Y-138120000D01*
X244836359Y-138880000D02*
X245143641Y-138880000D01*
%TO.C,U4*%
X250000000Y-144165000D02*
X253000000Y-144165000D01*
X250000000Y-146435000D02*
X253000000Y-146435000D01*
X249480000Y-144250000D02*
X249200000Y-144250000D01*
X249480000Y-143970000D01*
X249480000Y-144250000D01*
G36*
X249480000Y-144250000D02*
G01*
X249200000Y-144250000D01*
X249480000Y-143970000D01*
X249480000Y-144250000D01*
G37*
%TO.C,J4*%
X241130000Y-115370000D02*
X241130000Y-107630000D01*
X243730000Y-112770000D02*
X243730000Y-115370000D01*
X243730000Y-115370000D02*
X241130000Y-115370000D01*
X246330000Y-107630000D02*
X241130000Y-107630000D01*
X246330000Y-112770000D02*
X243730000Y-112770000D01*
X246330000Y-112770000D02*
X246330000Y-107630000D01*
X246330000Y-114040000D02*
X246330000Y-115370000D01*
X246330000Y-115370000D02*
X245000000Y-115370000D01*
%TO.C,C5*%
X258738748Y-132815000D02*
X259261252Y-132815000D01*
X258738748Y-134285000D02*
X259261252Y-134285000D01*
%TO.C,R2*%
X258110000Y-126253641D02*
X258110000Y-125946359D01*
X258870000Y-126253641D02*
X258870000Y-125946359D01*
%TO.C,C4*%
X248238748Y-140815000D02*
X248761252Y-140815000D01*
X248238748Y-142285000D02*
X248761252Y-142285000D01*
D10*
%TO.C,U1*%
X246625000Y-119675000D02*
X246625000Y-119900000D01*
X246625000Y-119675000D02*
X246950000Y-119675000D01*
X246625000Y-126925000D02*
X246625000Y-126600000D01*
X246625000Y-126925000D02*
X246950000Y-126925000D01*
X253875000Y-119675000D02*
X253550000Y-119675000D01*
X253875000Y-119675000D02*
X253875000Y-120000000D01*
X253875000Y-126925000D02*
X253550000Y-126925000D01*
X253875000Y-126925000D02*
X253875000Y-126600000D01*
D11*
X245860000Y-119960000D02*
X245520000Y-119490000D01*
X246200000Y-119490000D01*
X245860000Y-119960000D01*
G36*
X245860000Y-119960000D02*
G01*
X245520000Y-119490000D01*
X246200000Y-119490000D01*
X245860000Y-119960000D01*
G37*
%TO.C,P1*%
X246960000Y-153000000D02*
X246960000Y-151300000D01*
X256300000Y-153000000D02*
X256300000Y-151300000D01*
%TO.C,Q1*%
X241562500Y-118390000D02*
X240912500Y-118390000D01*
X241562500Y-118390000D02*
X242212500Y-118390000D01*
X241562500Y-121510000D02*
X240912500Y-121510000D01*
X241562500Y-121510000D02*
X242212500Y-121510000D01*
X242965000Y-121790000D02*
X242485000Y-121790000D01*
X242725000Y-121460000D01*
X242965000Y-121790000D01*
G36*
X242965000Y-121790000D02*
G01*
X242485000Y-121790000D01*
X242725000Y-121460000D01*
X242965000Y-121790000D01*
G37*
%TO.C,SW1*%
X245350000Y-133050000D02*
X245730000Y-132550000D01*
X245350000Y-134050000D02*
X245350000Y-133050000D01*
X245350000Y-134050000D02*
X245730000Y-134550000D01*
X245730000Y-132550000D02*
X246050000Y-132550000D01*
X245730000Y-134550000D02*
X246050000Y-134550000D01*
X246050000Y-131900000D02*
X246350000Y-131900000D01*
X246050000Y-135200000D02*
X246050000Y-131900000D01*
X246350000Y-135200000D02*
X246050000Y-135200000D01*
X248550000Y-135200000D02*
X248850000Y-135200000D01*
X248850000Y-131900000D02*
X248550000Y-131900000D01*
X248850000Y-135200000D02*
X248850000Y-131900000D01*
%TO.C,J2*%
X262607500Y-100770000D02*
X263937500Y-100770000D01*
X262607500Y-102100000D02*
X262607500Y-100770000D01*
X262607500Y-103370000D02*
X262607500Y-105970000D01*
X262607500Y-103370000D02*
X265267500Y-103370000D01*
X262607500Y-105970000D02*
X265267500Y-105970000D01*
X265267500Y-103370000D02*
X265267500Y-105970000D01*
%TO.C,J3*%
X262107500Y-110770000D02*
X263437500Y-110770000D01*
X262107500Y-112100000D02*
X262107500Y-110770000D01*
X262107500Y-113370000D02*
X262107500Y-115970000D01*
X262107500Y-113370000D02*
X264767500Y-113370000D01*
X262107500Y-115970000D02*
X264767500Y-115970000D01*
X264767500Y-113370000D02*
X264767500Y-115970000D01*
%TO.C,U2*%
X248387500Y-100865000D02*
X251387500Y-100865000D01*
X248387500Y-104085000D02*
X251387500Y-104085000D01*
X247837500Y-101425000D02*
X247357500Y-101425000D01*
X247837500Y-100945000D01*
X247837500Y-101425000D01*
G36*
X247837500Y-101425000D02*
G01*
X247357500Y-101425000D01*
X247837500Y-100945000D01*
X247837500Y-101425000D01*
G37*
%TD*%
M02*
