%TF.GenerationSoftware,KiCad,Pcbnew,8.0.7*%
%TF.CreationDate,2025-01-08T21:55:33-07:00*%
%TF.ProjectId,Hat PCB,48617420-5043-4422-9e6b-696361645f70,rev?*%
%TF.SameCoordinates,Original*%
%TF.FileFunction,Copper,L1,Top*%
%TF.FilePolarity,Positive*%
%FSLAX46Y46*%
G04 Gerber Fmt 4.6, Leading zero omitted, Abs format (unit mm)*
G04 Created by KiCad (PCBNEW 8.0.7) date 2025-01-08 21:55:33*
%MOMM*%
%LPD*%
G01*
G04 APERTURE LIST*
G04 Aperture macros list*
%AMRoundRect*
0 Rectangle with rounded corners*
0 $1 Rounding radius*
0 $2 $3 $4 $5 $6 $7 $8 $9 X,Y pos of 4 corners*
0 Add a 4 corners polygon primitive as box body*
4,1,4,$2,$3,$4,$5,$6,$7,$8,$9,$2,$3,0*
0 Add four circle primitives for the rounded corners*
1,1,$1+$1,$2,$3*
1,1,$1+$1,$4,$5*
1,1,$1+$1,$6,$7*
1,1,$1+$1,$8,$9*
0 Add four rect primitives between the rounded corners*
20,1,$1+$1,$2,$3,$4,$5,0*
20,1,$1+$1,$4,$5,$6,$7,0*
20,1,$1+$1,$6,$7,$8,$9,0*
20,1,$1+$1,$8,$9,$2,$3,0*%
G04 Aperture macros list end*
%TA.AperFunction,EtchedComponent*%
%ADD10C,0.010000*%
%TD*%
%TA.AperFunction,SMDPad,CuDef*%
%ADD11RoundRect,0.150000X0.825000X0.150000X-0.825000X0.150000X-0.825000X-0.150000X0.825000X-0.150000X0*%
%TD*%
%TA.AperFunction,SMDPad,CuDef*%
%ADD12RoundRect,0.062500X-0.062500X0.337500X-0.062500X-0.337500X0.062500X-0.337500X0.062500X0.337500X0*%
%TD*%
%TA.AperFunction,HeatsinkPad*%
%ADD13R,1.400000X1.700000*%
%TD*%
%TA.AperFunction,SMDPad,CuDef*%
%ADD14RoundRect,0.062500X0.412500X0.062500X-0.412500X0.062500X-0.412500X-0.062500X0.412500X-0.062500X0*%
%TD*%
%TA.AperFunction,HeatsinkPad*%
%ADD15R,1.450000X2.400000*%
%TD*%
%TA.AperFunction,SMDPad,CuDef*%
%ADD16R,1.700000X0.900000*%
%TD*%
%TA.AperFunction,SMDPad,CuDef*%
%ADD17RoundRect,0.250000X0.262500X0.450000X-0.262500X0.450000X-0.262500X-0.450000X0.262500X-0.450000X0*%
%TD*%
%TA.AperFunction,SMDPad,CuDef*%
%ADD18RoundRect,0.250000X-0.262500X-0.450000X0.262500X-0.450000X0.262500X0.450000X-0.262500X0.450000X0*%
%TD*%
%TA.AperFunction,SMDPad,CuDef*%
%ADD19RoundRect,0.150000X-0.150000X0.587500X-0.150000X-0.587500X0.150000X-0.587500X0.150000X0.587500X0*%
%TD*%
%TA.AperFunction,ComponentPad*%
%ADD20R,1.700000X1.700000*%
%TD*%
%TA.AperFunction,ComponentPad*%
%ADD21O,1.700000X1.700000*%
%TD*%
%TA.AperFunction,ComponentPad*%
%ADD22O,1.600000X0.800000*%
%TD*%
%TA.AperFunction,SMDPad,CuDef*%
%ADD23R,1.200000X0.700000*%
%TD*%
%TA.AperFunction,SMDPad,CuDef*%
%ADD24R,1.200000X0.760000*%
%TD*%
%TA.AperFunction,SMDPad,CuDef*%
%ADD25R,1.200000X0.800000*%
%TD*%
%TA.AperFunction,SMDPad,CuDef*%
%ADD26RoundRect,0.243750X0.456250X-0.243750X0.456250X0.243750X-0.456250X0.243750X-0.456250X-0.243750X0*%
%TD*%
%TA.AperFunction,SMDPad,CuDef*%
%ADD27RoundRect,0.243750X0.243750X0.456250X-0.243750X0.456250X-0.243750X-0.456250X0.243750X-0.456250X0*%
%TD*%
%TA.AperFunction,SMDPad,CuDef*%
%ADD28RoundRect,0.250000X-0.250000X-0.475000X0.250000X-0.475000X0.250000X0.475000X-0.250000X0.475000X0*%
%TD*%
%TA.AperFunction,SMDPad,CuDef*%
%ADD29RoundRect,0.250000X-0.475000X0.250000X-0.475000X-0.250000X0.475000X-0.250000X0.475000X0.250000X0*%
%TD*%
%TA.AperFunction,ViaPad*%
%ADD30C,0.600000*%
%TD*%
%TA.AperFunction,Conductor*%
%ADD31C,0.200000*%
%TD*%
%TA.AperFunction,Conductor*%
%ADD32C,0.700000*%
%TD*%
G04 APERTURE END LIST*
D10*
%TO.C,J3*%
X216329000Y-122771000D02*
X216357000Y-122773000D01*
X216386000Y-122777000D01*
X216414000Y-122782000D01*
X216442000Y-122789000D01*
X216470000Y-122797000D01*
X216497000Y-122807000D01*
X216524000Y-122818000D01*
X216550000Y-122830000D01*
X216575000Y-122844000D01*
X216600000Y-122859000D01*
X216623000Y-122875000D01*
X216646000Y-122893000D01*
X216668000Y-122911000D01*
X216689000Y-122931000D01*
X216709000Y-122952000D01*
X216727000Y-122974000D01*
X216745000Y-122997000D01*
X216761000Y-123020000D01*
X216776000Y-123045000D01*
X216790000Y-123070000D01*
X216802000Y-123096000D01*
X216813000Y-123123000D01*
X216823000Y-123150000D01*
X216831000Y-123178000D01*
X216838000Y-123206000D01*
X216843000Y-123234000D01*
X216847000Y-123263000D01*
X216849000Y-123291000D01*
X216850000Y-123320000D01*
X216849000Y-123349000D01*
X216847000Y-123377000D01*
X216843000Y-123406000D01*
X216838000Y-123434000D01*
X216831000Y-123462000D01*
X216823000Y-123490000D01*
X216813000Y-123517000D01*
X216802000Y-123544000D01*
X216790000Y-123570000D01*
X216776000Y-123595000D01*
X216761000Y-123620000D01*
X216745000Y-123643000D01*
X216727000Y-123666000D01*
X216709000Y-123688000D01*
X216689000Y-123709000D01*
X216668000Y-123729000D01*
X216646000Y-123747000D01*
X216623000Y-123765000D01*
X216600000Y-123781000D01*
X216575000Y-123796000D01*
X216550000Y-123810000D01*
X216524000Y-123822000D01*
X216497000Y-123833000D01*
X216470000Y-123843000D01*
X216442000Y-123851000D01*
X216414000Y-123858000D01*
X216386000Y-123863000D01*
X216357000Y-123867000D01*
X216329000Y-123869000D01*
X216300000Y-123870000D01*
X215700000Y-123870000D01*
X215671000Y-123869000D01*
X215643000Y-123867000D01*
X215614000Y-123863000D01*
X215586000Y-123858000D01*
X215558000Y-123851000D01*
X215530000Y-123843000D01*
X215503000Y-123833000D01*
X215476000Y-123822000D01*
X215450000Y-123810000D01*
X215425000Y-123796000D01*
X215400000Y-123781000D01*
X215377000Y-123765000D01*
X215354000Y-123747000D01*
X215332000Y-123729000D01*
X215311000Y-123709000D01*
X215291000Y-123688000D01*
X215273000Y-123666000D01*
X215255000Y-123643000D01*
X215239000Y-123620000D01*
X215224000Y-123595000D01*
X215210000Y-123570000D01*
X215198000Y-123544000D01*
X215187000Y-123517000D01*
X215177000Y-123490000D01*
X215169000Y-123462000D01*
X215162000Y-123434000D01*
X215157000Y-123406000D01*
X215153000Y-123377000D01*
X215151000Y-123349000D01*
X215150000Y-123320000D01*
X215151000Y-123291000D01*
X215153000Y-123263000D01*
X215157000Y-123234000D01*
X215162000Y-123206000D01*
X215169000Y-123178000D01*
X215177000Y-123150000D01*
X215187000Y-123123000D01*
X215198000Y-123096000D01*
X215210000Y-123070000D01*
X215224000Y-123045000D01*
X215239000Y-123020000D01*
X215255000Y-122997000D01*
X215273000Y-122974000D01*
X215291000Y-122952000D01*
X215311000Y-122931000D01*
X215332000Y-122911000D01*
X215354000Y-122893000D01*
X215377000Y-122875000D01*
X215400000Y-122859000D01*
X215425000Y-122844000D01*
X215450000Y-122830000D01*
X215476000Y-122818000D01*
X215503000Y-122807000D01*
X215530000Y-122797000D01*
X215558000Y-122789000D01*
X215586000Y-122782000D01*
X215614000Y-122777000D01*
X215643000Y-122773000D01*
X215671000Y-122771000D01*
X215700000Y-122770000D01*
X216300000Y-122770000D01*
X216329000Y-122771000D01*
%TA.AperFunction,EtchedComponent*%
G36*
X216329000Y-122771000D02*
G01*
X216357000Y-122773000D01*
X216386000Y-122777000D01*
X216414000Y-122782000D01*
X216442000Y-122789000D01*
X216470000Y-122797000D01*
X216497000Y-122807000D01*
X216524000Y-122818000D01*
X216550000Y-122830000D01*
X216575000Y-122844000D01*
X216600000Y-122859000D01*
X216623000Y-122875000D01*
X216646000Y-122893000D01*
X216668000Y-122911000D01*
X216689000Y-122931000D01*
X216709000Y-122952000D01*
X216727000Y-122974000D01*
X216745000Y-122997000D01*
X216761000Y-123020000D01*
X216776000Y-123045000D01*
X216790000Y-123070000D01*
X216802000Y-123096000D01*
X216813000Y-123123000D01*
X216823000Y-123150000D01*
X216831000Y-123178000D01*
X216838000Y-123206000D01*
X216843000Y-123234000D01*
X216847000Y-123263000D01*
X216849000Y-123291000D01*
X216850000Y-123320000D01*
X216849000Y-123349000D01*
X216847000Y-123377000D01*
X216843000Y-123406000D01*
X216838000Y-123434000D01*
X216831000Y-123462000D01*
X216823000Y-123490000D01*
X216813000Y-123517000D01*
X216802000Y-123544000D01*
X216790000Y-123570000D01*
X216776000Y-123595000D01*
X216761000Y-123620000D01*
X216745000Y-123643000D01*
X216727000Y-123666000D01*
X216709000Y-123688000D01*
X216689000Y-123709000D01*
X216668000Y-123729000D01*
X216646000Y-123747000D01*
X216623000Y-123765000D01*
X216600000Y-123781000D01*
X216575000Y-123796000D01*
X216550000Y-123810000D01*
X216524000Y-123822000D01*
X216497000Y-123833000D01*
X216470000Y-123843000D01*
X216442000Y-123851000D01*
X216414000Y-123858000D01*
X216386000Y-123863000D01*
X216357000Y-123867000D01*
X216329000Y-123869000D01*
X216300000Y-123870000D01*
X215700000Y-123870000D01*
X215671000Y-123869000D01*
X215643000Y-123867000D01*
X215614000Y-123863000D01*
X215586000Y-123858000D01*
X215558000Y-123851000D01*
X215530000Y-123843000D01*
X215503000Y-123833000D01*
X215476000Y-123822000D01*
X215450000Y-123810000D01*
X215425000Y-123796000D01*
X215400000Y-123781000D01*
X215377000Y-123765000D01*
X215354000Y-123747000D01*
X215332000Y-123729000D01*
X215311000Y-123709000D01*
X215291000Y-123688000D01*
X215273000Y-123666000D01*
X215255000Y-123643000D01*
X215239000Y-123620000D01*
X215224000Y-123595000D01*
X215210000Y-123570000D01*
X215198000Y-123544000D01*
X215187000Y-123517000D01*
X215177000Y-123490000D01*
X215169000Y-123462000D01*
X215162000Y-123434000D01*
X215157000Y-123406000D01*
X215153000Y-123377000D01*
X215151000Y-123349000D01*
X215150000Y-123320000D01*
X215151000Y-123291000D01*
X215153000Y-123263000D01*
X215157000Y-123234000D01*
X215162000Y-123206000D01*
X215169000Y-123178000D01*
X215177000Y-123150000D01*
X215187000Y-123123000D01*
X215198000Y-123096000D01*
X215210000Y-123070000D01*
X215224000Y-123045000D01*
X215239000Y-123020000D01*
X215255000Y-122997000D01*
X215273000Y-122974000D01*
X215291000Y-122952000D01*
X215311000Y-122931000D01*
X215332000Y-122911000D01*
X215354000Y-122893000D01*
X215377000Y-122875000D01*
X215400000Y-122859000D01*
X215425000Y-122844000D01*
X215450000Y-122830000D01*
X215476000Y-122818000D01*
X215503000Y-122807000D01*
X215530000Y-122797000D01*
X215558000Y-122789000D01*
X215586000Y-122782000D01*
X215614000Y-122777000D01*
X215643000Y-122773000D01*
X215671000Y-122771000D01*
X215700000Y-122770000D01*
X216300000Y-122770000D01*
X216329000Y-122771000D01*
G37*
%TD.AperFunction*%
X216329000Y-114131000D02*
X216357000Y-114133000D01*
X216386000Y-114137000D01*
X216414000Y-114142000D01*
X216442000Y-114149000D01*
X216470000Y-114157000D01*
X216497000Y-114167000D01*
X216524000Y-114178000D01*
X216550000Y-114190000D01*
X216575000Y-114204000D01*
X216600000Y-114219000D01*
X216623000Y-114235000D01*
X216646000Y-114253000D01*
X216668000Y-114271000D01*
X216689000Y-114291000D01*
X216709000Y-114312000D01*
X216727000Y-114334000D01*
X216745000Y-114357000D01*
X216761000Y-114380000D01*
X216776000Y-114405000D01*
X216790000Y-114430000D01*
X216802000Y-114456000D01*
X216813000Y-114483000D01*
X216823000Y-114510000D01*
X216831000Y-114538000D01*
X216838000Y-114566000D01*
X216843000Y-114594000D01*
X216847000Y-114623000D01*
X216849000Y-114651000D01*
X216850000Y-114680000D01*
X216849000Y-114709000D01*
X216847000Y-114737000D01*
X216843000Y-114766000D01*
X216838000Y-114794000D01*
X216831000Y-114822000D01*
X216823000Y-114850000D01*
X216813000Y-114877000D01*
X216802000Y-114904000D01*
X216790000Y-114930000D01*
X216776000Y-114955000D01*
X216761000Y-114980000D01*
X216745000Y-115003000D01*
X216727000Y-115026000D01*
X216709000Y-115048000D01*
X216689000Y-115069000D01*
X216668000Y-115089000D01*
X216646000Y-115107000D01*
X216623000Y-115125000D01*
X216600000Y-115141000D01*
X216575000Y-115156000D01*
X216550000Y-115170000D01*
X216524000Y-115182000D01*
X216497000Y-115193000D01*
X216470000Y-115203000D01*
X216442000Y-115211000D01*
X216414000Y-115218000D01*
X216386000Y-115223000D01*
X216357000Y-115227000D01*
X216329000Y-115229000D01*
X216300000Y-115230000D01*
X215700000Y-115230000D01*
X215671000Y-115229000D01*
X215643000Y-115227000D01*
X215614000Y-115223000D01*
X215586000Y-115218000D01*
X215558000Y-115211000D01*
X215530000Y-115203000D01*
X215503000Y-115193000D01*
X215476000Y-115182000D01*
X215450000Y-115170000D01*
X215425000Y-115156000D01*
X215400000Y-115141000D01*
X215377000Y-115125000D01*
X215354000Y-115107000D01*
X215332000Y-115089000D01*
X215311000Y-115069000D01*
X215291000Y-115048000D01*
X215273000Y-115026000D01*
X215255000Y-115003000D01*
X215239000Y-114980000D01*
X215224000Y-114955000D01*
X215210000Y-114930000D01*
X215198000Y-114904000D01*
X215187000Y-114877000D01*
X215177000Y-114850000D01*
X215169000Y-114822000D01*
X215162000Y-114794000D01*
X215157000Y-114766000D01*
X215153000Y-114737000D01*
X215151000Y-114709000D01*
X215150000Y-114680000D01*
X215151000Y-114651000D01*
X215153000Y-114623000D01*
X215157000Y-114594000D01*
X215162000Y-114566000D01*
X215169000Y-114538000D01*
X215177000Y-114510000D01*
X215187000Y-114483000D01*
X215198000Y-114456000D01*
X215210000Y-114430000D01*
X215224000Y-114405000D01*
X215239000Y-114380000D01*
X215255000Y-114357000D01*
X215273000Y-114334000D01*
X215291000Y-114312000D01*
X215311000Y-114291000D01*
X215332000Y-114271000D01*
X215354000Y-114253000D01*
X215377000Y-114235000D01*
X215400000Y-114219000D01*
X215425000Y-114204000D01*
X215450000Y-114190000D01*
X215476000Y-114178000D01*
X215503000Y-114167000D01*
X215530000Y-114157000D01*
X215558000Y-114149000D01*
X215586000Y-114142000D01*
X215614000Y-114137000D01*
X215643000Y-114133000D01*
X215671000Y-114131000D01*
X215700000Y-114130000D01*
X216300000Y-114130000D01*
X216329000Y-114131000D01*
%TA.AperFunction,EtchedComponent*%
G36*
X216329000Y-114131000D02*
G01*
X216357000Y-114133000D01*
X216386000Y-114137000D01*
X216414000Y-114142000D01*
X216442000Y-114149000D01*
X216470000Y-114157000D01*
X216497000Y-114167000D01*
X216524000Y-114178000D01*
X216550000Y-114190000D01*
X216575000Y-114204000D01*
X216600000Y-114219000D01*
X216623000Y-114235000D01*
X216646000Y-114253000D01*
X216668000Y-114271000D01*
X216689000Y-114291000D01*
X216709000Y-114312000D01*
X216727000Y-114334000D01*
X216745000Y-114357000D01*
X216761000Y-114380000D01*
X216776000Y-114405000D01*
X216790000Y-114430000D01*
X216802000Y-114456000D01*
X216813000Y-114483000D01*
X216823000Y-114510000D01*
X216831000Y-114538000D01*
X216838000Y-114566000D01*
X216843000Y-114594000D01*
X216847000Y-114623000D01*
X216849000Y-114651000D01*
X216850000Y-114680000D01*
X216849000Y-114709000D01*
X216847000Y-114737000D01*
X216843000Y-114766000D01*
X216838000Y-114794000D01*
X216831000Y-114822000D01*
X216823000Y-114850000D01*
X216813000Y-114877000D01*
X216802000Y-114904000D01*
X216790000Y-114930000D01*
X216776000Y-114955000D01*
X216761000Y-114980000D01*
X216745000Y-115003000D01*
X216727000Y-115026000D01*
X216709000Y-115048000D01*
X216689000Y-115069000D01*
X216668000Y-115089000D01*
X216646000Y-115107000D01*
X216623000Y-115125000D01*
X216600000Y-115141000D01*
X216575000Y-115156000D01*
X216550000Y-115170000D01*
X216524000Y-115182000D01*
X216497000Y-115193000D01*
X216470000Y-115203000D01*
X216442000Y-115211000D01*
X216414000Y-115218000D01*
X216386000Y-115223000D01*
X216357000Y-115227000D01*
X216329000Y-115229000D01*
X216300000Y-115230000D01*
X215700000Y-115230000D01*
X215671000Y-115229000D01*
X215643000Y-115227000D01*
X215614000Y-115223000D01*
X215586000Y-115218000D01*
X215558000Y-115211000D01*
X215530000Y-115203000D01*
X215503000Y-115193000D01*
X215476000Y-115182000D01*
X215450000Y-115170000D01*
X215425000Y-115156000D01*
X215400000Y-115141000D01*
X215377000Y-115125000D01*
X215354000Y-115107000D01*
X215332000Y-115089000D01*
X215311000Y-115069000D01*
X215291000Y-115048000D01*
X215273000Y-115026000D01*
X215255000Y-115003000D01*
X215239000Y-114980000D01*
X215224000Y-114955000D01*
X215210000Y-114930000D01*
X215198000Y-114904000D01*
X215187000Y-114877000D01*
X215177000Y-114850000D01*
X215169000Y-114822000D01*
X215162000Y-114794000D01*
X215157000Y-114766000D01*
X215153000Y-114737000D01*
X215151000Y-114709000D01*
X215150000Y-114680000D01*
X215151000Y-114651000D01*
X215153000Y-114623000D01*
X215157000Y-114594000D01*
X215162000Y-114566000D01*
X215169000Y-114538000D01*
X215177000Y-114510000D01*
X215187000Y-114483000D01*
X215198000Y-114456000D01*
X215210000Y-114430000D01*
X215224000Y-114405000D01*
X215239000Y-114380000D01*
X215255000Y-114357000D01*
X215273000Y-114334000D01*
X215291000Y-114312000D01*
X215311000Y-114291000D01*
X215332000Y-114271000D01*
X215354000Y-114253000D01*
X215377000Y-114235000D01*
X215400000Y-114219000D01*
X215425000Y-114204000D01*
X215450000Y-114190000D01*
X215476000Y-114178000D01*
X215503000Y-114167000D01*
X215530000Y-114157000D01*
X215558000Y-114149000D01*
X215586000Y-114142000D01*
X215614000Y-114137000D01*
X215643000Y-114133000D01*
X215671000Y-114131000D01*
X215700000Y-114130000D01*
X216300000Y-114130000D01*
X216329000Y-114131000D01*
G37*
%TD.AperFunction*%
X212529000Y-122771000D02*
X212557000Y-122773000D01*
X212586000Y-122777000D01*
X212614000Y-122782000D01*
X212642000Y-122789000D01*
X212670000Y-122797000D01*
X212697000Y-122807000D01*
X212724000Y-122818000D01*
X212750000Y-122830000D01*
X212775000Y-122844000D01*
X212800000Y-122859000D01*
X212823000Y-122875000D01*
X212846000Y-122893000D01*
X212868000Y-122911000D01*
X212889000Y-122931000D01*
X212909000Y-122952000D01*
X212927000Y-122974000D01*
X212945000Y-122997000D01*
X212961000Y-123020000D01*
X212976000Y-123045000D01*
X212990000Y-123070000D01*
X213002000Y-123096000D01*
X213013000Y-123123000D01*
X213023000Y-123150000D01*
X213031000Y-123178000D01*
X213038000Y-123206000D01*
X213043000Y-123234000D01*
X213047000Y-123263000D01*
X213049000Y-123291000D01*
X213050000Y-123320000D01*
X213049000Y-123349000D01*
X213047000Y-123377000D01*
X213043000Y-123406000D01*
X213038000Y-123434000D01*
X213031000Y-123462000D01*
X213023000Y-123490000D01*
X213013000Y-123517000D01*
X213002000Y-123544000D01*
X212990000Y-123570000D01*
X212976000Y-123595000D01*
X212961000Y-123620000D01*
X212945000Y-123643000D01*
X212927000Y-123666000D01*
X212909000Y-123688000D01*
X212889000Y-123709000D01*
X212868000Y-123729000D01*
X212846000Y-123747000D01*
X212823000Y-123765000D01*
X212800000Y-123781000D01*
X212775000Y-123796000D01*
X212750000Y-123810000D01*
X212724000Y-123822000D01*
X212697000Y-123833000D01*
X212670000Y-123843000D01*
X212642000Y-123851000D01*
X212614000Y-123858000D01*
X212586000Y-123863000D01*
X212557000Y-123867000D01*
X212529000Y-123869000D01*
X212500000Y-123870000D01*
X211900000Y-123870000D01*
X211871000Y-123869000D01*
X211843000Y-123867000D01*
X211814000Y-123863000D01*
X211786000Y-123858000D01*
X211758000Y-123851000D01*
X211730000Y-123843000D01*
X211703000Y-123833000D01*
X211676000Y-123822000D01*
X211650000Y-123810000D01*
X211625000Y-123796000D01*
X211600000Y-123781000D01*
X211577000Y-123765000D01*
X211554000Y-123747000D01*
X211532000Y-123729000D01*
X211511000Y-123709000D01*
X211491000Y-123688000D01*
X211473000Y-123666000D01*
X211455000Y-123643000D01*
X211439000Y-123620000D01*
X211424000Y-123595000D01*
X211410000Y-123570000D01*
X211398000Y-123544000D01*
X211387000Y-123517000D01*
X211377000Y-123490000D01*
X211369000Y-123462000D01*
X211362000Y-123434000D01*
X211357000Y-123406000D01*
X211353000Y-123377000D01*
X211351000Y-123349000D01*
X211350000Y-123320000D01*
X211351000Y-123291000D01*
X211353000Y-123263000D01*
X211357000Y-123234000D01*
X211362000Y-123206000D01*
X211369000Y-123178000D01*
X211377000Y-123150000D01*
X211387000Y-123123000D01*
X211398000Y-123096000D01*
X211410000Y-123070000D01*
X211424000Y-123045000D01*
X211439000Y-123020000D01*
X211455000Y-122997000D01*
X211473000Y-122974000D01*
X211491000Y-122952000D01*
X211511000Y-122931000D01*
X211532000Y-122911000D01*
X211554000Y-122893000D01*
X211577000Y-122875000D01*
X211600000Y-122859000D01*
X211625000Y-122844000D01*
X211650000Y-122830000D01*
X211676000Y-122818000D01*
X211703000Y-122807000D01*
X211730000Y-122797000D01*
X211758000Y-122789000D01*
X211786000Y-122782000D01*
X211814000Y-122777000D01*
X211843000Y-122773000D01*
X211871000Y-122771000D01*
X211900000Y-122770000D01*
X212500000Y-122770000D01*
X212529000Y-122771000D01*
%TA.AperFunction,EtchedComponent*%
G36*
X212529000Y-122771000D02*
G01*
X212557000Y-122773000D01*
X212586000Y-122777000D01*
X212614000Y-122782000D01*
X212642000Y-122789000D01*
X212670000Y-122797000D01*
X212697000Y-122807000D01*
X212724000Y-122818000D01*
X212750000Y-122830000D01*
X212775000Y-122844000D01*
X212800000Y-122859000D01*
X212823000Y-122875000D01*
X212846000Y-122893000D01*
X212868000Y-122911000D01*
X212889000Y-122931000D01*
X212909000Y-122952000D01*
X212927000Y-122974000D01*
X212945000Y-122997000D01*
X212961000Y-123020000D01*
X212976000Y-123045000D01*
X212990000Y-123070000D01*
X213002000Y-123096000D01*
X213013000Y-123123000D01*
X213023000Y-123150000D01*
X213031000Y-123178000D01*
X213038000Y-123206000D01*
X213043000Y-123234000D01*
X213047000Y-123263000D01*
X213049000Y-123291000D01*
X213050000Y-123320000D01*
X213049000Y-123349000D01*
X213047000Y-123377000D01*
X213043000Y-123406000D01*
X213038000Y-123434000D01*
X213031000Y-123462000D01*
X213023000Y-123490000D01*
X213013000Y-123517000D01*
X213002000Y-123544000D01*
X212990000Y-123570000D01*
X212976000Y-123595000D01*
X212961000Y-123620000D01*
X212945000Y-123643000D01*
X212927000Y-123666000D01*
X212909000Y-123688000D01*
X212889000Y-123709000D01*
X212868000Y-123729000D01*
X212846000Y-123747000D01*
X212823000Y-123765000D01*
X212800000Y-123781000D01*
X212775000Y-123796000D01*
X212750000Y-123810000D01*
X212724000Y-123822000D01*
X212697000Y-123833000D01*
X212670000Y-123843000D01*
X212642000Y-123851000D01*
X212614000Y-123858000D01*
X212586000Y-123863000D01*
X212557000Y-123867000D01*
X212529000Y-123869000D01*
X212500000Y-123870000D01*
X211900000Y-123870000D01*
X211871000Y-123869000D01*
X211843000Y-123867000D01*
X211814000Y-123863000D01*
X211786000Y-123858000D01*
X211758000Y-123851000D01*
X211730000Y-123843000D01*
X211703000Y-123833000D01*
X211676000Y-123822000D01*
X211650000Y-123810000D01*
X211625000Y-123796000D01*
X211600000Y-123781000D01*
X211577000Y-123765000D01*
X211554000Y-123747000D01*
X211532000Y-123729000D01*
X211511000Y-123709000D01*
X211491000Y-123688000D01*
X211473000Y-123666000D01*
X211455000Y-123643000D01*
X211439000Y-123620000D01*
X211424000Y-123595000D01*
X211410000Y-123570000D01*
X211398000Y-123544000D01*
X211387000Y-123517000D01*
X211377000Y-123490000D01*
X211369000Y-123462000D01*
X211362000Y-123434000D01*
X211357000Y-123406000D01*
X211353000Y-123377000D01*
X211351000Y-123349000D01*
X211350000Y-123320000D01*
X211351000Y-123291000D01*
X211353000Y-123263000D01*
X211357000Y-123234000D01*
X211362000Y-123206000D01*
X211369000Y-123178000D01*
X211377000Y-123150000D01*
X211387000Y-123123000D01*
X211398000Y-123096000D01*
X211410000Y-123070000D01*
X211424000Y-123045000D01*
X211439000Y-123020000D01*
X211455000Y-122997000D01*
X211473000Y-122974000D01*
X211491000Y-122952000D01*
X211511000Y-122931000D01*
X211532000Y-122911000D01*
X211554000Y-122893000D01*
X211577000Y-122875000D01*
X211600000Y-122859000D01*
X211625000Y-122844000D01*
X211650000Y-122830000D01*
X211676000Y-122818000D01*
X211703000Y-122807000D01*
X211730000Y-122797000D01*
X211758000Y-122789000D01*
X211786000Y-122782000D01*
X211814000Y-122777000D01*
X211843000Y-122773000D01*
X211871000Y-122771000D01*
X211900000Y-122770000D01*
X212500000Y-122770000D01*
X212529000Y-122771000D01*
G37*
%TD.AperFunction*%
X212529000Y-114131000D02*
X212557000Y-114133000D01*
X212586000Y-114137000D01*
X212614000Y-114142000D01*
X212642000Y-114149000D01*
X212670000Y-114157000D01*
X212697000Y-114167000D01*
X212724000Y-114178000D01*
X212750000Y-114190000D01*
X212775000Y-114204000D01*
X212800000Y-114219000D01*
X212823000Y-114235000D01*
X212846000Y-114253000D01*
X212868000Y-114271000D01*
X212889000Y-114291000D01*
X212909000Y-114312000D01*
X212927000Y-114334000D01*
X212945000Y-114357000D01*
X212961000Y-114380000D01*
X212976000Y-114405000D01*
X212990000Y-114430000D01*
X213002000Y-114456000D01*
X213013000Y-114483000D01*
X213023000Y-114510000D01*
X213031000Y-114538000D01*
X213038000Y-114566000D01*
X213043000Y-114594000D01*
X213047000Y-114623000D01*
X213049000Y-114651000D01*
X213050000Y-114680000D01*
X213049000Y-114709000D01*
X213047000Y-114737000D01*
X213043000Y-114766000D01*
X213038000Y-114794000D01*
X213031000Y-114822000D01*
X213023000Y-114850000D01*
X213013000Y-114877000D01*
X213002000Y-114904000D01*
X212990000Y-114930000D01*
X212976000Y-114955000D01*
X212961000Y-114980000D01*
X212945000Y-115003000D01*
X212927000Y-115026000D01*
X212909000Y-115048000D01*
X212889000Y-115069000D01*
X212868000Y-115089000D01*
X212846000Y-115107000D01*
X212823000Y-115125000D01*
X212800000Y-115141000D01*
X212775000Y-115156000D01*
X212750000Y-115170000D01*
X212724000Y-115182000D01*
X212697000Y-115193000D01*
X212670000Y-115203000D01*
X212642000Y-115211000D01*
X212614000Y-115218000D01*
X212586000Y-115223000D01*
X212557000Y-115227000D01*
X212529000Y-115229000D01*
X212500000Y-115230000D01*
X211900000Y-115230000D01*
X211871000Y-115229000D01*
X211843000Y-115227000D01*
X211814000Y-115223000D01*
X211786000Y-115218000D01*
X211758000Y-115211000D01*
X211730000Y-115203000D01*
X211703000Y-115193000D01*
X211676000Y-115182000D01*
X211650000Y-115170000D01*
X211625000Y-115156000D01*
X211600000Y-115141000D01*
X211577000Y-115125000D01*
X211554000Y-115107000D01*
X211532000Y-115089000D01*
X211511000Y-115069000D01*
X211491000Y-115048000D01*
X211473000Y-115026000D01*
X211455000Y-115003000D01*
X211439000Y-114980000D01*
X211424000Y-114955000D01*
X211410000Y-114930000D01*
X211398000Y-114904000D01*
X211387000Y-114877000D01*
X211377000Y-114850000D01*
X211369000Y-114822000D01*
X211362000Y-114794000D01*
X211357000Y-114766000D01*
X211353000Y-114737000D01*
X211351000Y-114709000D01*
X211350000Y-114680000D01*
X211351000Y-114651000D01*
X211353000Y-114623000D01*
X211357000Y-114594000D01*
X211362000Y-114566000D01*
X211369000Y-114538000D01*
X211377000Y-114510000D01*
X211387000Y-114483000D01*
X211398000Y-114456000D01*
X211410000Y-114430000D01*
X211424000Y-114405000D01*
X211439000Y-114380000D01*
X211455000Y-114357000D01*
X211473000Y-114334000D01*
X211491000Y-114312000D01*
X211511000Y-114291000D01*
X211532000Y-114271000D01*
X211554000Y-114253000D01*
X211577000Y-114235000D01*
X211600000Y-114219000D01*
X211625000Y-114204000D01*
X211650000Y-114190000D01*
X211676000Y-114178000D01*
X211703000Y-114167000D01*
X211730000Y-114157000D01*
X211758000Y-114149000D01*
X211786000Y-114142000D01*
X211814000Y-114137000D01*
X211843000Y-114133000D01*
X211871000Y-114131000D01*
X211900000Y-114130000D01*
X212500000Y-114130000D01*
X212529000Y-114131000D01*
%TA.AperFunction,EtchedComponent*%
G36*
X212529000Y-114131000D02*
G01*
X212557000Y-114133000D01*
X212586000Y-114137000D01*
X212614000Y-114142000D01*
X212642000Y-114149000D01*
X212670000Y-114157000D01*
X212697000Y-114167000D01*
X212724000Y-114178000D01*
X212750000Y-114190000D01*
X212775000Y-114204000D01*
X212800000Y-114219000D01*
X212823000Y-114235000D01*
X212846000Y-114253000D01*
X212868000Y-114271000D01*
X212889000Y-114291000D01*
X212909000Y-114312000D01*
X212927000Y-114334000D01*
X212945000Y-114357000D01*
X212961000Y-114380000D01*
X212976000Y-114405000D01*
X212990000Y-114430000D01*
X213002000Y-114456000D01*
X213013000Y-114483000D01*
X213023000Y-114510000D01*
X213031000Y-114538000D01*
X213038000Y-114566000D01*
X213043000Y-114594000D01*
X213047000Y-114623000D01*
X213049000Y-114651000D01*
X213050000Y-114680000D01*
X213049000Y-114709000D01*
X213047000Y-114737000D01*
X213043000Y-114766000D01*
X213038000Y-114794000D01*
X213031000Y-114822000D01*
X213023000Y-114850000D01*
X213013000Y-114877000D01*
X213002000Y-114904000D01*
X212990000Y-114930000D01*
X212976000Y-114955000D01*
X212961000Y-114980000D01*
X212945000Y-115003000D01*
X212927000Y-115026000D01*
X212909000Y-115048000D01*
X212889000Y-115069000D01*
X212868000Y-115089000D01*
X212846000Y-115107000D01*
X212823000Y-115125000D01*
X212800000Y-115141000D01*
X212775000Y-115156000D01*
X212750000Y-115170000D01*
X212724000Y-115182000D01*
X212697000Y-115193000D01*
X212670000Y-115203000D01*
X212642000Y-115211000D01*
X212614000Y-115218000D01*
X212586000Y-115223000D01*
X212557000Y-115227000D01*
X212529000Y-115229000D01*
X212500000Y-115230000D01*
X211900000Y-115230000D01*
X211871000Y-115229000D01*
X211843000Y-115227000D01*
X211814000Y-115223000D01*
X211786000Y-115218000D01*
X211758000Y-115211000D01*
X211730000Y-115203000D01*
X211703000Y-115193000D01*
X211676000Y-115182000D01*
X211650000Y-115170000D01*
X211625000Y-115156000D01*
X211600000Y-115141000D01*
X211577000Y-115125000D01*
X211554000Y-115107000D01*
X211532000Y-115089000D01*
X211511000Y-115069000D01*
X211491000Y-115048000D01*
X211473000Y-115026000D01*
X211455000Y-115003000D01*
X211439000Y-114980000D01*
X211424000Y-114955000D01*
X211410000Y-114930000D01*
X211398000Y-114904000D01*
X211387000Y-114877000D01*
X211377000Y-114850000D01*
X211369000Y-114822000D01*
X211362000Y-114794000D01*
X211357000Y-114766000D01*
X211353000Y-114737000D01*
X211351000Y-114709000D01*
X211350000Y-114680000D01*
X211351000Y-114651000D01*
X211353000Y-114623000D01*
X211357000Y-114594000D01*
X211362000Y-114566000D01*
X211369000Y-114538000D01*
X211377000Y-114510000D01*
X211387000Y-114483000D01*
X211398000Y-114456000D01*
X211410000Y-114430000D01*
X211424000Y-114405000D01*
X211439000Y-114380000D01*
X211455000Y-114357000D01*
X211473000Y-114334000D01*
X211491000Y-114312000D01*
X211511000Y-114291000D01*
X211532000Y-114271000D01*
X211554000Y-114253000D01*
X211577000Y-114235000D01*
X211600000Y-114219000D01*
X211625000Y-114204000D01*
X211650000Y-114190000D01*
X211676000Y-114178000D01*
X211703000Y-114167000D01*
X211730000Y-114157000D01*
X211758000Y-114149000D01*
X211786000Y-114142000D01*
X211814000Y-114137000D01*
X211843000Y-114133000D01*
X211871000Y-114131000D01*
X211900000Y-114130000D01*
X212500000Y-114130000D01*
X212529000Y-114131000D01*
G37*
%TD.AperFunction*%
%TD*%
D11*
%TO.P,U5,1,~{RESET}/PB5*%
%TO.N,Net-(J4-Pin_5)*%
X233950000Y-120500000D03*
%TO.P,U5,2,PB3*%
%TO.N,Net-(U1-VOUT)*%
X233950000Y-119230000D03*
%TO.P,U5,3,PB4*%
%TO.N,unconnected-(U5-PB4-Pad3)*%
X233950000Y-117960000D03*
%TO.P,U5,4,GND*%
%TO.N,GND*%
X233950000Y-116690000D03*
%TO.P,U5,5,PB0*%
%TO.N,Net-(J4-Pin_4)*%
X229000000Y-116690000D03*
%TO.P,U5,6,PB1*%
%TO.N,Net-(J4-Pin_1)*%
X229000000Y-117960000D03*
%TO.P,U5,7,PB2*%
%TO.N,Net-(J4-Pin_3)*%
X229000000Y-119230000D03*
%TO.P,U5,8,VCC*%
%TO.N,VCC*%
X229000000Y-120500000D03*
%TD*%
D12*
%TO.P,U4,1,V_{DD}*%
%TO.N,VDD*%
X221300000Y-118300000D03*
%TO.P,U4,2,V_{DD}*%
X220800000Y-118300000D03*
%TO.P,U4,3,V_{BAT}*%
%TO.N,Net-(J1-Pin_1)*%
X220300000Y-118300000D03*
%TO.P,U4,4,V_{BAT}*%
X219800000Y-118300000D03*
%TO.P,U4,5,STAT*%
%TO.N,Net-(U4-STAT)*%
X219800000Y-121200000D03*
%TO.P,U4,6,V_{SS}*%
%TO.N,GND*%
X220300000Y-121200000D03*
%TO.P,U4,7,NC*%
%TO.N,unconnected-(U4-NC-Pad7)*%
X220800000Y-121200000D03*
%TO.P,U4,8,PROG*%
%TO.N,Net-(U4-PROG)*%
X221300000Y-121200000D03*
D13*
%TO.P,U4,9*%
%TO.N,N/C*%
X220550000Y-119750000D03*
%TD*%
D14*
%TO.P,U1,1,RG1*%
%TO.N,Net-(U1-RG1)*%
X238850000Y-120150000D03*
%TO.P,U1,2,VIN-*%
%TO.N,Net-(J2-Pin_1)*%
X238850000Y-119650000D03*
%TO.P,U1,3,VIN+*%
%TO.N,Net-(J2-Pin_2)*%
X238850000Y-119150000D03*
%TO.P,U1,4,V-*%
%TO.N,GND*%
X238850000Y-118650000D03*
%TO.P,U1,5,REF*%
X236050000Y-118650000D03*
%TO.P,U1,6,VOUT*%
%TO.N,Net-(U1-VOUT)*%
X236050000Y-119150000D03*
%TO.P,U1,7,V+*%
%TO.N,VCC*%
X236050000Y-119650000D03*
%TO.P,U1,8,RG2*%
%TO.N,Net-(U1-RG2)*%
X236050000Y-120150000D03*
D15*
%TO.P,U1,9*%
%TO.N,N/C*%
X237450000Y-119400000D03*
%TD*%
D16*
%TO.P,SW1,1,A*%
%TO.N,Net-(J1-Pin_1)*%
X211000000Y-128500000D03*
%TO.P,SW1,2,B*%
%TO.N,VCC*%
X211000000Y-125100000D03*
%TD*%
D17*
%TO.P,R7,1*%
%TO.N,Net-(D1-K)*%
X225000000Y-121500000D03*
%TO.P,R7,2*%
%TO.N,Net-(U4-STAT)*%
X223175000Y-121500000D03*
%TD*%
%TO.P,R4,1*%
%TO.N,Net-(U1-RG1)*%
X238450000Y-122500000D03*
%TO.P,R4,2*%
%TO.N,Net-(U1-RG2)*%
X236625000Y-122500000D03*
%TD*%
%TO.P,R3,1*%
%TO.N,Net-(U4-PROG)*%
X220000000Y-123500000D03*
%TO.P,R3,2*%
%TO.N,GND*%
X218175000Y-123500000D03*
%TD*%
D18*
%TO.P,R2,1*%
%TO.N,Net-(J3-CC1)*%
X220387500Y-116530000D03*
%TO.P,R2,2*%
%TO.N,GND*%
X222212500Y-116530000D03*
%TD*%
%TO.P,R1,1*%
%TO.N,Net-(J4-Pin_4)*%
X220387500Y-113580000D03*
%TO.P,R1,2*%
%TO.N,GND*%
X222212500Y-113580000D03*
%TD*%
D19*
%TO.P,Q1,1,G*%
%TO.N,Net-(J4-Pin_4)*%
X226600000Y-109000000D03*
%TO.P,Q1,2,S*%
%TO.N,GND*%
X224700000Y-109000000D03*
%TO.P,Q1,3,D*%
%TO.N,Net-(D2-A)*%
X225650000Y-110875000D03*
%TD*%
D20*
%TO.P,J5,1,Pin_1*%
%TO.N,Net-(D2-A)*%
X221000000Y-109500000D03*
D21*
%TO.P,J5,2,Pin_2*%
%TO.N,VCC*%
X218460000Y-109500000D03*
%TD*%
D20*
%TO.P,J4,1,Pin_1*%
%TO.N,Net-(J4-Pin_1)*%
X231960000Y-113500000D03*
D21*
%TO.P,J4,2,Pin_2*%
%TO.N,VCC*%
X231960000Y-110960000D03*
%TO.P,J4,3,Pin_3*%
%TO.N,Net-(J4-Pin_3)*%
X234500000Y-113500000D03*
%TO.P,J4,4,Pin_4*%
%TO.N,Net-(J4-Pin_4)*%
X234500000Y-110960000D03*
%TO.P,J4,5,Pin_5*%
%TO.N,Net-(J4-Pin_5)*%
X237040000Y-113500000D03*
%TO.P,J4,6,Pin_6*%
%TO.N,GND*%
X237040000Y-110960000D03*
%TD*%
D22*
%TO.P,J3,S4,SHIELD*%
%TO.N,unconnected-(J3-SHIELD-PadS1)_1*%
X212200000Y-123320000D03*
%TO.P,J3,S3,SHIELD*%
%TO.N,unconnected-(J3-SHIELD-PadS1)_3*%
X212200000Y-114680000D03*
%TO.P,J3,S2,SHIELD*%
%TO.N,unconnected-(J3-SHIELD-PadS1)_2*%
X216000000Y-123320000D03*
%TO.P,J3,S1,SHIELD*%
%TO.N,unconnected-(J3-SHIELD-PadS1)*%
X216000000Y-114680000D03*
D23*
%TO.P,J3,B5,CC2*%
%TO.N,Net-(J3-CC1)*%
X216080000Y-119500000D03*
%TO.P,J3,A5,CC1*%
X216080000Y-118500000D03*
D24*
%TO.P,J3,A9,VBUS*%
%TO.N,VDD*%
X216080000Y-120520000D03*
%TO.P,J3,B9,VBUS*%
X216080000Y-117480000D03*
D25*
%TO.P,J3,A12,GND*%
%TO.N,GND*%
X216080000Y-121750000D03*
%TO.P,J3,B12,GND*%
X216080000Y-116250000D03*
%TD*%
D20*
%TO.P,J2,1,Pin_1*%
%TO.N,Net-(J2-Pin_1)*%
X241450000Y-120500000D03*
D21*
%TO.P,J2,2,Pin_2*%
%TO.N,Net-(J2-Pin_2)*%
X241450000Y-117960000D03*
%TD*%
D20*
%TO.P,J1,1,Pin_1*%
%TO.N,Net-(J1-Pin_1)*%
X212000000Y-109500000D03*
D21*
%TO.P,J1,2,Pin_2*%
%TO.N,GND*%
X214540000Y-109500000D03*
%TD*%
D26*
%TO.P,D2,1,K*%
%TO.N,VCC*%
X228500000Y-112937500D03*
%TO.P,D2,2,A*%
%TO.N,Net-(D2-A)*%
X228500000Y-111062500D03*
%TD*%
D27*
%TO.P,D1,1,K*%
%TO.N,Net-(D1-K)*%
X224937500Y-118500000D03*
%TO.P,D1,2,A*%
%TO.N,VDD*%
X223062500Y-118500000D03*
%TD*%
D28*
%TO.P,C7,1*%
%TO.N,GND*%
X224600000Y-113000000D03*
%TO.P,C7,2*%
%TO.N,VCC*%
X226500000Y-113000000D03*
%TD*%
D29*
%TO.P,C5,1*%
%TO.N,VDD*%
X222000000Y-123600000D03*
%TO.P,C5,2*%
%TO.N,GND*%
X222000000Y-125500000D03*
%TD*%
D28*
%TO.P,C4,1*%
%TO.N,Net-(J1-Pin_1)*%
X212600000Y-112500000D03*
%TO.P,C4,2*%
%TO.N,GND*%
X214500000Y-112500000D03*
%TD*%
D29*
%TO.P,C3,1*%
%TO.N,VCC*%
X234450000Y-122500000D03*
%TO.P,C3,2*%
%TO.N,GND*%
X234450000Y-124400000D03*
%TD*%
D30*
%TO.N,GND*%
X217500000Y-125000000D03*
%TO.N,Net-(J1-Pin_1)*%
X210421700Y-126625000D03*
%TO.N,GND*%
X233270200Y-123954200D03*
X215482200Y-113216200D03*
X221136200Y-126363800D03*
X217139800Y-121441000D03*
X217156400Y-116474700D03*
X225473900Y-108635900D03*
X223725600Y-112125600D03*
X223194900Y-116949500D03*
X238850000Y-118051700D03*
X220300000Y-122076900D03*
X235330800Y-117150000D03*
%TD*%
D31*
%TO.N,GND*%
X235330800Y-117150000D02*
X235330800Y-117930800D01*
X235330800Y-117930800D02*
X236050000Y-118650000D01*
X218175000Y-123500000D02*
X218175000Y-124325000D01*
X218175000Y-124325000D02*
X217500000Y-125000000D01*
D32*
%TO.N,Net-(J1-Pin_1)*%
X211000000Y-128500000D02*
X211000000Y-127798300D01*
X211000000Y-127798300D02*
X210421700Y-127220000D01*
%TO.N,VCC*%
X222585200Y-126942700D02*
X221527900Y-128000000D01*
X221527900Y-128000000D02*
X213900000Y-128000000D01*
X213900000Y-128000000D02*
X211000000Y-125100000D01*
D31*
%TO.N,VDD*%
X216080000Y-117480000D02*
X213020000Y-117480000D01*
X213020000Y-117480000D02*
X212000000Y-118500000D01*
X212520000Y-120520000D02*
X216080000Y-120520000D01*
X212000000Y-118500000D02*
X212000000Y-120000000D01*
X212000000Y-120000000D02*
X212520000Y-120520000D01*
%TO.N,Net-(U1-VOUT)*%
X234030000Y-119150000D02*
X233950000Y-119230000D01*
X236050000Y-119150000D02*
X234030000Y-119150000D01*
%TO.N,Net-(J4-Pin_3)*%
X234500000Y-113500000D02*
X234500000Y-114601700D01*
X229327300Y-119230000D02*
X229000000Y-119230000D01*
X233955600Y-114601700D02*
X229327300Y-119230000D01*
X234500000Y-114601700D02*
X233955600Y-114601700D01*
%TO.N,Net-(J4-Pin_4)*%
X231201000Y-108625000D02*
X226600000Y-108625000D01*
X233398300Y-110822300D02*
X231201000Y-108625000D01*
X233398300Y-110960000D02*
X233398300Y-110822300D01*
X234500000Y-110960000D02*
X233949200Y-110960000D01*
X233949200Y-110960000D02*
X233398300Y-110960000D01*
X221384400Y-114576900D02*
X220387500Y-113580000D01*
X229000000Y-114576900D02*
X221384400Y-114576900D01*
X229000000Y-114352800D02*
X229000000Y-114576900D01*
X231219000Y-112133800D02*
X229000000Y-114352800D01*
X232775400Y-112133800D02*
X231219000Y-112133800D01*
X233949200Y-110960000D02*
X232775400Y-112133800D01*
X229000000Y-114576900D02*
X229000000Y-116690000D01*
%TO.N,Net-(D2-A)*%
X226212500Y-111062500D02*
X225650000Y-110500000D01*
X228500000Y-111062500D02*
X226212500Y-111062500D01*
X223101700Y-110500000D02*
X225650000Y-110500000D01*
X222101700Y-109500000D02*
X223101700Y-110500000D01*
X221000000Y-109500000D02*
X222101700Y-109500000D01*
%TO.N,Net-(U4-STAT)*%
X219177100Y-121822900D02*
X219800000Y-121200000D01*
X219177100Y-124102300D02*
X219177100Y-121822900D01*
X219558500Y-124483700D02*
X219177100Y-124102300D01*
X222627500Y-124483700D02*
X219558500Y-124483700D01*
X223175000Y-123936200D02*
X222627500Y-124483700D01*
X223175000Y-121500000D02*
X223175000Y-123936200D01*
%TO.N,Net-(U4-PROG)*%
X221300000Y-122200000D02*
X220000000Y-123500000D01*
X221300000Y-121200000D02*
X221300000Y-122200000D01*
%TO.N,VCC*%
X231960000Y-110960000D02*
X230858300Y-110960000D01*
X228880800Y-112937500D02*
X230858300Y-110960000D01*
X228500000Y-112937500D02*
X228880800Y-112937500D01*
X218460000Y-109500000D02*
X219561700Y-109500000D01*
X228437500Y-113000000D02*
X228500000Y-112937500D01*
X226500000Y-113000000D02*
X228437500Y-113000000D01*
X235569500Y-119650000D02*
X236050000Y-119650000D01*
X235230900Y-119988600D02*
X235569500Y-119650000D01*
X235230900Y-121719100D02*
X235230900Y-119988600D01*
X234450000Y-122500000D02*
X235230900Y-121719100D01*
X219561700Y-110117900D02*
X219561700Y-109500000D01*
X220840400Y-111396600D02*
X219561700Y-110117900D01*
X224896600Y-111396600D02*
X220840400Y-111396600D01*
X226500000Y-113000000D02*
X224896600Y-111396600D01*
X228341300Y-120500000D02*
X229000000Y-120500000D01*
X222769900Y-114928600D02*
X228341300Y-120500000D01*
X220306300Y-114928600D02*
X222769900Y-114928600D01*
X219613500Y-114235800D02*
X220306300Y-114928600D01*
X219613500Y-112623500D02*
X219613500Y-114235800D01*
X220840400Y-111396600D02*
X219613500Y-112623500D01*
D32*
X229000000Y-120527900D02*
X222585200Y-126942700D01*
D31*
X229000000Y-120500000D02*
X229000000Y-120527900D01*
D32*
X230972100Y-122500000D02*
X234450000Y-122500000D01*
X229000000Y-120527900D02*
X230972100Y-122500000D01*
D31*
%TO.N,Net-(J4-Pin_1)*%
X229323700Y-117960000D02*
X229000000Y-117960000D01*
X231960000Y-115323700D02*
X229323700Y-117960000D01*
X231960000Y-113500000D02*
X231960000Y-115323700D01*
%TO.N,Net-(J4-Pin_5)*%
X235938300Y-113728300D02*
X235938300Y-113500000D01*
X234337500Y-115329100D02*
X235938300Y-113728300D01*
X233747200Y-115329100D02*
X234337500Y-115329100D01*
X232126900Y-116949400D02*
X233747200Y-115329100D01*
X232126900Y-119008100D02*
X232126900Y-116949400D01*
X233618800Y-120500000D02*
X232126900Y-119008100D01*
X233950000Y-120500000D02*
X233618800Y-120500000D01*
X237040000Y-113500000D02*
X235938300Y-113500000D01*
%TO.N,Net-(J2-Pin_2)*%
X239296000Y-119150000D02*
X238850000Y-119150000D01*
X240348300Y-118097700D02*
X239296000Y-119150000D01*
X240348300Y-117960000D02*
X240348300Y-118097700D01*
X241450000Y-117960000D02*
X240348300Y-117960000D01*
%TO.N,Net-(J2-Pin_1)*%
X239498300Y-119650000D02*
X238850000Y-119650000D01*
X240348300Y-120500000D02*
X239498300Y-119650000D01*
X241450000Y-120500000D02*
X240348300Y-120500000D01*
%TO.N,Net-(D1-K)*%
X225000000Y-118562500D02*
X225000000Y-121500000D01*
X224937500Y-118500000D02*
X225000000Y-118562500D01*
%TO.N,VDD*%
X222000000Y-118500000D02*
X222000000Y-123600000D01*
X223062500Y-118500000D02*
X222000000Y-118500000D01*
X221500000Y-118500000D02*
X221300000Y-118300000D01*
X222000000Y-118500000D02*
X221500000Y-118500000D01*
X220800000Y-118300000D02*
X221300000Y-118300000D01*
X216505900Y-120520000D02*
X216931700Y-120520000D01*
X216931700Y-120322100D02*
X216931700Y-120520000D01*
X219663600Y-117590200D02*
X216931700Y-120322100D01*
X220435000Y-117590200D02*
X219663600Y-117590200D01*
X220800000Y-117955200D02*
X220435000Y-117590200D01*
X220800000Y-118300000D02*
X220800000Y-117955200D01*
X216505900Y-120520000D02*
X216080000Y-120520000D01*
%TO.N,Net-(J1-Pin_1)*%
X212000000Y-111900000D02*
X212600000Y-112500000D01*
X212000000Y-109500000D02*
X212000000Y-111900000D01*
X210421700Y-127220000D02*
X210421700Y-126625000D01*
X219800000Y-118300000D02*
X220300000Y-118300000D01*
X219450200Y-118649800D02*
X219800000Y-118300000D01*
X219450200Y-119933000D02*
X219450200Y-118649800D01*
X216972100Y-122411100D02*
X219450200Y-119933000D01*
X211776300Y-122411100D02*
X216972100Y-122411100D01*
X209849600Y-124337800D02*
X211776300Y-122411100D01*
X209849600Y-126052900D02*
X209849600Y-124337800D01*
X210421700Y-126625000D02*
X209849600Y-126052900D01*
%TO.N,Net-(U1-RG1)*%
X238850000Y-122100000D02*
X238850000Y-120150000D01*
X238450000Y-122500000D02*
X238850000Y-122100000D01*
%TO.N,Net-(U1-RG2)*%
X236050000Y-121925000D02*
X236050000Y-120150000D01*
X236625000Y-122500000D02*
X236050000Y-121925000D01*
%TO.N,Net-(J3-CC1)*%
X216931700Y-119500000D02*
X216931700Y-118500000D01*
X216080000Y-119500000D02*
X216931700Y-119500000D01*
X216080000Y-118500000D02*
X216843400Y-118500000D01*
X216930200Y-118500000D02*
X216931700Y-118500000D01*
X216843400Y-118500000D02*
X216930200Y-118500000D01*
X218900200Y-116530000D02*
X220387500Y-116530000D01*
X216930200Y-118500000D02*
X218900200Y-116530000D01*
%TO.N,GND*%
X234004200Y-123954200D02*
X234450000Y-124400000D01*
X233270200Y-123954200D02*
X234004200Y-123954200D01*
X215216200Y-113216200D02*
X214500000Y-112500000D01*
X215482200Y-113216200D02*
X215216200Y-113216200D01*
X224020000Y-113580000D02*
X224600000Y-113000000D01*
X222212500Y-113580000D02*
X224020000Y-113580000D01*
X216080000Y-121750000D02*
X216931700Y-121750000D01*
X216931700Y-121649100D02*
X216931700Y-121750000D01*
X217139800Y-121441000D02*
X216931700Y-121649100D01*
X216080000Y-116250000D02*
X216931700Y-116250000D01*
X216931700Y-116250000D02*
X217156400Y-116474700D01*
X224710900Y-108635900D02*
X224700000Y-108625000D01*
X225473900Y-108635900D02*
X224710900Y-108635900D01*
X224600000Y-113000000D02*
X223725600Y-112125600D01*
X222632000Y-116949500D02*
X222212500Y-116530000D01*
X223194900Y-116949500D02*
X222632000Y-116949500D01*
X217995000Y-123320000D02*
X218175000Y-123500000D01*
X238850000Y-118051700D02*
X238850000Y-118650000D01*
X222000000Y-125500000D02*
X221136200Y-126363800D01*
X234410000Y-117150000D02*
X233950000Y-116690000D01*
X235330800Y-117150000D02*
X234410000Y-117150000D01*
X220300000Y-121200000D02*
X220300000Y-122076900D01*
%TD*%
M02*
