%TF.GenerationSoftware,KiCad,Pcbnew,8.0.7*%
%TF.CreationDate,2025-01-08T21:55:33-07:00*%
%TF.ProjectId,Hat PCB,48617420-5043-4422-9e6b-696361645f70,rev?*%
%TF.SameCoordinates,Original*%
%TF.FileFunction,Copper,L2,Bot*%
%TF.FilePolarity,Positive*%
%FSLAX46Y46*%
G04 Gerber Fmt 4.6, Leading zero omitted, Abs format (unit mm)*
G04 Created by KiCad (PCBNEW 8.0.7) date 2025-01-08 21:55:33*
%MOMM*%
%LPD*%
G01*
G04 APERTURE LIST*
%TA.AperFunction,EtchedComponent*%
%ADD10C,0.010000*%
%TD*%
%TA.AperFunction,ComponentPad*%
%ADD11R,1.700000X1.700000*%
%TD*%
%TA.AperFunction,ComponentPad*%
%ADD12O,1.700000X1.700000*%
%TD*%
%TA.AperFunction,ComponentPad*%
%ADD13O,1.600000X0.800000*%
%TD*%
%TA.AperFunction,ViaPad*%
%ADD14C,0.600000*%
%TD*%
%TA.AperFunction,Conductor*%
%ADD15C,0.700000*%
%TD*%
%TA.AperFunction,Conductor*%
%ADD16C,0.200000*%
%TD*%
G04 APERTURE END LIST*
D10*
%TO.C,J3*%
X216329000Y-122771000D02*
X216357000Y-122773000D01*
X216386000Y-122777000D01*
X216414000Y-122782000D01*
X216442000Y-122789000D01*
X216470000Y-122797000D01*
X216497000Y-122807000D01*
X216524000Y-122818000D01*
X216550000Y-122830000D01*
X216575000Y-122844000D01*
X216600000Y-122859000D01*
X216623000Y-122875000D01*
X216646000Y-122893000D01*
X216668000Y-122911000D01*
X216689000Y-122931000D01*
X216709000Y-122952000D01*
X216727000Y-122974000D01*
X216745000Y-122997000D01*
X216761000Y-123020000D01*
X216776000Y-123045000D01*
X216790000Y-123070000D01*
X216802000Y-123096000D01*
X216813000Y-123123000D01*
X216823000Y-123150000D01*
X216831000Y-123178000D01*
X216838000Y-123206000D01*
X216843000Y-123234000D01*
X216847000Y-123263000D01*
X216849000Y-123291000D01*
X216850000Y-123320000D01*
X216849000Y-123349000D01*
X216847000Y-123377000D01*
X216843000Y-123406000D01*
X216838000Y-123434000D01*
X216831000Y-123462000D01*
X216823000Y-123490000D01*
X216813000Y-123517000D01*
X216802000Y-123544000D01*
X216790000Y-123570000D01*
X216776000Y-123595000D01*
X216761000Y-123620000D01*
X216745000Y-123643000D01*
X216727000Y-123666000D01*
X216709000Y-123688000D01*
X216689000Y-123709000D01*
X216668000Y-123729000D01*
X216646000Y-123747000D01*
X216623000Y-123765000D01*
X216600000Y-123781000D01*
X216575000Y-123796000D01*
X216550000Y-123810000D01*
X216524000Y-123822000D01*
X216497000Y-123833000D01*
X216470000Y-123843000D01*
X216442000Y-123851000D01*
X216414000Y-123858000D01*
X216386000Y-123863000D01*
X216357000Y-123867000D01*
X216329000Y-123869000D01*
X216300000Y-123870000D01*
X215700000Y-123870000D01*
X215671000Y-123869000D01*
X215643000Y-123867000D01*
X215614000Y-123863000D01*
X215586000Y-123858000D01*
X215558000Y-123851000D01*
X215530000Y-123843000D01*
X215503000Y-123833000D01*
X215476000Y-123822000D01*
X215450000Y-123810000D01*
X215425000Y-123796000D01*
X215400000Y-123781000D01*
X215377000Y-123765000D01*
X215354000Y-123747000D01*
X215332000Y-123729000D01*
X215311000Y-123709000D01*
X215291000Y-123688000D01*
X215273000Y-123666000D01*
X215255000Y-123643000D01*
X215239000Y-123620000D01*
X215224000Y-123595000D01*
X215210000Y-123570000D01*
X215198000Y-123544000D01*
X215187000Y-123517000D01*
X215177000Y-123490000D01*
X215169000Y-123462000D01*
X215162000Y-123434000D01*
X215157000Y-123406000D01*
X215153000Y-123377000D01*
X215151000Y-123349000D01*
X215150000Y-123320000D01*
X215151000Y-123291000D01*
X215153000Y-123263000D01*
X215157000Y-123234000D01*
X215162000Y-123206000D01*
X215169000Y-123178000D01*
X215177000Y-123150000D01*
X215187000Y-123123000D01*
X215198000Y-123096000D01*
X215210000Y-123070000D01*
X215224000Y-123045000D01*
X215239000Y-123020000D01*
X215255000Y-122997000D01*
X215273000Y-122974000D01*
X215291000Y-122952000D01*
X215311000Y-122931000D01*
X215332000Y-122911000D01*
X215354000Y-122893000D01*
X215377000Y-122875000D01*
X215400000Y-122859000D01*
X215425000Y-122844000D01*
X215450000Y-122830000D01*
X215476000Y-122818000D01*
X215503000Y-122807000D01*
X215530000Y-122797000D01*
X215558000Y-122789000D01*
X215586000Y-122782000D01*
X215614000Y-122777000D01*
X215643000Y-122773000D01*
X215671000Y-122771000D01*
X215700000Y-122770000D01*
X216300000Y-122770000D01*
X216329000Y-122771000D01*
%TA.AperFunction,EtchedComponent*%
G36*
X216329000Y-122771000D02*
G01*
X216357000Y-122773000D01*
X216386000Y-122777000D01*
X216414000Y-122782000D01*
X216442000Y-122789000D01*
X216470000Y-122797000D01*
X216497000Y-122807000D01*
X216524000Y-122818000D01*
X216550000Y-122830000D01*
X216575000Y-122844000D01*
X216600000Y-122859000D01*
X216623000Y-122875000D01*
X216646000Y-122893000D01*
X216668000Y-122911000D01*
X216689000Y-122931000D01*
X216709000Y-122952000D01*
X216727000Y-122974000D01*
X216745000Y-122997000D01*
X216761000Y-123020000D01*
X216776000Y-123045000D01*
X216790000Y-123070000D01*
X216802000Y-123096000D01*
X216813000Y-123123000D01*
X216823000Y-123150000D01*
X216831000Y-123178000D01*
X216838000Y-123206000D01*
X216843000Y-123234000D01*
X216847000Y-123263000D01*
X216849000Y-123291000D01*
X216850000Y-123320000D01*
X216849000Y-123349000D01*
X216847000Y-123377000D01*
X216843000Y-123406000D01*
X216838000Y-123434000D01*
X216831000Y-123462000D01*
X216823000Y-123490000D01*
X216813000Y-123517000D01*
X216802000Y-123544000D01*
X216790000Y-123570000D01*
X216776000Y-123595000D01*
X216761000Y-123620000D01*
X216745000Y-123643000D01*
X216727000Y-123666000D01*
X216709000Y-123688000D01*
X216689000Y-123709000D01*
X216668000Y-123729000D01*
X216646000Y-123747000D01*
X216623000Y-123765000D01*
X216600000Y-123781000D01*
X216575000Y-123796000D01*
X216550000Y-123810000D01*
X216524000Y-123822000D01*
X216497000Y-123833000D01*
X216470000Y-123843000D01*
X216442000Y-123851000D01*
X216414000Y-123858000D01*
X216386000Y-123863000D01*
X216357000Y-123867000D01*
X216329000Y-123869000D01*
X216300000Y-123870000D01*
X215700000Y-123870000D01*
X215671000Y-123869000D01*
X215643000Y-123867000D01*
X215614000Y-123863000D01*
X215586000Y-123858000D01*
X215558000Y-123851000D01*
X215530000Y-123843000D01*
X215503000Y-123833000D01*
X215476000Y-123822000D01*
X215450000Y-123810000D01*
X215425000Y-123796000D01*
X215400000Y-123781000D01*
X215377000Y-123765000D01*
X215354000Y-123747000D01*
X215332000Y-123729000D01*
X215311000Y-123709000D01*
X215291000Y-123688000D01*
X215273000Y-123666000D01*
X215255000Y-123643000D01*
X215239000Y-123620000D01*
X215224000Y-123595000D01*
X215210000Y-123570000D01*
X215198000Y-123544000D01*
X215187000Y-123517000D01*
X215177000Y-123490000D01*
X215169000Y-123462000D01*
X215162000Y-123434000D01*
X215157000Y-123406000D01*
X215153000Y-123377000D01*
X215151000Y-123349000D01*
X215150000Y-123320000D01*
X215151000Y-123291000D01*
X215153000Y-123263000D01*
X215157000Y-123234000D01*
X215162000Y-123206000D01*
X215169000Y-123178000D01*
X215177000Y-123150000D01*
X215187000Y-123123000D01*
X215198000Y-123096000D01*
X215210000Y-123070000D01*
X215224000Y-123045000D01*
X215239000Y-123020000D01*
X215255000Y-122997000D01*
X215273000Y-122974000D01*
X215291000Y-122952000D01*
X215311000Y-122931000D01*
X215332000Y-122911000D01*
X215354000Y-122893000D01*
X215377000Y-122875000D01*
X215400000Y-122859000D01*
X215425000Y-122844000D01*
X215450000Y-122830000D01*
X215476000Y-122818000D01*
X215503000Y-122807000D01*
X215530000Y-122797000D01*
X215558000Y-122789000D01*
X215586000Y-122782000D01*
X215614000Y-122777000D01*
X215643000Y-122773000D01*
X215671000Y-122771000D01*
X215700000Y-122770000D01*
X216300000Y-122770000D01*
X216329000Y-122771000D01*
G37*
%TD.AperFunction*%
X216329000Y-114131000D02*
X216357000Y-114133000D01*
X216386000Y-114137000D01*
X216414000Y-114142000D01*
X216442000Y-114149000D01*
X216470000Y-114157000D01*
X216497000Y-114167000D01*
X216524000Y-114178000D01*
X216550000Y-114190000D01*
X216575000Y-114204000D01*
X216600000Y-114219000D01*
X216623000Y-114235000D01*
X216646000Y-114253000D01*
X216668000Y-114271000D01*
X216689000Y-114291000D01*
X216709000Y-114312000D01*
X216727000Y-114334000D01*
X216745000Y-114357000D01*
X216761000Y-114380000D01*
X216776000Y-114405000D01*
X216790000Y-114430000D01*
X216802000Y-114456000D01*
X216813000Y-114483000D01*
X216823000Y-114510000D01*
X216831000Y-114538000D01*
X216838000Y-114566000D01*
X216843000Y-114594000D01*
X216847000Y-114623000D01*
X216849000Y-114651000D01*
X216850000Y-114680000D01*
X216849000Y-114709000D01*
X216847000Y-114737000D01*
X216843000Y-114766000D01*
X216838000Y-114794000D01*
X216831000Y-114822000D01*
X216823000Y-114850000D01*
X216813000Y-114877000D01*
X216802000Y-114904000D01*
X216790000Y-114930000D01*
X216776000Y-114955000D01*
X216761000Y-114980000D01*
X216745000Y-115003000D01*
X216727000Y-115026000D01*
X216709000Y-115048000D01*
X216689000Y-115069000D01*
X216668000Y-115089000D01*
X216646000Y-115107000D01*
X216623000Y-115125000D01*
X216600000Y-115141000D01*
X216575000Y-115156000D01*
X216550000Y-115170000D01*
X216524000Y-115182000D01*
X216497000Y-115193000D01*
X216470000Y-115203000D01*
X216442000Y-115211000D01*
X216414000Y-115218000D01*
X216386000Y-115223000D01*
X216357000Y-115227000D01*
X216329000Y-115229000D01*
X216300000Y-115230000D01*
X215700000Y-115230000D01*
X215671000Y-115229000D01*
X215643000Y-115227000D01*
X215614000Y-115223000D01*
X215586000Y-115218000D01*
X215558000Y-115211000D01*
X215530000Y-115203000D01*
X215503000Y-115193000D01*
X215476000Y-115182000D01*
X215450000Y-115170000D01*
X215425000Y-115156000D01*
X215400000Y-115141000D01*
X215377000Y-115125000D01*
X215354000Y-115107000D01*
X215332000Y-115089000D01*
X215311000Y-115069000D01*
X215291000Y-115048000D01*
X215273000Y-115026000D01*
X215255000Y-115003000D01*
X215239000Y-114980000D01*
X215224000Y-114955000D01*
X215210000Y-114930000D01*
X215198000Y-114904000D01*
X215187000Y-114877000D01*
X215177000Y-114850000D01*
X215169000Y-114822000D01*
X215162000Y-114794000D01*
X215157000Y-114766000D01*
X215153000Y-114737000D01*
X215151000Y-114709000D01*
X215150000Y-114680000D01*
X215151000Y-114651000D01*
X215153000Y-114623000D01*
X215157000Y-114594000D01*
X215162000Y-114566000D01*
X215169000Y-114538000D01*
X215177000Y-114510000D01*
X215187000Y-114483000D01*
X215198000Y-114456000D01*
X215210000Y-114430000D01*
X215224000Y-114405000D01*
X215239000Y-114380000D01*
X215255000Y-114357000D01*
X215273000Y-114334000D01*
X215291000Y-114312000D01*
X215311000Y-114291000D01*
X215332000Y-114271000D01*
X215354000Y-114253000D01*
X215377000Y-114235000D01*
X215400000Y-114219000D01*
X215425000Y-114204000D01*
X215450000Y-114190000D01*
X215476000Y-114178000D01*
X215503000Y-114167000D01*
X215530000Y-114157000D01*
X215558000Y-114149000D01*
X215586000Y-114142000D01*
X215614000Y-114137000D01*
X215643000Y-114133000D01*
X215671000Y-114131000D01*
X215700000Y-114130000D01*
X216300000Y-114130000D01*
X216329000Y-114131000D01*
%TA.AperFunction,EtchedComponent*%
G36*
X216329000Y-114131000D02*
G01*
X216357000Y-114133000D01*
X216386000Y-114137000D01*
X216414000Y-114142000D01*
X216442000Y-114149000D01*
X216470000Y-114157000D01*
X216497000Y-114167000D01*
X216524000Y-114178000D01*
X216550000Y-114190000D01*
X216575000Y-114204000D01*
X216600000Y-114219000D01*
X216623000Y-114235000D01*
X216646000Y-114253000D01*
X216668000Y-114271000D01*
X216689000Y-114291000D01*
X216709000Y-114312000D01*
X216727000Y-114334000D01*
X216745000Y-114357000D01*
X216761000Y-114380000D01*
X216776000Y-114405000D01*
X216790000Y-114430000D01*
X216802000Y-114456000D01*
X216813000Y-114483000D01*
X216823000Y-114510000D01*
X216831000Y-114538000D01*
X216838000Y-114566000D01*
X216843000Y-114594000D01*
X216847000Y-114623000D01*
X216849000Y-114651000D01*
X216850000Y-114680000D01*
X216849000Y-114709000D01*
X216847000Y-114737000D01*
X216843000Y-114766000D01*
X216838000Y-114794000D01*
X216831000Y-114822000D01*
X216823000Y-114850000D01*
X216813000Y-114877000D01*
X216802000Y-114904000D01*
X216790000Y-114930000D01*
X216776000Y-114955000D01*
X216761000Y-114980000D01*
X216745000Y-115003000D01*
X216727000Y-115026000D01*
X216709000Y-115048000D01*
X216689000Y-115069000D01*
X216668000Y-115089000D01*
X216646000Y-115107000D01*
X216623000Y-115125000D01*
X216600000Y-115141000D01*
X216575000Y-115156000D01*
X216550000Y-115170000D01*
X216524000Y-115182000D01*
X216497000Y-115193000D01*
X216470000Y-115203000D01*
X216442000Y-115211000D01*
X216414000Y-115218000D01*
X216386000Y-115223000D01*
X216357000Y-115227000D01*
X216329000Y-115229000D01*
X216300000Y-115230000D01*
X215700000Y-115230000D01*
X215671000Y-115229000D01*
X215643000Y-115227000D01*
X215614000Y-115223000D01*
X215586000Y-115218000D01*
X215558000Y-115211000D01*
X215530000Y-115203000D01*
X215503000Y-115193000D01*
X215476000Y-115182000D01*
X215450000Y-115170000D01*
X215425000Y-115156000D01*
X215400000Y-115141000D01*
X215377000Y-115125000D01*
X215354000Y-115107000D01*
X215332000Y-115089000D01*
X215311000Y-115069000D01*
X215291000Y-115048000D01*
X215273000Y-115026000D01*
X215255000Y-115003000D01*
X215239000Y-114980000D01*
X215224000Y-114955000D01*
X215210000Y-114930000D01*
X215198000Y-114904000D01*
X215187000Y-114877000D01*
X215177000Y-114850000D01*
X215169000Y-114822000D01*
X215162000Y-114794000D01*
X215157000Y-114766000D01*
X215153000Y-114737000D01*
X215151000Y-114709000D01*
X215150000Y-114680000D01*
X215151000Y-114651000D01*
X215153000Y-114623000D01*
X215157000Y-114594000D01*
X215162000Y-114566000D01*
X215169000Y-114538000D01*
X215177000Y-114510000D01*
X215187000Y-114483000D01*
X215198000Y-114456000D01*
X215210000Y-114430000D01*
X215224000Y-114405000D01*
X215239000Y-114380000D01*
X215255000Y-114357000D01*
X215273000Y-114334000D01*
X215291000Y-114312000D01*
X215311000Y-114291000D01*
X215332000Y-114271000D01*
X215354000Y-114253000D01*
X215377000Y-114235000D01*
X215400000Y-114219000D01*
X215425000Y-114204000D01*
X215450000Y-114190000D01*
X215476000Y-114178000D01*
X215503000Y-114167000D01*
X215530000Y-114157000D01*
X215558000Y-114149000D01*
X215586000Y-114142000D01*
X215614000Y-114137000D01*
X215643000Y-114133000D01*
X215671000Y-114131000D01*
X215700000Y-114130000D01*
X216300000Y-114130000D01*
X216329000Y-114131000D01*
G37*
%TD.AperFunction*%
X212529000Y-122771000D02*
X212557000Y-122773000D01*
X212586000Y-122777000D01*
X212614000Y-122782000D01*
X212642000Y-122789000D01*
X212670000Y-122797000D01*
X212697000Y-122807000D01*
X212724000Y-122818000D01*
X212750000Y-122830000D01*
X212775000Y-122844000D01*
X212800000Y-122859000D01*
X212823000Y-122875000D01*
X212846000Y-122893000D01*
X212868000Y-122911000D01*
X212889000Y-122931000D01*
X212909000Y-122952000D01*
X212927000Y-122974000D01*
X212945000Y-122997000D01*
X212961000Y-123020000D01*
X212976000Y-123045000D01*
X212990000Y-123070000D01*
X213002000Y-123096000D01*
X213013000Y-123123000D01*
X213023000Y-123150000D01*
X213031000Y-123178000D01*
X213038000Y-123206000D01*
X213043000Y-123234000D01*
X213047000Y-123263000D01*
X213049000Y-123291000D01*
X213050000Y-123320000D01*
X213049000Y-123349000D01*
X213047000Y-123377000D01*
X213043000Y-123406000D01*
X213038000Y-123434000D01*
X213031000Y-123462000D01*
X213023000Y-123490000D01*
X213013000Y-123517000D01*
X213002000Y-123544000D01*
X212990000Y-123570000D01*
X212976000Y-123595000D01*
X212961000Y-123620000D01*
X212945000Y-123643000D01*
X212927000Y-123666000D01*
X212909000Y-123688000D01*
X212889000Y-123709000D01*
X212868000Y-123729000D01*
X212846000Y-123747000D01*
X212823000Y-123765000D01*
X212800000Y-123781000D01*
X212775000Y-123796000D01*
X212750000Y-123810000D01*
X212724000Y-123822000D01*
X212697000Y-123833000D01*
X212670000Y-123843000D01*
X212642000Y-123851000D01*
X212614000Y-123858000D01*
X212586000Y-123863000D01*
X212557000Y-123867000D01*
X212529000Y-123869000D01*
X212500000Y-123870000D01*
X211900000Y-123870000D01*
X211871000Y-123869000D01*
X211843000Y-123867000D01*
X211814000Y-123863000D01*
X211786000Y-123858000D01*
X211758000Y-123851000D01*
X211730000Y-123843000D01*
X211703000Y-123833000D01*
X211676000Y-123822000D01*
X211650000Y-123810000D01*
X211625000Y-123796000D01*
X211600000Y-123781000D01*
X211577000Y-123765000D01*
X211554000Y-123747000D01*
X211532000Y-123729000D01*
X211511000Y-123709000D01*
X211491000Y-123688000D01*
X211473000Y-123666000D01*
X211455000Y-123643000D01*
X211439000Y-123620000D01*
X211424000Y-123595000D01*
X211410000Y-123570000D01*
X211398000Y-123544000D01*
X211387000Y-123517000D01*
X211377000Y-123490000D01*
X211369000Y-123462000D01*
X211362000Y-123434000D01*
X211357000Y-123406000D01*
X211353000Y-123377000D01*
X211351000Y-123349000D01*
X211350000Y-123320000D01*
X211351000Y-123291000D01*
X211353000Y-123263000D01*
X211357000Y-123234000D01*
X211362000Y-123206000D01*
X211369000Y-123178000D01*
X211377000Y-123150000D01*
X211387000Y-123123000D01*
X211398000Y-123096000D01*
X211410000Y-123070000D01*
X211424000Y-123045000D01*
X211439000Y-123020000D01*
X211455000Y-122997000D01*
X211473000Y-122974000D01*
X211491000Y-122952000D01*
X211511000Y-122931000D01*
X211532000Y-122911000D01*
X211554000Y-122893000D01*
X211577000Y-122875000D01*
X211600000Y-122859000D01*
X211625000Y-122844000D01*
X211650000Y-122830000D01*
X211676000Y-122818000D01*
X211703000Y-122807000D01*
X211730000Y-122797000D01*
X211758000Y-122789000D01*
X211786000Y-122782000D01*
X211814000Y-122777000D01*
X211843000Y-122773000D01*
X211871000Y-122771000D01*
X211900000Y-122770000D01*
X212500000Y-122770000D01*
X212529000Y-122771000D01*
%TA.AperFunction,EtchedComponent*%
G36*
X212529000Y-122771000D02*
G01*
X212557000Y-122773000D01*
X212586000Y-122777000D01*
X212614000Y-122782000D01*
X212642000Y-122789000D01*
X212670000Y-122797000D01*
X212697000Y-122807000D01*
X212724000Y-122818000D01*
X212750000Y-122830000D01*
X212775000Y-122844000D01*
X212800000Y-122859000D01*
X212823000Y-122875000D01*
X212846000Y-122893000D01*
X212868000Y-122911000D01*
X212889000Y-122931000D01*
X212909000Y-122952000D01*
X212927000Y-122974000D01*
X212945000Y-122997000D01*
X212961000Y-123020000D01*
X212976000Y-123045000D01*
X212990000Y-123070000D01*
X213002000Y-123096000D01*
X213013000Y-123123000D01*
X213023000Y-123150000D01*
X213031000Y-123178000D01*
X213038000Y-123206000D01*
X213043000Y-123234000D01*
X213047000Y-123263000D01*
X213049000Y-123291000D01*
X213050000Y-123320000D01*
X213049000Y-123349000D01*
X213047000Y-123377000D01*
X213043000Y-123406000D01*
X213038000Y-123434000D01*
X213031000Y-123462000D01*
X213023000Y-123490000D01*
X213013000Y-123517000D01*
X213002000Y-123544000D01*
X212990000Y-123570000D01*
X212976000Y-123595000D01*
X212961000Y-123620000D01*
X212945000Y-123643000D01*
X212927000Y-123666000D01*
X212909000Y-123688000D01*
X212889000Y-123709000D01*
X212868000Y-123729000D01*
X212846000Y-123747000D01*
X212823000Y-123765000D01*
X212800000Y-123781000D01*
X212775000Y-123796000D01*
X212750000Y-123810000D01*
X212724000Y-123822000D01*
X212697000Y-123833000D01*
X212670000Y-123843000D01*
X212642000Y-123851000D01*
X212614000Y-123858000D01*
X212586000Y-123863000D01*
X212557000Y-123867000D01*
X212529000Y-123869000D01*
X212500000Y-123870000D01*
X211900000Y-123870000D01*
X211871000Y-123869000D01*
X211843000Y-123867000D01*
X211814000Y-123863000D01*
X211786000Y-123858000D01*
X211758000Y-123851000D01*
X211730000Y-123843000D01*
X211703000Y-123833000D01*
X211676000Y-123822000D01*
X211650000Y-123810000D01*
X211625000Y-123796000D01*
X211600000Y-123781000D01*
X211577000Y-123765000D01*
X211554000Y-123747000D01*
X211532000Y-123729000D01*
X211511000Y-123709000D01*
X211491000Y-123688000D01*
X211473000Y-123666000D01*
X211455000Y-123643000D01*
X211439000Y-123620000D01*
X211424000Y-123595000D01*
X211410000Y-123570000D01*
X211398000Y-123544000D01*
X211387000Y-123517000D01*
X211377000Y-123490000D01*
X211369000Y-123462000D01*
X211362000Y-123434000D01*
X211357000Y-123406000D01*
X211353000Y-123377000D01*
X211351000Y-123349000D01*
X211350000Y-123320000D01*
X211351000Y-123291000D01*
X211353000Y-123263000D01*
X211357000Y-123234000D01*
X211362000Y-123206000D01*
X211369000Y-123178000D01*
X211377000Y-123150000D01*
X211387000Y-123123000D01*
X211398000Y-123096000D01*
X211410000Y-123070000D01*
X211424000Y-123045000D01*
X211439000Y-123020000D01*
X211455000Y-122997000D01*
X211473000Y-122974000D01*
X211491000Y-122952000D01*
X211511000Y-122931000D01*
X211532000Y-122911000D01*
X211554000Y-122893000D01*
X211577000Y-122875000D01*
X211600000Y-122859000D01*
X211625000Y-122844000D01*
X211650000Y-122830000D01*
X211676000Y-122818000D01*
X211703000Y-122807000D01*
X211730000Y-122797000D01*
X211758000Y-122789000D01*
X211786000Y-122782000D01*
X211814000Y-122777000D01*
X211843000Y-122773000D01*
X211871000Y-122771000D01*
X211900000Y-122770000D01*
X212500000Y-122770000D01*
X212529000Y-122771000D01*
G37*
%TD.AperFunction*%
X212529000Y-114131000D02*
X212557000Y-114133000D01*
X212586000Y-114137000D01*
X212614000Y-114142000D01*
X212642000Y-114149000D01*
X212670000Y-114157000D01*
X212697000Y-114167000D01*
X212724000Y-114178000D01*
X212750000Y-114190000D01*
X212775000Y-114204000D01*
X212800000Y-114219000D01*
X212823000Y-114235000D01*
X212846000Y-114253000D01*
X212868000Y-114271000D01*
X212889000Y-114291000D01*
X212909000Y-114312000D01*
X212927000Y-114334000D01*
X212945000Y-114357000D01*
X212961000Y-114380000D01*
X212976000Y-114405000D01*
X212990000Y-114430000D01*
X213002000Y-114456000D01*
X213013000Y-114483000D01*
X213023000Y-114510000D01*
X213031000Y-114538000D01*
X213038000Y-114566000D01*
X213043000Y-114594000D01*
X213047000Y-114623000D01*
X213049000Y-114651000D01*
X213050000Y-114680000D01*
X213049000Y-114709000D01*
X213047000Y-114737000D01*
X213043000Y-114766000D01*
X213038000Y-114794000D01*
X213031000Y-114822000D01*
X213023000Y-114850000D01*
X213013000Y-114877000D01*
X213002000Y-114904000D01*
X212990000Y-114930000D01*
X212976000Y-114955000D01*
X212961000Y-114980000D01*
X212945000Y-115003000D01*
X212927000Y-115026000D01*
X212909000Y-115048000D01*
X212889000Y-115069000D01*
X212868000Y-115089000D01*
X212846000Y-115107000D01*
X212823000Y-115125000D01*
X212800000Y-115141000D01*
X212775000Y-115156000D01*
X212750000Y-115170000D01*
X212724000Y-115182000D01*
X212697000Y-115193000D01*
X212670000Y-115203000D01*
X212642000Y-115211000D01*
X212614000Y-115218000D01*
X212586000Y-115223000D01*
X212557000Y-115227000D01*
X212529000Y-115229000D01*
X212500000Y-115230000D01*
X211900000Y-115230000D01*
X211871000Y-115229000D01*
X211843000Y-115227000D01*
X211814000Y-115223000D01*
X211786000Y-115218000D01*
X211758000Y-115211000D01*
X211730000Y-115203000D01*
X211703000Y-115193000D01*
X211676000Y-115182000D01*
X211650000Y-115170000D01*
X211625000Y-115156000D01*
X211600000Y-115141000D01*
X211577000Y-115125000D01*
X211554000Y-115107000D01*
X211532000Y-115089000D01*
X211511000Y-115069000D01*
X211491000Y-115048000D01*
X211473000Y-115026000D01*
X211455000Y-115003000D01*
X211439000Y-114980000D01*
X211424000Y-114955000D01*
X211410000Y-114930000D01*
X211398000Y-114904000D01*
X211387000Y-114877000D01*
X211377000Y-114850000D01*
X211369000Y-114822000D01*
X211362000Y-114794000D01*
X211357000Y-114766000D01*
X211353000Y-114737000D01*
X211351000Y-114709000D01*
X211350000Y-114680000D01*
X211351000Y-114651000D01*
X211353000Y-114623000D01*
X211357000Y-114594000D01*
X211362000Y-114566000D01*
X211369000Y-114538000D01*
X211377000Y-114510000D01*
X211387000Y-114483000D01*
X211398000Y-114456000D01*
X211410000Y-114430000D01*
X211424000Y-114405000D01*
X211439000Y-114380000D01*
X211455000Y-114357000D01*
X211473000Y-114334000D01*
X211491000Y-114312000D01*
X211511000Y-114291000D01*
X211532000Y-114271000D01*
X211554000Y-114253000D01*
X211577000Y-114235000D01*
X211600000Y-114219000D01*
X211625000Y-114204000D01*
X211650000Y-114190000D01*
X211676000Y-114178000D01*
X211703000Y-114167000D01*
X211730000Y-114157000D01*
X211758000Y-114149000D01*
X211786000Y-114142000D01*
X211814000Y-114137000D01*
X211843000Y-114133000D01*
X211871000Y-114131000D01*
X211900000Y-114130000D01*
X212500000Y-114130000D01*
X212529000Y-114131000D01*
%TA.AperFunction,EtchedComponent*%
G36*
X212529000Y-114131000D02*
G01*
X212557000Y-114133000D01*
X212586000Y-114137000D01*
X212614000Y-114142000D01*
X212642000Y-114149000D01*
X212670000Y-114157000D01*
X212697000Y-114167000D01*
X212724000Y-114178000D01*
X212750000Y-114190000D01*
X212775000Y-114204000D01*
X212800000Y-114219000D01*
X212823000Y-114235000D01*
X212846000Y-114253000D01*
X212868000Y-114271000D01*
X212889000Y-114291000D01*
X212909000Y-114312000D01*
X212927000Y-114334000D01*
X212945000Y-114357000D01*
X212961000Y-114380000D01*
X212976000Y-114405000D01*
X212990000Y-114430000D01*
X213002000Y-114456000D01*
X213013000Y-114483000D01*
X213023000Y-114510000D01*
X213031000Y-114538000D01*
X213038000Y-114566000D01*
X213043000Y-114594000D01*
X213047000Y-114623000D01*
X213049000Y-114651000D01*
X213050000Y-114680000D01*
X213049000Y-114709000D01*
X213047000Y-114737000D01*
X213043000Y-114766000D01*
X213038000Y-114794000D01*
X213031000Y-114822000D01*
X213023000Y-114850000D01*
X213013000Y-114877000D01*
X213002000Y-114904000D01*
X212990000Y-114930000D01*
X212976000Y-114955000D01*
X212961000Y-114980000D01*
X212945000Y-115003000D01*
X212927000Y-115026000D01*
X212909000Y-115048000D01*
X212889000Y-115069000D01*
X212868000Y-115089000D01*
X212846000Y-115107000D01*
X212823000Y-115125000D01*
X212800000Y-115141000D01*
X212775000Y-115156000D01*
X212750000Y-115170000D01*
X212724000Y-115182000D01*
X212697000Y-115193000D01*
X212670000Y-115203000D01*
X212642000Y-115211000D01*
X212614000Y-115218000D01*
X212586000Y-115223000D01*
X212557000Y-115227000D01*
X212529000Y-115229000D01*
X212500000Y-115230000D01*
X211900000Y-115230000D01*
X211871000Y-115229000D01*
X211843000Y-115227000D01*
X211814000Y-115223000D01*
X211786000Y-115218000D01*
X211758000Y-115211000D01*
X211730000Y-115203000D01*
X211703000Y-115193000D01*
X211676000Y-115182000D01*
X211650000Y-115170000D01*
X211625000Y-115156000D01*
X211600000Y-115141000D01*
X211577000Y-115125000D01*
X211554000Y-115107000D01*
X211532000Y-115089000D01*
X211511000Y-115069000D01*
X211491000Y-115048000D01*
X211473000Y-115026000D01*
X211455000Y-115003000D01*
X211439000Y-114980000D01*
X211424000Y-114955000D01*
X211410000Y-114930000D01*
X211398000Y-114904000D01*
X211387000Y-114877000D01*
X211377000Y-114850000D01*
X211369000Y-114822000D01*
X211362000Y-114794000D01*
X211357000Y-114766000D01*
X211353000Y-114737000D01*
X211351000Y-114709000D01*
X211350000Y-114680000D01*
X211351000Y-114651000D01*
X211353000Y-114623000D01*
X211357000Y-114594000D01*
X211362000Y-114566000D01*
X211369000Y-114538000D01*
X211377000Y-114510000D01*
X211387000Y-114483000D01*
X211398000Y-114456000D01*
X211410000Y-114430000D01*
X211424000Y-114405000D01*
X211439000Y-114380000D01*
X211455000Y-114357000D01*
X211473000Y-114334000D01*
X211491000Y-114312000D01*
X211511000Y-114291000D01*
X211532000Y-114271000D01*
X211554000Y-114253000D01*
X211577000Y-114235000D01*
X211600000Y-114219000D01*
X211625000Y-114204000D01*
X211650000Y-114190000D01*
X211676000Y-114178000D01*
X211703000Y-114167000D01*
X211730000Y-114157000D01*
X211758000Y-114149000D01*
X211786000Y-114142000D01*
X211814000Y-114137000D01*
X211843000Y-114133000D01*
X211871000Y-114131000D01*
X211900000Y-114130000D01*
X212500000Y-114130000D01*
X212529000Y-114131000D01*
G37*
%TD.AperFunction*%
%TD*%
D11*
%TO.P,J5,1,Pin_1*%
%TO.N,Net-(D2-A)*%
X221000000Y-109500000D03*
D12*
%TO.P,J5,2,Pin_2*%
%TO.N,VCC*%
X218460000Y-109500000D03*
%TD*%
D11*
%TO.P,J4,1,Pin_1*%
%TO.N,Net-(J4-Pin_1)*%
X231960000Y-113500000D03*
D12*
%TO.P,J4,2,Pin_2*%
%TO.N,VCC*%
X231960000Y-110960000D03*
%TO.P,J4,3,Pin_3*%
%TO.N,Net-(J4-Pin_3)*%
X234500000Y-113500000D03*
%TO.P,J4,4,Pin_4*%
%TO.N,Net-(J4-Pin_4)*%
X234500000Y-110960000D03*
%TO.P,J4,5,Pin_5*%
%TO.N,Net-(J4-Pin_5)*%
X237040000Y-113500000D03*
%TO.P,J4,6,Pin_6*%
%TO.N,GND*%
X237040000Y-110960000D03*
%TD*%
D13*
%TO.P,J3,S4,SHIELD*%
%TO.N,unconnected-(J3-SHIELD-PadS1)_1*%
X212200000Y-123320000D03*
%TO.P,J3,S3,SHIELD*%
%TO.N,unconnected-(J3-SHIELD-PadS1)_3*%
X212200000Y-114680000D03*
%TO.P,J3,S2,SHIELD*%
%TO.N,unconnected-(J3-SHIELD-PadS1)_2*%
X216000000Y-123320000D03*
%TO.P,J3,S1,SHIELD*%
%TO.N,unconnected-(J3-SHIELD-PadS1)*%
X216000000Y-114680000D03*
%TD*%
D11*
%TO.P,J2,1,Pin_1*%
%TO.N,Net-(J2-Pin_1)*%
X241450000Y-120500000D03*
D12*
%TO.P,J2,2,Pin_2*%
%TO.N,Net-(J2-Pin_2)*%
X241450000Y-117960000D03*
%TD*%
D11*
%TO.P,J1,1,Pin_1*%
%TO.N,Net-(J1-Pin_1)*%
X212000000Y-109500000D03*
D12*
%TO.P,J1,2,Pin_2*%
%TO.N,GND*%
X214540000Y-109500000D03*
%TD*%
D14*
%TO.N,GND*%
X217500000Y-125000000D03*
%TO.N,Net-(J1-Pin_1)*%
X210421700Y-126625000D03*
%TO.N,GND*%
X233270200Y-123954200D03*
X215482200Y-113216200D03*
X221136200Y-126363800D03*
X217139800Y-121441000D03*
X217156400Y-116474700D03*
X225473900Y-108635900D03*
X223725600Y-112125600D03*
X223194900Y-116949500D03*
X238850000Y-118051700D03*
X220300000Y-122076900D03*
X235330800Y-117150000D03*
%TD*%
D15*
%TO.N,Net-(J1-Pin_1)*%
X210421700Y-112180000D02*
X212000000Y-110601700D01*
X210421700Y-126625000D02*
X210421700Y-112180000D01*
D16*
X212000000Y-109500000D02*
X212000000Y-110601700D01*
%TD*%
%TA.AperFunction,Conductor*%
%TO.N,GND*%
G36*
X217987843Y-108020185D02*
G01*
X218033598Y-108072989D01*
X218043542Y-108142147D01*
X218014517Y-108205703D01*
X217973209Y-108236882D01*
X217782171Y-108325964D01*
X217782169Y-108325965D01*
X217588597Y-108461505D01*
X217421505Y-108628597D01*
X217285965Y-108822169D01*
X217285964Y-108822171D01*
X217186098Y-109036335D01*
X217186094Y-109036344D01*
X217124938Y-109264586D01*
X217124936Y-109264596D01*
X217104341Y-109499999D01*
X217104341Y-109500000D01*
X217124936Y-109735403D01*
X217124938Y-109735413D01*
X217186094Y-109963655D01*
X217186096Y-109963659D01*
X217186097Y-109963663D01*
X217244508Y-110088926D01*
X217285965Y-110177830D01*
X217285967Y-110177834D01*
X217389303Y-110325412D01*
X217421505Y-110371401D01*
X217588599Y-110538495D01*
X217685384Y-110606265D01*
X217782165Y-110674032D01*
X217782167Y-110674033D01*
X217782170Y-110674035D01*
X217996337Y-110773903D01*
X218224592Y-110835063D01*
X218405080Y-110850854D01*
X218459999Y-110855659D01*
X218460000Y-110855659D01*
X218460001Y-110855659D01*
X218514920Y-110850854D01*
X218695408Y-110835063D01*
X218923663Y-110773903D01*
X219137830Y-110674035D01*
X219331401Y-110538495D01*
X219453329Y-110416566D01*
X219514648Y-110383084D01*
X219584340Y-110388068D01*
X219640274Y-110429939D01*
X219657189Y-110460917D01*
X219706202Y-110592328D01*
X219706206Y-110592335D01*
X219792452Y-110707544D01*
X219792455Y-110707547D01*
X219907664Y-110793793D01*
X219907671Y-110793797D01*
X220042517Y-110844091D01*
X220042516Y-110844091D01*
X220049444Y-110844835D01*
X220102127Y-110850500D01*
X221897872Y-110850499D01*
X221957483Y-110844091D01*
X222092331Y-110793796D01*
X222207546Y-110707546D01*
X222293796Y-110592331D01*
X222344091Y-110457483D01*
X222350500Y-110397873D01*
X222350499Y-108602128D01*
X222344091Y-108542517D01*
X222343002Y-108539598D01*
X222293797Y-108407671D01*
X222293793Y-108407664D01*
X222207547Y-108292455D01*
X222207544Y-108292452D01*
X222115792Y-108223766D01*
X222073921Y-108167832D01*
X222068937Y-108098141D01*
X222102423Y-108036818D01*
X222163746Y-108003334D01*
X222190103Y-108000500D01*
X243375500Y-108000500D01*
X243442539Y-108020185D01*
X243488294Y-108072989D01*
X243499500Y-108124500D01*
X243499500Y-129875500D01*
X243479815Y-129942539D01*
X243427011Y-129988294D01*
X243375500Y-129999500D01*
X209624500Y-129999500D01*
X209557461Y-129979815D01*
X209511706Y-129927011D01*
X209500500Y-129875500D01*
X209500500Y-127185958D01*
X209520185Y-127118919D01*
X209572989Y-127073164D01*
X209642147Y-127063220D01*
X209705703Y-127092245D01*
X209727599Y-127117063D01*
X209751809Y-127153296D01*
X209761075Y-127167164D01*
X209879537Y-127285626D01*
X209972194Y-127347537D01*
X210018837Y-127378703D01*
X210173618Y-127442816D01*
X210337928Y-127475499D01*
X210337932Y-127475500D01*
X210337933Y-127475500D01*
X210505468Y-127475500D01*
X210505469Y-127475499D01*
X210669782Y-127442816D01*
X210824563Y-127378703D01*
X210963862Y-127285626D01*
X211082326Y-127167162D01*
X211175403Y-127027863D01*
X211239516Y-126873082D01*
X211272200Y-126708767D01*
X211272200Y-124391681D01*
X211291885Y-124324642D01*
X211344689Y-124278887D01*
X211413847Y-124268943D01*
X211448161Y-124279093D01*
X211462071Y-124285513D01*
X211479836Y-124293227D01*
X211483392Y-124294771D01*
X211510424Y-124305784D01*
X211525664Y-124311709D01*
X211525687Y-124311717D01*
X211525696Y-124311721D01*
X211552696Y-124321721D01*
X211589755Y-124333858D01*
X211589769Y-124333862D01*
X211617773Y-124341864D01*
X211632333Y-124345761D01*
X211634186Y-124346258D01*
X211662186Y-124353258D01*
X211696259Y-124360550D01*
X211724259Y-124365550D01*
X211744247Y-124368712D01*
X211773247Y-124372712D01*
X211806628Y-124376203D01*
X211834628Y-124378203D01*
X211853407Y-124379197D01*
X211882407Y-124380197D01*
X211900000Y-124380500D01*
X211900024Y-124380500D01*
X212499976Y-124380500D01*
X212500000Y-124380500D01*
X212517593Y-124380197D01*
X212546593Y-124379197D01*
X212565372Y-124378203D01*
X212593372Y-124376203D01*
X212626753Y-124372712D01*
X212655753Y-124368712D01*
X212675741Y-124365550D01*
X212703741Y-124360550D01*
X212737814Y-124353258D01*
X212765814Y-124346258D01*
X212770970Y-124344877D01*
X212782226Y-124341864D01*
X212800895Y-124336529D01*
X212810245Y-124333858D01*
X212847304Y-124321721D01*
X212874304Y-124311721D01*
X212874335Y-124311709D01*
X212889575Y-124305784D01*
X212889596Y-124305775D01*
X212889610Y-124305770D01*
X212916610Y-124294770D01*
X212937929Y-124285513D01*
X212963929Y-124273513D01*
X212981249Y-124264683D01*
X212999423Y-124255419D01*
X213024448Y-124241405D01*
X213037617Y-124233769D01*
X213037650Y-124233750D01*
X213062650Y-124218750D01*
X213091528Y-124200072D01*
X213114528Y-124184072D01*
X213137625Y-124167021D01*
X213160625Y-124149021D01*
X213169268Y-124142105D01*
X213191268Y-124124105D01*
X213220069Y-124098672D01*
X213241069Y-124078672D01*
X213258672Y-124061069D01*
X213278672Y-124040069D01*
X213304105Y-124011268D01*
X213322105Y-123989268D01*
X213329021Y-123980625D01*
X213347021Y-123957625D01*
X213364072Y-123934528D01*
X213380072Y-123911528D01*
X213398750Y-123882650D01*
X213413750Y-123857650D01*
X213421414Y-123844432D01*
X213435414Y-123819432D01*
X213453513Y-123783929D01*
X213465513Y-123757929D01*
X213474770Y-123736610D01*
X213485770Y-123709610D01*
X213491721Y-123694304D01*
X213501721Y-123667304D01*
X213513858Y-123630245D01*
X213516529Y-123620895D01*
X213521864Y-123602226D01*
X213526253Y-123585834D01*
X213526258Y-123585814D01*
X213533258Y-123557814D01*
X213540550Y-123523741D01*
X213545550Y-123495741D01*
X213548712Y-123475753D01*
X213552712Y-123446753D01*
X213556203Y-123413372D01*
X213558203Y-123385372D01*
X213559197Y-123366593D01*
X213560197Y-123337593D01*
X213560197Y-123302407D01*
X213560197Y-123302397D01*
X214639803Y-123302397D01*
X214639803Y-123302407D01*
X214639803Y-123337593D01*
X214640803Y-123366593D01*
X214641797Y-123385372D01*
X214641799Y-123385399D01*
X214643796Y-123413371D01*
X214647289Y-123446759D01*
X214651285Y-123475738D01*
X214654449Y-123495735D01*
X214659452Y-123523752D01*
X214666739Y-123557800D01*
X214673747Y-123585834D01*
X214678135Y-123602226D01*
X214686137Y-123630230D01*
X214698280Y-123667308D01*
X214708290Y-123694335D01*
X214714215Y-123709575D01*
X214725228Y-123736607D01*
X214734491Y-123757938D01*
X214746492Y-123783940D01*
X214764580Y-123819423D01*
X214778594Y-123844448D01*
X214786230Y-123857617D01*
X214786250Y-123857650D01*
X214801250Y-123882650D01*
X214819928Y-123911528D01*
X214831932Y-123928783D01*
X214835934Y-123934537D01*
X214852980Y-123957626D01*
X214870958Y-123980599D01*
X214877928Y-123989309D01*
X214888704Y-124002479D01*
X214895895Y-124011268D01*
X214909955Y-124027190D01*
X214921329Y-124040071D01*
X214941329Y-124061070D01*
X214958929Y-124078670D01*
X214979928Y-124098670D01*
X214990842Y-124108307D01*
X215008732Y-124124105D01*
X215021910Y-124134887D01*
X215030690Y-124142071D01*
X215039400Y-124149041D01*
X215050886Y-124158030D01*
X215062375Y-124167021D01*
X215072200Y-124174274D01*
X215085462Y-124184065D01*
X215085470Y-124184071D01*
X215085472Y-124184072D01*
X215108472Y-124200072D01*
X215137350Y-124218750D01*
X215162350Y-124233750D01*
X215162382Y-124233769D01*
X215175551Y-124241405D01*
X215200576Y-124255419D01*
X215227106Y-124268943D01*
X215236071Y-124273513D01*
X215262071Y-124285513D01*
X215279836Y-124293227D01*
X215283392Y-124294771D01*
X215310424Y-124305784D01*
X215325664Y-124311709D01*
X215325687Y-124311717D01*
X215325696Y-124311721D01*
X215352696Y-124321721D01*
X215389755Y-124333858D01*
X215389769Y-124333862D01*
X215417773Y-124341864D01*
X215432333Y-124345761D01*
X215434186Y-124346258D01*
X215462186Y-124353258D01*
X215496259Y-124360550D01*
X215524259Y-124365550D01*
X215544247Y-124368712D01*
X215573247Y-124372712D01*
X215606628Y-124376203D01*
X215634628Y-124378203D01*
X215653407Y-124379197D01*
X215682407Y-124380197D01*
X215700000Y-124380500D01*
X215700024Y-124380500D01*
X216299976Y-124380500D01*
X216300000Y-124380500D01*
X216317593Y-124380197D01*
X216346593Y-124379197D01*
X216365372Y-124378203D01*
X216393372Y-124376203D01*
X216426753Y-124372712D01*
X216455753Y-124368712D01*
X216475741Y-124365550D01*
X216503741Y-124360550D01*
X216537814Y-124353258D01*
X216565814Y-124346258D01*
X216570970Y-124344877D01*
X216582226Y-124341864D01*
X216600895Y-124336529D01*
X216610245Y-124333858D01*
X216647304Y-124321721D01*
X216674304Y-124311721D01*
X216674335Y-124311709D01*
X216689575Y-124305784D01*
X216689596Y-124305775D01*
X216689610Y-124305770D01*
X216716610Y-124294770D01*
X216737929Y-124285513D01*
X216763929Y-124273513D01*
X216781249Y-124264683D01*
X216799423Y-124255419D01*
X216824448Y-124241405D01*
X216837617Y-124233769D01*
X216837650Y-124233750D01*
X216862650Y-124218750D01*
X216891528Y-124200072D01*
X216914528Y-124184072D01*
X216937625Y-124167021D01*
X216960625Y-124149021D01*
X216969268Y-124142105D01*
X216991268Y-124124105D01*
X217020069Y-124098672D01*
X217041069Y-124078672D01*
X217058672Y-124061069D01*
X217078672Y-124040069D01*
X217104105Y-124011268D01*
X217122105Y-123989268D01*
X217129021Y-123980625D01*
X217147021Y-123957625D01*
X217164072Y-123934528D01*
X217180072Y-123911528D01*
X217198750Y-123882650D01*
X217213750Y-123857650D01*
X217221414Y-123844432D01*
X217235414Y-123819432D01*
X217253513Y-123783929D01*
X217265513Y-123757929D01*
X217274770Y-123736610D01*
X217285770Y-123709610D01*
X217291721Y-123694304D01*
X217301721Y-123667304D01*
X217313858Y-123630245D01*
X217316529Y-123620895D01*
X217321864Y-123602226D01*
X217326253Y-123585834D01*
X217326258Y-123585814D01*
X217333258Y-123557814D01*
X217340550Y-123523741D01*
X217345550Y-123495741D01*
X217348712Y-123475753D01*
X217352712Y-123446753D01*
X217356203Y-123413372D01*
X217358203Y-123385372D01*
X217359197Y-123366593D01*
X217360197Y-123337593D01*
X217360197Y-123302407D01*
X217359197Y-123273407D01*
X217358203Y-123254628D01*
X217356203Y-123226628D01*
X217352712Y-123193247D01*
X217348712Y-123164247D01*
X217345550Y-123144259D01*
X217340550Y-123116259D01*
X217333258Y-123082186D01*
X217326258Y-123054186D01*
X217325761Y-123052333D01*
X217321864Y-123037773D01*
X217313862Y-123009769D01*
X217313858Y-123009755D01*
X217301721Y-122972696D01*
X217291721Y-122945696D01*
X217291709Y-122945664D01*
X217285784Y-122930424D01*
X217274771Y-122903392D01*
X217273227Y-122899836D01*
X217265513Y-122882071D01*
X217253513Y-122856071D01*
X217253507Y-122856059D01*
X217235419Y-122820576D01*
X217221405Y-122795551D01*
X217213769Y-122782382D01*
X217198746Y-122757344D01*
X217180072Y-122728472D01*
X217164072Y-122705472D01*
X217147021Y-122682375D01*
X217129021Y-122659375D01*
X217122105Y-122650732D01*
X217104105Y-122628732D01*
X217088307Y-122610842D01*
X217078670Y-122599928D01*
X217058670Y-122578929D01*
X217041070Y-122561329D01*
X217020071Y-122541329D01*
X217007190Y-122529955D01*
X216991268Y-122515895D01*
X216982479Y-122508704D01*
X216969309Y-122497928D01*
X216960599Y-122490958D01*
X216937626Y-122472980D01*
X216914537Y-122455934D01*
X216908783Y-122451932D01*
X216891528Y-122439928D01*
X216862650Y-122421250D01*
X216837650Y-122406250D01*
X216837617Y-122406230D01*
X216824448Y-122398594D01*
X216799423Y-122384580D01*
X216763940Y-122366492D01*
X216737938Y-122354491D01*
X216716607Y-122345228D01*
X216689575Y-122334215D01*
X216674335Y-122328290D01*
X216647308Y-122318280D01*
X216610230Y-122306137D01*
X216582226Y-122298135D01*
X216565861Y-122293754D01*
X216565828Y-122293745D01*
X216565814Y-122293742D01*
X216537814Y-122286742D01*
X216537800Y-122286739D01*
X216503752Y-122279452D01*
X216475735Y-122274449D01*
X216455738Y-122271285D01*
X216431286Y-122267913D01*
X216426753Y-122267288D01*
X216416949Y-122266262D01*
X216393371Y-122263796D01*
X216367397Y-122261941D01*
X216365372Y-122261797D01*
X216346593Y-122260803D01*
X216346575Y-122260802D01*
X216346549Y-122260801D01*
X216317637Y-122259804D01*
X216317607Y-122259803D01*
X216317593Y-122259803D01*
X216300000Y-122259500D01*
X215700000Y-122259500D01*
X215682407Y-122259803D01*
X215682393Y-122259803D01*
X215682362Y-122259804D01*
X215653450Y-122260801D01*
X215653421Y-122260802D01*
X215653407Y-122260803D01*
X215634628Y-122261797D01*
X215634600Y-122261799D01*
X215606628Y-122263796D01*
X215580295Y-122266550D01*
X215573247Y-122267288D01*
X215573240Y-122267289D01*
X215544261Y-122271285D01*
X215524264Y-122274449D01*
X215496247Y-122279452D01*
X215462199Y-122286739D01*
X215462192Y-122286740D01*
X215462186Y-122286742D01*
X215434186Y-122293742D01*
X215434138Y-122293754D01*
X215417773Y-122298135D01*
X215389769Y-122306137D01*
X215352691Y-122318280D01*
X215325664Y-122328290D01*
X215310424Y-122334215D01*
X215283392Y-122345228D01*
X215262061Y-122354491D01*
X215236059Y-122366492D01*
X215200576Y-122384580D01*
X215175551Y-122398594D01*
X215162382Y-122406230D01*
X215137344Y-122421253D01*
X215108475Y-122439926D01*
X215085462Y-122455934D01*
X215062373Y-122472980D01*
X215039400Y-122490958D01*
X215030690Y-122497928D01*
X215008740Y-122515888D01*
X214979928Y-122541329D01*
X214958929Y-122561329D01*
X214941329Y-122578929D01*
X214921329Y-122599928D01*
X214895888Y-122628740D01*
X214877928Y-122650690D01*
X214870958Y-122659400D01*
X214852980Y-122682373D01*
X214835934Y-122705462D01*
X214819926Y-122728475D01*
X214801253Y-122757344D01*
X214786230Y-122782382D01*
X214778594Y-122795551D01*
X214764580Y-122820576D01*
X214746492Y-122856059D01*
X214734491Y-122882061D01*
X214725228Y-122903392D01*
X214714215Y-122930424D01*
X214708290Y-122945664D01*
X214698280Y-122972691D01*
X214686137Y-123009769D01*
X214678135Y-123037773D01*
X214673754Y-123054138D01*
X214666739Y-123082199D01*
X214659452Y-123116247D01*
X214654449Y-123144264D01*
X214651285Y-123164261D01*
X214647289Y-123193240D01*
X214643796Y-123226628D01*
X214641799Y-123254600D01*
X214641797Y-123254628D01*
X214640803Y-123273407D01*
X214640801Y-123273450D01*
X214639803Y-123302397D01*
X213560197Y-123302397D01*
X213559197Y-123273407D01*
X213558203Y-123254628D01*
X213556203Y-123226628D01*
X213552712Y-123193247D01*
X213548712Y-123164247D01*
X213545550Y-123144259D01*
X213540550Y-123116259D01*
X213533258Y-123082186D01*
X213526258Y-123054186D01*
X213525761Y-123052333D01*
X213521864Y-123037773D01*
X213513862Y-123009769D01*
X213513858Y-123009755D01*
X213501721Y-122972696D01*
X213491721Y-122945696D01*
X213491709Y-122945664D01*
X213485784Y-122930424D01*
X213474771Y-122903392D01*
X213473227Y-122899836D01*
X213465513Y-122882071D01*
X213453513Y-122856071D01*
X213453507Y-122856059D01*
X213435419Y-122820576D01*
X213421405Y-122795551D01*
X213413769Y-122782382D01*
X213398746Y-122757344D01*
X213380072Y-122728472D01*
X213364072Y-122705472D01*
X213347021Y-122682375D01*
X213329021Y-122659375D01*
X213322105Y-122650732D01*
X213304105Y-122628732D01*
X213288307Y-122610842D01*
X213278670Y-122599928D01*
X213258670Y-122578929D01*
X213241070Y-122561329D01*
X213220071Y-122541329D01*
X213207190Y-122529955D01*
X213191268Y-122515895D01*
X213182479Y-122508704D01*
X213169309Y-122497928D01*
X213160599Y-122490958D01*
X213137626Y-122472980D01*
X213114537Y-122455934D01*
X213108783Y-122451932D01*
X213091528Y-122439928D01*
X213062650Y-122421250D01*
X213037650Y-122406250D01*
X213037617Y-122406230D01*
X213024448Y-122398594D01*
X212999423Y-122384580D01*
X212963940Y-122366492D01*
X212937938Y-122354491D01*
X212916607Y-122345228D01*
X212889575Y-122334215D01*
X212874335Y-122328290D01*
X212847308Y-122318280D01*
X212810230Y-122306137D01*
X212782226Y-122298135D01*
X212765861Y-122293754D01*
X212765828Y-122293745D01*
X212765814Y-122293742D01*
X212737814Y-122286742D01*
X212737800Y-122286739D01*
X212703752Y-122279452D01*
X212675735Y-122274449D01*
X212655738Y-122271285D01*
X212631286Y-122267913D01*
X212626753Y-122267288D01*
X212616949Y-122266262D01*
X212593371Y-122263796D01*
X212567397Y-122261941D01*
X212565372Y-122261797D01*
X212546593Y-122260803D01*
X212546575Y-122260802D01*
X212546549Y-122260801D01*
X212517637Y-122259804D01*
X212517607Y-122259803D01*
X212517593Y-122259803D01*
X212500000Y-122259500D01*
X211900000Y-122259500D01*
X211882407Y-122259803D01*
X211882393Y-122259803D01*
X211882362Y-122259804D01*
X211853450Y-122260801D01*
X211853421Y-122260802D01*
X211853407Y-122260803D01*
X211834628Y-122261797D01*
X211834600Y-122261799D01*
X211806628Y-122263796D01*
X211780295Y-122266550D01*
X211773247Y-122267288D01*
X211773240Y-122267289D01*
X211744261Y-122271285D01*
X211724264Y-122274449D01*
X211696247Y-122279452D01*
X211662199Y-122286739D01*
X211662192Y-122286740D01*
X211662186Y-122286742D01*
X211634186Y-122293742D01*
X211634138Y-122293754D01*
X211617773Y-122298135D01*
X211589769Y-122306137D01*
X211552691Y-122318280D01*
X211525664Y-122328290D01*
X211510424Y-122334215D01*
X211483392Y-122345228D01*
X211462066Y-122354489D01*
X211448155Y-122360909D01*
X211379036Y-122371124D01*
X211315367Y-122342350D01*
X211277361Y-122283721D01*
X211272200Y-122248318D01*
X211272200Y-117959999D01*
X240094341Y-117959999D01*
X240094341Y-117960000D01*
X240114936Y-118195403D01*
X240114938Y-118195413D01*
X240176094Y-118423655D01*
X240176096Y-118423659D01*
X240176097Y-118423663D01*
X240275965Y-118637830D01*
X240275967Y-118637834D01*
X240384281Y-118792521D01*
X240411501Y-118831396D01*
X240411506Y-118831402D01*
X240533430Y-118953326D01*
X240566915Y-119014649D01*
X240561931Y-119084341D01*
X240520059Y-119140274D01*
X240489083Y-119157189D01*
X240357669Y-119206203D01*
X240357664Y-119206206D01*
X240242455Y-119292452D01*
X240242452Y-119292455D01*
X240156206Y-119407664D01*
X240156202Y-119407671D01*
X240105908Y-119542517D01*
X240099501Y-119602116D01*
X240099501Y-119602123D01*
X240099500Y-119602135D01*
X240099500Y-121397870D01*
X240099501Y-121397876D01*
X240105908Y-121457483D01*
X240156202Y-121592328D01*
X240156206Y-121592335D01*
X240242452Y-121707544D01*
X240242455Y-121707547D01*
X240357664Y-121793793D01*
X240357671Y-121793797D01*
X240492517Y-121844091D01*
X240492516Y-121844091D01*
X240499444Y-121844835D01*
X240552127Y-121850500D01*
X242347872Y-121850499D01*
X242407483Y-121844091D01*
X242542331Y-121793796D01*
X242657546Y-121707546D01*
X242743796Y-121592331D01*
X242794091Y-121457483D01*
X242800500Y-121397873D01*
X242800499Y-119602128D01*
X242794091Y-119542517D01*
X242743796Y-119407669D01*
X242743795Y-119407668D01*
X242743793Y-119407664D01*
X242657547Y-119292455D01*
X242657544Y-119292452D01*
X242542335Y-119206206D01*
X242542328Y-119206202D01*
X242410917Y-119157189D01*
X242354983Y-119115318D01*
X242330566Y-119049853D01*
X242345418Y-118981580D01*
X242366563Y-118953332D01*
X242488495Y-118831401D01*
X242624035Y-118637830D01*
X242723903Y-118423663D01*
X242785063Y-118195408D01*
X242805659Y-117960000D01*
X242785063Y-117724592D01*
X242723903Y-117496337D01*
X242624035Y-117282171D01*
X242488495Y-117088599D01*
X242488494Y-117088597D01*
X242321402Y-116921506D01*
X242321395Y-116921501D01*
X242127834Y-116785967D01*
X242127830Y-116785965D01*
X242127828Y-116785964D01*
X241913663Y-116686097D01*
X241913659Y-116686096D01*
X241913655Y-116686094D01*
X241685413Y-116624938D01*
X241685403Y-116624936D01*
X241450001Y-116604341D01*
X241449999Y-116604341D01*
X241214596Y-116624936D01*
X241214586Y-116624938D01*
X240986344Y-116686094D01*
X240986335Y-116686098D01*
X240772171Y-116785964D01*
X240772169Y-116785965D01*
X240578597Y-116921505D01*
X240411505Y-117088597D01*
X240275965Y-117282169D01*
X240275964Y-117282171D01*
X240176098Y-117496335D01*
X240176094Y-117496344D01*
X240114938Y-117724586D01*
X240114936Y-117724596D01*
X240094341Y-117959999D01*
X211272200Y-117959999D01*
X211272200Y-115751681D01*
X211291885Y-115684642D01*
X211344689Y-115638887D01*
X211413847Y-115628943D01*
X211448161Y-115639093D01*
X211462071Y-115645513D01*
X211479836Y-115653227D01*
X211483392Y-115654771D01*
X211510424Y-115665784D01*
X211525664Y-115671709D01*
X211525687Y-115671717D01*
X211525696Y-115671721D01*
X211552696Y-115681721D01*
X211589755Y-115693858D01*
X211589769Y-115693862D01*
X211617773Y-115701864D01*
X211632333Y-115705761D01*
X211634186Y-115706258D01*
X211662186Y-115713258D01*
X211696259Y-115720550D01*
X211724259Y-115725550D01*
X211744247Y-115728712D01*
X211773247Y-115732712D01*
X211806628Y-115736203D01*
X211834628Y-115738203D01*
X211853407Y-115739197D01*
X211882407Y-115740197D01*
X211900000Y-115740500D01*
X211900024Y-115740500D01*
X212499976Y-115740500D01*
X212500000Y-115740500D01*
X212517593Y-115740197D01*
X212546593Y-115739197D01*
X212565372Y-115738203D01*
X212593372Y-115736203D01*
X212626753Y-115732712D01*
X212655753Y-115728712D01*
X212675741Y-115725550D01*
X212703741Y-115720550D01*
X212737814Y-115713258D01*
X212765814Y-115706258D01*
X212770970Y-115704877D01*
X212782226Y-115701864D01*
X212800895Y-115696529D01*
X212810245Y-115693858D01*
X212847304Y-115681721D01*
X212874304Y-115671721D01*
X212874335Y-115671709D01*
X212889575Y-115665784D01*
X212889596Y-115665775D01*
X212889610Y-115665770D01*
X212916610Y-115654770D01*
X212937929Y-115645513D01*
X212963929Y-115633513D01*
X212981249Y-115624683D01*
X212999423Y-115615419D01*
X213024448Y-115601405D01*
X213037617Y-115593769D01*
X213037650Y-115593750D01*
X213062650Y-115578750D01*
X213091528Y-115560072D01*
X213114528Y-115544072D01*
X213137625Y-115527021D01*
X213160625Y-115509021D01*
X213169268Y-115502105D01*
X213191268Y-115484105D01*
X213220069Y-115458672D01*
X213241069Y-115438672D01*
X213258672Y-115421069D01*
X213278672Y-115400069D01*
X213304105Y-115371268D01*
X213322105Y-115349268D01*
X213329021Y-115340625D01*
X213347021Y-115317625D01*
X213364072Y-115294528D01*
X213380072Y-115271528D01*
X213398750Y-115242650D01*
X213413750Y-115217650D01*
X213421414Y-115204432D01*
X213435414Y-115179432D01*
X213453513Y-115143929D01*
X213465513Y-115117929D01*
X213474770Y-115096610D01*
X213485770Y-115069610D01*
X213491721Y-115054304D01*
X213501721Y-115027304D01*
X213513858Y-114990245D01*
X213516529Y-114980895D01*
X213521864Y-114962226D01*
X213526253Y-114945834D01*
X213526258Y-114945814D01*
X213533258Y-114917814D01*
X213540550Y-114883741D01*
X213545550Y-114855741D01*
X213548712Y-114835753D01*
X213552712Y-114806753D01*
X213556203Y-114773372D01*
X213558203Y-114745372D01*
X213559197Y-114726593D01*
X213560197Y-114697593D01*
X213560197Y-114662407D01*
X213560197Y-114662397D01*
X214639803Y-114662397D01*
X214639803Y-114662407D01*
X214639803Y-114697593D01*
X214640803Y-114726593D01*
X214641797Y-114745372D01*
X214641799Y-114745399D01*
X214643796Y-114773371D01*
X214647289Y-114806759D01*
X214651285Y-114835738D01*
X214654449Y-114855735D01*
X214659452Y-114883752D01*
X214666739Y-114917800D01*
X214673747Y-114945834D01*
X214678135Y-114962226D01*
X214686137Y-114990230D01*
X214698280Y-115027308D01*
X214708290Y-115054335D01*
X214714215Y-115069575D01*
X214725228Y-115096607D01*
X214734491Y-115117938D01*
X214746492Y-115143940D01*
X214764580Y-115179423D01*
X214778594Y-115204448D01*
X214786230Y-115217617D01*
X214786250Y-115217650D01*
X214801250Y-115242650D01*
X214819928Y-115271528D01*
X214831932Y-115288783D01*
X214835934Y-115294537D01*
X214852980Y-115317626D01*
X214870958Y-115340599D01*
X214877928Y-115349309D01*
X214888704Y-115362479D01*
X214895895Y-115371268D01*
X214909955Y-115387190D01*
X214921329Y-115400071D01*
X214941329Y-115421070D01*
X214958929Y-115438670D01*
X214979928Y-115458670D01*
X214990842Y-115468307D01*
X215008732Y-115484105D01*
X215021910Y-115494887D01*
X215030690Y-115502071D01*
X215039400Y-115509041D01*
X215050886Y-115518030D01*
X215062375Y-115527021D01*
X215072200Y-115534274D01*
X215085462Y-115544065D01*
X215085470Y-115544071D01*
X215085472Y-115544072D01*
X215108472Y-115560072D01*
X215137350Y-115578750D01*
X215162350Y-115593750D01*
X215162382Y-115593769D01*
X215175551Y-115601405D01*
X215200576Y-115615419D01*
X215227106Y-115628943D01*
X215236071Y-115633513D01*
X215262071Y-115645513D01*
X215279836Y-115653227D01*
X215283392Y-115654771D01*
X215310424Y-115665784D01*
X215325664Y-115671709D01*
X215325687Y-115671717D01*
X215325696Y-115671721D01*
X215352696Y-115681721D01*
X215389755Y-115693858D01*
X215389769Y-115693862D01*
X215417773Y-115701864D01*
X215432333Y-115705761D01*
X215434186Y-115706258D01*
X215462186Y-115713258D01*
X215496259Y-115720550D01*
X215524259Y-115725550D01*
X215544247Y-115728712D01*
X215573247Y-115732712D01*
X215606628Y-115736203D01*
X215634628Y-115738203D01*
X215653407Y-115739197D01*
X215682407Y-115740197D01*
X215700000Y-115740500D01*
X215700024Y-115740500D01*
X216299976Y-115740500D01*
X216300000Y-115740500D01*
X216317593Y-115740197D01*
X216346593Y-115739197D01*
X216365372Y-115738203D01*
X216393372Y-115736203D01*
X216426753Y-115732712D01*
X216455753Y-115728712D01*
X216475741Y-115725550D01*
X216503741Y-115720550D01*
X216537814Y-115713258D01*
X216565814Y-115706258D01*
X216570970Y-115704877D01*
X216582226Y-115701864D01*
X216600895Y-115696529D01*
X216610245Y-115693858D01*
X216647304Y-115681721D01*
X216674304Y-115671721D01*
X216674335Y-115671709D01*
X216689575Y-115665784D01*
X216689596Y-115665775D01*
X216689610Y-115665770D01*
X216716610Y-115654770D01*
X216737929Y-115645513D01*
X216763929Y-115633513D01*
X216781249Y-115624683D01*
X216799423Y-115615419D01*
X216824448Y-115601405D01*
X216837617Y-115593769D01*
X216837650Y-115593750D01*
X216862650Y-115578750D01*
X216891528Y-115560072D01*
X216914528Y-115544072D01*
X216937625Y-115527021D01*
X216960625Y-115509021D01*
X216969268Y-115502105D01*
X216991268Y-115484105D01*
X217020069Y-115458672D01*
X217041069Y-115438672D01*
X217058672Y-115421069D01*
X217078672Y-115400069D01*
X217104105Y-115371268D01*
X217122105Y-115349268D01*
X217129021Y-115340625D01*
X217147021Y-115317625D01*
X217164072Y-115294528D01*
X217180072Y-115271528D01*
X217198750Y-115242650D01*
X217213750Y-115217650D01*
X217221414Y-115204432D01*
X217235414Y-115179432D01*
X217253513Y-115143929D01*
X217265513Y-115117929D01*
X217274770Y-115096610D01*
X217285770Y-115069610D01*
X217291721Y-115054304D01*
X217301721Y-115027304D01*
X217313858Y-114990245D01*
X217316529Y-114980895D01*
X217321864Y-114962226D01*
X217326253Y-114945834D01*
X217326258Y-114945814D01*
X217333258Y-114917814D01*
X217340550Y-114883741D01*
X217345550Y-114855741D01*
X217348712Y-114835753D01*
X217352712Y-114806753D01*
X217356203Y-114773372D01*
X217358203Y-114745372D01*
X217359197Y-114726593D01*
X217360197Y-114697593D01*
X217360197Y-114662407D01*
X217359197Y-114633407D01*
X217358203Y-114614628D01*
X217356203Y-114586628D01*
X217352712Y-114553247D01*
X217348712Y-114524247D01*
X217345550Y-114504259D01*
X217340550Y-114476259D01*
X217333258Y-114442186D01*
X217326258Y-114414186D01*
X217323794Y-114404984D01*
X217321864Y-114397773D01*
X217313862Y-114369769D01*
X217313858Y-114369755D01*
X217301721Y-114332696D01*
X217291721Y-114305696D01*
X217291709Y-114305664D01*
X217285784Y-114290424D01*
X217274771Y-114263392D01*
X217273227Y-114259836D01*
X217265513Y-114242071D01*
X217253513Y-114216071D01*
X217238103Y-114185842D01*
X217235419Y-114180576D01*
X217221405Y-114155551D01*
X217213769Y-114142382D01*
X217198746Y-114117344D01*
X217180072Y-114088472D01*
X217164072Y-114065472D01*
X217147021Y-114042375D01*
X217129021Y-114019375D01*
X217122105Y-114010732D01*
X217104105Y-113988732D01*
X217088307Y-113970842D01*
X217078670Y-113959928D01*
X217058670Y-113938929D01*
X217041070Y-113921329D01*
X217020071Y-113901329D01*
X217007190Y-113889955D01*
X216991268Y-113875895D01*
X216982479Y-113868704D01*
X216969309Y-113857928D01*
X216960599Y-113850958D01*
X216937626Y-113832980D01*
X216914537Y-113815934D01*
X216908783Y-113811932D01*
X216891528Y-113799928D01*
X216862650Y-113781250D01*
X216837650Y-113766250D01*
X216837617Y-113766230D01*
X216824448Y-113758594D01*
X216799423Y-113744580D01*
X216763940Y-113726492D01*
X216737938Y-113714491D01*
X216716607Y-113705228D01*
X216689575Y-113694215D01*
X216674335Y-113688290D01*
X216647308Y-113678280D01*
X216610230Y-113666137D01*
X216582226Y-113658135D01*
X216565861Y-113653754D01*
X216565828Y-113653745D01*
X216565814Y-113653742D01*
X216537814Y-113646742D01*
X216537800Y-113646739D01*
X216503752Y-113639452D01*
X216475735Y-113634449D01*
X216455738Y-113631285D01*
X216431286Y-113627913D01*
X216426753Y-113627288D01*
X216416949Y-113626262D01*
X216393371Y-113623796D01*
X216367397Y-113621941D01*
X216365372Y-113621797D01*
X216346593Y-113620803D01*
X216346575Y-113620802D01*
X216346549Y-113620801D01*
X216317637Y-113619804D01*
X216317607Y-113619803D01*
X216317593Y-113619803D01*
X216300000Y-113619500D01*
X215700000Y-113619500D01*
X215682407Y-113619803D01*
X215682393Y-113619803D01*
X215682362Y-113619804D01*
X215653450Y-113620801D01*
X215653421Y-113620802D01*
X215653407Y-113620803D01*
X215634628Y-113621797D01*
X215634600Y-113621799D01*
X215606628Y-113623796D01*
X215580295Y-113626550D01*
X215573247Y-113627288D01*
X215573240Y-113627289D01*
X215544261Y-113631285D01*
X215524264Y-113634449D01*
X215496247Y-113639452D01*
X215462199Y-113646739D01*
X215462192Y-113646740D01*
X215462186Y-113646742D01*
X215434186Y-113653742D01*
X215434138Y-113653754D01*
X215417773Y-113658135D01*
X215389769Y-113666137D01*
X215352691Y-113678280D01*
X215325664Y-113688290D01*
X215310424Y-113694215D01*
X215283392Y-113705228D01*
X215262061Y-113714491D01*
X215236059Y-113726492D01*
X215200576Y-113744580D01*
X215175551Y-113758594D01*
X215162382Y-113766230D01*
X215137344Y-113781253D01*
X215108475Y-113799926D01*
X215085462Y-113815934D01*
X215062373Y-113832980D01*
X215039400Y-113850958D01*
X215030690Y-113857928D01*
X215008740Y-113875888D01*
X214979928Y-113901329D01*
X214958929Y-113921329D01*
X214941329Y-113938929D01*
X214921329Y-113959928D01*
X214895888Y-113988740D01*
X214877928Y-114010690D01*
X214870958Y-114019400D01*
X214852980Y-114042373D01*
X214835934Y-114065462D01*
X214819926Y-114088475D01*
X214801253Y-114117344D01*
X214786230Y-114142382D01*
X214778594Y-114155551D01*
X214764580Y-114180576D01*
X214746492Y-114216059D01*
X214734491Y-114242061D01*
X214725228Y-114263392D01*
X214714215Y-114290424D01*
X214708290Y-114305664D01*
X214698280Y-114332691D01*
X214686137Y-114369769D01*
X214678135Y-114397773D01*
X214673754Y-114414138D01*
X214666739Y-114442199D01*
X214659452Y-114476247D01*
X214654449Y-114504264D01*
X214651285Y-114524261D01*
X214647289Y-114553240D01*
X214643796Y-114586628D01*
X214643389Y-114592335D01*
X214641797Y-114614628D01*
X214640803Y-114633407D01*
X214640801Y-114633450D01*
X214639803Y-114662397D01*
X213560197Y-114662397D01*
X213559197Y-114633407D01*
X213558203Y-114614628D01*
X213556203Y-114586628D01*
X213552712Y-114553247D01*
X213548712Y-114524247D01*
X213545550Y-114504259D01*
X213540550Y-114476259D01*
X213533258Y-114442186D01*
X213526258Y-114414186D01*
X213523794Y-114404984D01*
X213521864Y-114397773D01*
X213513862Y-114369769D01*
X213513858Y-114369755D01*
X213501721Y-114332696D01*
X213491721Y-114305696D01*
X213491709Y-114305664D01*
X213485784Y-114290424D01*
X213474771Y-114263392D01*
X213473227Y-114259836D01*
X213465513Y-114242071D01*
X213453513Y-114216071D01*
X213438103Y-114185842D01*
X213435419Y-114180576D01*
X213421405Y-114155551D01*
X213413769Y-114142382D01*
X213398746Y-114117344D01*
X213380072Y-114088472D01*
X213364072Y-114065472D01*
X213347021Y-114042375D01*
X213329021Y-114019375D01*
X213322105Y-114010732D01*
X213304105Y-113988732D01*
X213288307Y-113970842D01*
X213278670Y-113959928D01*
X213258670Y-113938929D01*
X213241070Y-113921329D01*
X213220071Y-113901329D01*
X213207190Y-113889955D01*
X213191268Y-113875895D01*
X213182479Y-113868704D01*
X213169309Y-113857928D01*
X213160599Y-113850958D01*
X213137626Y-113832980D01*
X213114537Y-113815934D01*
X213108783Y-113811932D01*
X213091528Y-113799928D01*
X213062650Y-113781250D01*
X213037650Y-113766250D01*
X213037617Y-113766230D01*
X213024448Y-113758594D01*
X212999423Y-113744580D01*
X212963940Y-113726492D01*
X212937938Y-113714491D01*
X212916607Y-113705228D01*
X212889575Y-113694215D01*
X212874335Y-113688290D01*
X212847308Y-113678280D01*
X212810230Y-113666137D01*
X212782226Y-113658135D01*
X212765861Y-113653754D01*
X212765828Y-113653745D01*
X212765814Y-113653742D01*
X212737814Y-113646742D01*
X212737800Y-113646739D01*
X212703752Y-113639452D01*
X212675735Y-113634449D01*
X212655738Y-113631285D01*
X212631286Y-113627913D01*
X212626753Y-113627288D01*
X212616949Y-113626262D01*
X212593371Y-113623796D01*
X212567397Y-113621941D01*
X212565372Y-113621797D01*
X212546593Y-113620803D01*
X212546575Y-113620802D01*
X212546549Y-113620801D01*
X212517637Y-113619804D01*
X212517607Y-113619803D01*
X212517593Y-113619803D01*
X212500000Y-113619500D01*
X211900000Y-113619500D01*
X211882407Y-113619803D01*
X211882393Y-113619803D01*
X211882362Y-113619804D01*
X211853450Y-113620801D01*
X211853421Y-113620802D01*
X211853407Y-113620803D01*
X211834628Y-113621797D01*
X211834600Y-113621799D01*
X211806628Y-113623796D01*
X211780295Y-113626550D01*
X211773247Y-113627288D01*
X211773240Y-113627289D01*
X211744261Y-113631285D01*
X211724264Y-113634449D01*
X211696247Y-113639452D01*
X211662199Y-113646739D01*
X211662192Y-113646740D01*
X211662186Y-113646742D01*
X211634186Y-113653742D01*
X211634138Y-113653754D01*
X211617773Y-113658135D01*
X211589769Y-113666137D01*
X211552691Y-113678280D01*
X211525664Y-113688290D01*
X211510424Y-113694215D01*
X211483392Y-113705228D01*
X211462066Y-113714489D01*
X211448155Y-113720909D01*
X211379036Y-113731124D01*
X211315367Y-113702350D01*
X211277361Y-113643721D01*
X211272200Y-113608318D01*
X211272200Y-112583650D01*
X211291885Y-112516611D01*
X211308519Y-112495969D01*
X212660620Y-111143868D01*
X212660626Y-111143862D01*
X212753704Y-111004563D01*
X212772162Y-110959999D01*
X230604341Y-110959999D01*
X230604341Y-110960000D01*
X230624936Y-111195403D01*
X230624938Y-111195413D01*
X230686094Y-111423655D01*
X230686096Y-111423659D01*
X230686097Y-111423663D01*
X230766004Y-111595023D01*
X230785965Y-111637830D01*
X230785967Y-111637834D01*
X230858514Y-111741441D01*
X230921501Y-111831396D01*
X230921506Y-111831402D01*
X231043430Y-111953326D01*
X231076915Y-112014649D01*
X231071931Y-112084341D01*
X231030059Y-112140274D01*
X230999083Y-112157189D01*
X230867669Y-112206203D01*
X230867664Y-112206206D01*
X230752455Y-112292452D01*
X230752452Y-112292455D01*
X230666206Y-112407664D01*
X230666202Y-112407671D01*
X230615908Y-112542517D01*
X230609501Y-112602116D01*
X230609500Y-112602135D01*
X230609500Y-114397870D01*
X230609501Y-114397876D01*
X230615908Y-114457483D01*
X230666202Y-114592328D01*
X230666206Y-114592335D01*
X230752452Y-114707544D01*
X230752455Y-114707547D01*
X230867664Y-114793793D01*
X230867671Y-114793797D01*
X231002517Y-114844091D01*
X231002516Y-114844091D01*
X231009444Y-114844835D01*
X231062127Y-114850500D01*
X232857872Y-114850499D01*
X232917483Y-114844091D01*
X233052331Y-114793796D01*
X233167546Y-114707546D01*
X233253796Y-114592331D01*
X233302810Y-114460916D01*
X233344681Y-114404984D01*
X233410145Y-114380566D01*
X233478418Y-114395417D01*
X233506673Y-114416569D01*
X233628599Y-114538495D01*
X233725384Y-114606265D01*
X233822165Y-114674032D01*
X233822167Y-114674033D01*
X233822170Y-114674035D01*
X234036337Y-114773903D01*
X234264592Y-114835063D01*
X234441034Y-114850500D01*
X234499999Y-114855659D01*
X234500000Y-114855659D01*
X234500001Y-114855659D01*
X234558966Y-114850500D01*
X234735408Y-114835063D01*
X234963663Y-114773903D01*
X235177830Y-114674035D01*
X235371401Y-114538495D01*
X235538495Y-114371401D01*
X235668425Y-114185842D01*
X235723002Y-114142217D01*
X235792500Y-114135023D01*
X235854855Y-114166546D01*
X235871575Y-114185842D01*
X236001500Y-114371395D01*
X236001505Y-114371401D01*
X236168599Y-114538495D01*
X236265384Y-114606265D01*
X236362165Y-114674032D01*
X236362167Y-114674033D01*
X236362170Y-114674035D01*
X236576337Y-114773903D01*
X236804592Y-114835063D01*
X236981034Y-114850500D01*
X237039999Y-114855659D01*
X237040000Y-114855659D01*
X237040001Y-114855659D01*
X237098966Y-114850500D01*
X237275408Y-114835063D01*
X237503663Y-114773903D01*
X237717830Y-114674035D01*
X237911401Y-114538495D01*
X238078495Y-114371401D01*
X238214035Y-114177830D01*
X238313903Y-113963663D01*
X238375063Y-113735408D01*
X238395659Y-113500000D01*
X238375063Y-113264592D01*
X238313903Y-113036337D01*
X238214035Y-112822171D01*
X238208425Y-112814158D01*
X238078494Y-112628597D01*
X237911402Y-112461506D01*
X237911401Y-112461505D01*
X237725405Y-112331269D01*
X237681781Y-112276692D01*
X237674588Y-112207193D01*
X237706110Y-112144839D01*
X237725405Y-112128119D01*
X237911082Y-111998105D01*
X238078105Y-111831082D01*
X238213600Y-111637578D01*
X238313429Y-111423492D01*
X238313432Y-111423486D01*
X238370636Y-111210000D01*
X237473012Y-111210000D01*
X237505925Y-111152993D01*
X237540000Y-111025826D01*
X237540000Y-110894174D01*
X237505925Y-110767007D01*
X237473012Y-110710000D01*
X238370636Y-110710000D01*
X238370635Y-110709999D01*
X238313432Y-110496513D01*
X238313429Y-110496507D01*
X238213600Y-110282422D01*
X238213599Y-110282420D01*
X238078113Y-110088926D01*
X238078108Y-110088920D01*
X237911082Y-109921894D01*
X237717578Y-109786399D01*
X237503492Y-109686570D01*
X237503486Y-109686567D01*
X237290000Y-109629364D01*
X237290000Y-110526988D01*
X237232993Y-110494075D01*
X237105826Y-110460000D01*
X236974174Y-110460000D01*
X236847007Y-110494075D01*
X236790000Y-110526988D01*
X236790000Y-109629364D01*
X236789999Y-109629364D01*
X236576513Y-109686567D01*
X236576507Y-109686570D01*
X236362422Y-109786399D01*
X236362420Y-109786400D01*
X236168926Y-109921886D01*
X236168920Y-109921891D01*
X236001891Y-110088920D01*
X236001890Y-110088922D01*
X235871880Y-110274595D01*
X235817303Y-110318219D01*
X235747804Y-110325412D01*
X235685450Y-110293890D01*
X235668730Y-110274594D01*
X235538494Y-110088597D01*
X235371402Y-109921506D01*
X235371395Y-109921501D01*
X235177834Y-109785967D01*
X235177830Y-109785965D01*
X235069410Y-109735408D01*
X234963663Y-109686097D01*
X234963659Y-109686096D01*
X234963655Y-109686094D01*
X234735413Y-109624938D01*
X234735403Y-109624936D01*
X234500001Y-109604341D01*
X234499999Y-109604341D01*
X234264596Y-109624936D01*
X234264586Y-109624938D01*
X234036344Y-109686094D01*
X234036335Y-109686098D01*
X233822171Y-109785964D01*
X233822169Y-109785965D01*
X233628597Y-109921505D01*
X233461505Y-110088597D01*
X233331575Y-110274158D01*
X233276998Y-110317783D01*
X233207500Y-110324977D01*
X233145145Y-110293454D01*
X233128425Y-110274158D01*
X232998494Y-110088597D01*
X232831402Y-109921506D01*
X232831395Y-109921501D01*
X232637834Y-109785967D01*
X232637830Y-109785965D01*
X232529410Y-109735408D01*
X232423663Y-109686097D01*
X232423659Y-109686096D01*
X232423655Y-109686094D01*
X232195413Y-109624938D01*
X232195403Y-109624936D01*
X231960001Y-109604341D01*
X231959999Y-109604341D01*
X231724596Y-109624936D01*
X231724586Y-109624938D01*
X231496344Y-109686094D01*
X231496335Y-109686098D01*
X231282171Y-109785964D01*
X231282169Y-109785965D01*
X231088597Y-109921505D01*
X230921505Y-110088597D01*
X230785965Y-110282169D01*
X230785964Y-110282171D01*
X230686098Y-110496335D01*
X230686094Y-110496344D01*
X230624938Y-110724586D01*
X230624936Y-110724596D01*
X230604341Y-110959999D01*
X212772162Y-110959999D01*
X212785811Y-110927046D01*
X212829651Y-110872644D01*
X212894583Y-110851031D01*
X212894576Y-110850900D01*
X212894571Y-110850854D01*
X212894573Y-110850853D01*
X212894564Y-110850676D01*
X212895857Y-110850606D01*
X212895944Y-110850578D01*
X212896620Y-110850565D01*
X212897857Y-110850499D01*
X212897872Y-110850499D01*
X212957483Y-110844091D01*
X213092331Y-110793796D01*
X213207546Y-110707546D01*
X213293796Y-110592331D01*
X213343002Y-110460401D01*
X213384872Y-110404468D01*
X213450337Y-110380050D01*
X213518610Y-110394901D01*
X213546865Y-110416053D01*
X213668917Y-110538105D01*
X213862421Y-110673600D01*
X214076507Y-110773429D01*
X214076516Y-110773433D01*
X214290000Y-110830634D01*
X214290000Y-109933012D01*
X214347007Y-109965925D01*
X214474174Y-110000000D01*
X214605826Y-110000000D01*
X214732993Y-109965925D01*
X214790000Y-109933012D01*
X214790000Y-110830633D01*
X215003483Y-110773433D01*
X215003492Y-110773429D01*
X215217578Y-110673600D01*
X215411082Y-110538105D01*
X215578105Y-110371082D01*
X215713600Y-110177578D01*
X215813429Y-109963492D01*
X215813432Y-109963486D01*
X215870636Y-109750000D01*
X214973012Y-109750000D01*
X215005925Y-109692993D01*
X215040000Y-109565826D01*
X215040000Y-109434174D01*
X215005925Y-109307007D01*
X214973012Y-109250000D01*
X215870636Y-109250000D01*
X215870635Y-109249999D01*
X215813432Y-109036513D01*
X215813429Y-109036507D01*
X215713600Y-108822422D01*
X215713599Y-108822420D01*
X215578113Y-108628926D01*
X215578108Y-108628920D01*
X215411082Y-108461894D01*
X215217578Y-108326399D01*
X215025607Y-108236882D01*
X214973168Y-108190710D01*
X214954016Y-108123516D01*
X214974232Y-108056635D01*
X215027397Y-108011300D01*
X215078012Y-108000500D01*
X217920804Y-108000500D01*
X217987843Y-108020185D01*
G37*
%TD.AperFunction*%
%TD*%
M02*
