%TF.GenerationSoftware,KiCad,Pcbnew,8.0.7*%
%TF.CreationDate,2025-01-08T21:55:33-07:00*%
%TF.ProjectId,Hat PCB,48617420-5043-4422-9e6b-696361645f70,rev?*%
%TF.SameCoordinates,Original*%
%TF.FileFunction,Legend,Top*%
%TF.FilePolarity,Positive*%
%FSLAX46Y46*%
G04 Gerber Fmt 4.6, Leading zero omitted, Abs format (unit mm)*
G04 Created by KiCad (PCBNEW 8.0.7) date 2025-01-08 21:55:33*
%MOMM*%
%LPD*%
G01*
G04 APERTURE LIST*
%ADD10C,0.100000*%
%ADD11C,0.150000*%
%ADD12C,0.120000*%
%ADD13C,0.200000*%
G04 APERTURE END LIST*
D10*
X240372419Y-113696115D02*
X239372419Y-113696115D01*
X240277180Y-112648497D02*
X240324800Y-112696116D01*
X240324800Y-112696116D02*
X240372419Y-112838973D01*
X240372419Y-112838973D02*
X240372419Y-112934211D01*
X240372419Y-112934211D02*
X240324800Y-113077068D01*
X240324800Y-113077068D02*
X240229561Y-113172306D01*
X240229561Y-113172306D02*
X240134323Y-113219925D01*
X240134323Y-113219925D02*
X239943847Y-113267544D01*
X239943847Y-113267544D02*
X239800990Y-113267544D01*
X239800990Y-113267544D02*
X239610514Y-113219925D01*
X239610514Y-113219925D02*
X239515276Y-113172306D01*
X239515276Y-113172306D02*
X239420038Y-113077068D01*
X239420038Y-113077068D02*
X239372419Y-112934211D01*
X239372419Y-112934211D02*
X239372419Y-112838973D01*
X239372419Y-112838973D02*
X239420038Y-112696116D01*
X239420038Y-112696116D02*
X239467657Y-112648497D01*
X240324800Y-112267544D02*
X240372419Y-112124687D01*
X240372419Y-112124687D02*
X240372419Y-111886592D01*
X240372419Y-111886592D02*
X240324800Y-111791354D01*
X240324800Y-111791354D02*
X240277180Y-111743735D01*
X240277180Y-111743735D02*
X240181942Y-111696116D01*
X240181942Y-111696116D02*
X240086704Y-111696116D01*
X240086704Y-111696116D02*
X239991466Y-111743735D01*
X239991466Y-111743735D02*
X239943847Y-111791354D01*
X239943847Y-111791354D02*
X239896228Y-111886592D01*
X239896228Y-111886592D02*
X239848609Y-112077068D01*
X239848609Y-112077068D02*
X239800990Y-112172306D01*
X239800990Y-112172306D02*
X239753371Y-112219925D01*
X239753371Y-112219925D02*
X239658133Y-112267544D01*
X239658133Y-112267544D02*
X239562895Y-112267544D01*
X239562895Y-112267544D02*
X239467657Y-112219925D01*
X239467657Y-112219925D02*
X239420038Y-112172306D01*
X239420038Y-112172306D02*
X239372419Y-112077068D01*
X239372419Y-112077068D02*
X239372419Y-111838973D01*
X239372419Y-111838973D02*
X239420038Y-111696116D01*
X240372419Y-111267544D02*
X239372419Y-111267544D01*
X239372419Y-111267544D02*
X239372419Y-110886592D01*
X239372419Y-110886592D02*
X239420038Y-110791354D01*
X239420038Y-110791354D02*
X239467657Y-110743735D01*
X239467657Y-110743735D02*
X239562895Y-110696116D01*
X239562895Y-110696116D02*
X239705752Y-110696116D01*
X239705752Y-110696116D02*
X239800990Y-110743735D01*
X239800990Y-110743735D02*
X239848609Y-110791354D01*
X239848609Y-110791354D02*
X239896228Y-110886592D01*
X239896228Y-110886592D02*
X239896228Y-111267544D01*
X224732455Y-126782172D02*
X224732455Y-126082172D01*
X224732455Y-126082172D02*
X224899122Y-126082172D01*
X224899122Y-126082172D02*
X224999122Y-126115505D01*
X224999122Y-126115505D02*
X225065789Y-126182172D01*
X225065789Y-126182172D02*
X225099122Y-126248839D01*
X225099122Y-126248839D02*
X225132455Y-126382172D01*
X225132455Y-126382172D02*
X225132455Y-126482172D01*
X225132455Y-126482172D02*
X225099122Y-126615505D01*
X225099122Y-126615505D02*
X225065789Y-126682172D01*
X225065789Y-126682172D02*
X224999122Y-126748839D01*
X224999122Y-126748839D02*
X224899122Y-126782172D01*
X224899122Y-126782172D02*
X224732455Y-126782172D01*
X225699122Y-126748839D02*
X225632455Y-126782172D01*
X225632455Y-126782172D02*
X225499122Y-126782172D01*
X225499122Y-126782172D02*
X225432455Y-126748839D01*
X225432455Y-126748839D02*
X225399122Y-126682172D01*
X225399122Y-126682172D02*
X225399122Y-126415505D01*
X225399122Y-126415505D02*
X225432455Y-126348839D01*
X225432455Y-126348839D02*
X225499122Y-126315505D01*
X225499122Y-126315505D02*
X225632455Y-126315505D01*
X225632455Y-126315505D02*
X225699122Y-126348839D01*
X225699122Y-126348839D02*
X225732455Y-126415505D01*
X225732455Y-126415505D02*
X225732455Y-126482172D01*
X225732455Y-126482172D02*
X225399122Y-126548839D01*
X225999122Y-126748839D02*
X226065789Y-126782172D01*
X226065789Y-126782172D02*
X226199122Y-126782172D01*
X226199122Y-126782172D02*
X226265789Y-126748839D01*
X226265789Y-126748839D02*
X226299122Y-126682172D01*
X226299122Y-126682172D02*
X226299122Y-126648839D01*
X226299122Y-126648839D02*
X226265789Y-126582172D01*
X226265789Y-126582172D02*
X226199122Y-126548839D01*
X226199122Y-126548839D02*
X226099122Y-126548839D01*
X226099122Y-126548839D02*
X226032455Y-126515505D01*
X226032455Y-126515505D02*
X225999122Y-126448839D01*
X225999122Y-126448839D02*
X225999122Y-126415505D01*
X225999122Y-126415505D02*
X226032455Y-126348839D01*
X226032455Y-126348839D02*
X226099122Y-126315505D01*
X226099122Y-126315505D02*
X226199122Y-126315505D01*
X226199122Y-126315505D02*
X226265789Y-126348839D01*
X226599122Y-126782172D02*
X226599122Y-126315505D01*
X226599122Y-126082172D02*
X226565789Y-126115505D01*
X226565789Y-126115505D02*
X226599122Y-126148839D01*
X226599122Y-126148839D02*
X226632456Y-126115505D01*
X226632456Y-126115505D02*
X226599122Y-126082172D01*
X226599122Y-126082172D02*
X226599122Y-126148839D01*
X227232455Y-126315505D02*
X227232455Y-126882172D01*
X227232455Y-126882172D02*
X227199122Y-126948839D01*
X227199122Y-126948839D02*
X227165789Y-126982172D01*
X227165789Y-126982172D02*
X227099122Y-127015505D01*
X227099122Y-127015505D02*
X226999122Y-127015505D01*
X226999122Y-127015505D02*
X226932455Y-126982172D01*
X227232455Y-126748839D02*
X227165789Y-126782172D01*
X227165789Y-126782172D02*
X227032455Y-126782172D01*
X227032455Y-126782172D02*
X226965789Y-126748839D01*
X226965789Y-126748839D02*
X226932455Y-126715505D01*
X226932455Y-126715505D02*
X226899122Y-126648839D01*
X226899122Y-126648839D02*
X226899122Y-126448839D01*
X226899122Y-126448839D02*
X226932455Y-126382172D01*
X226932455Y-126382172D02*
X226965789Y-126348839D01*
X226965789Y-126348839D02*
X227032455Y-126315505D01*
X227032455Y-126315505D02*
X227165789Y-126315505D01*
X227165789Y-126315505D02*
X227232455Y-126348839D01*
X227565788Y-126315505D02*
X227565788Y-126782172D01*
X227565788Y-126382172D02*
X227599122Y-126348839D01*
X227599122Y-126348839D02*
X227665788Y-126315505D01*
X227665788Y-126315505D02*
X227765788Y-126315505D01*
X227765788Y-126315505D02*
X227832455Y-126348839D01*
X227832455Y-126348839D02*
X227865788Y-126415505D01*
X227865788Y-126415505D02*
X227865788Y-126782172D01*
X228465788Y-126748839D02*
X228399121Y-126782172D01*
X228399121Y-126782172D02*
X228265788Y-126782172D01*
X228265788Y-126782172D02*
X228199121Y-126748839D01*
X228199121Y-126748839D02*
X228165788Y-126682172D01*
X228165788Y-126682172D02*
X228165788Y-126415505D01*
X228165788Y-126415505D02*
X228199121Y-126348839D01*
X228199121Y-126348839D02*
X228265788Y-126315505D01*
X228265788Y-126315505D02*
X228399121Y-126315505D01*
X228399121Y-126315505D02*
X228465788Y-126348839D01*
X228465788Y-126348839D02*
X228499121Y-126415505D01*
X228499121Y-126415505D02*
X228499121Y-126482172D01*
X228499121Y-126482172D02*
X228165788Y-126548839D01*
X229099121Y-126782172D02*
X229099121Y-126082172D01*
X229099121Y-126748839D02*
X229032455Y-126782172D01*
X229032455Y-126782172D02*
X228899121Y-126782172D01*
X228899121Y-126782172D02*
X228832455Y-126748839D01*
X228832455Y-126748839D02*
X228799121Y-126715505D01*
X228799121Y-126715505D02*
X228765788Y-126648839D01*
X228765788Y-126648839D02*
X228765788Y-126448839D01*
X228765788Y-126448839D02*
X228799121Y-126382172D01*
X228799121Y-126382172D02*
X228832455Y-126348839D01*
X228832455Y-126348839D02*
X228899121Y-126315505D01*
X228899121Y-126315505D02*
X229032455Y-126315505D01*
X229032455Y-126315505D02*
X229099121Y-126348839D01*
X229965787Y-126782172D02*
X229965787Y-126315505D01*
X229965787Y-126082172D02*
X229932454Y-126115505D01*
X229932454Y-126115505D02*
X229965787Y-126148839D01*
X229965787Y-126148839D02*
X229999121Y-126115505D01*
X229999121Y-126115505D02*
X229965787Y-126082172D01*
X229965787Y-126082172D02*
X229965787Y-126148839D01*
X230299120Y-126315505D02*
X230299120Y-126782172D01*
X230299120Y-126382172D02*
X230332454Y-126348839D01*
X230332454Y-126348839D02*
X230399120Y-126315505D01*
X230399120Y-126315505D02*
X230499120Y-126315505D01*
X230499120Y-126315505D02*
X230565787Y-126348839D01*
X230565787Y-126348839D02*
X230599120Y-126415505D01*
X230599120Y-126415505D02*
X230599120Y-126782172D01*
X225799121Y-127909133D02*
X225799121Y-127209133D01*
X225799121Y-127209133D02*
X226032455Y-127709133D01*
X226032455Y-127709133D02*
X226265788Y-127209133D01*
X226265788Y-127209133D02*
X226265788Y-127909133D01*
X226699121Y-127909133D02*
X226632455Y-127875800D01*
X226632455Y-127875800D02*
X226599121Y-127842466D01*
X226599121Y-127842466D02*
X226565788Y-127775800D01*
X226565788Y-127775800D02*
X226565788Y-127575800D01*
X226565788Y-127575800D02*
X226599121Y-127509133D01*
X226599121Y-127509133D02*
X226632455Y-127475800D01*
X226632455Y-127475800D02*
X226699121Y-127442466D01*
X226699121Y-127442466D02*
X226799121Y-127442466D01*
X226799121Y-127442466D02*
X226865788Y-127475800D01*
X226865788Y-127475800D02*
X226899121Y-127509133D01*
X226899121Y-127509133D02*
X226932455Y-127575800D01*
X226932455Y-127575800D02*
X226932455Y-127775800D01*
X226932455Y-127775800D02*
X226899121Y-127842466D01*
X226899121Y-127842466D02*
X226865788Y-127875800D01*
X226865788Y-127875800D02*
X226799121Y-127909133D01*
X226799121Y-127909133D02*
X226699121Y-127909133D01*
X227232454Y-127442466D02*
X227232454Y-127909133D01*
X227232454Y-127509133D02*
X227265788Y-127475800D01*
X227265788Y-127475800D02*
X227332454Y-127442466D01*
X227332454Y-127442466D02*
X227432454Y-127442466D01*
X227432454Y-127442466D02*
X227499121Y-127475800D01*
X227499121Y-127475800D02*
X227532454Y-127542466D01*
X227532454Y-127542466D02*
X227532454Y-127909133D01*
X227765787Y-127442466D02*
X228032454Y-127442466D01*
X227865787Y-127209133D02*
X227865787Y-127809133D01*
X227865787Y-127809133D02*
X227899121Y-127875800D01*
X227899121Y-127875800D02*
X227965787Y-127909133D01*
X227965787Y-127909133D02*
X228032454Y-127909133D01*
X228565787Y-127909133D02*
X228565787Y-127542466D01*
X228565787Y-127542466D02*
X228532454Y-127475800D01*
X228532454Y-127475800D02*
X228465787Y-127442466D01*
X228465787Y-127442466D02*
X228332454Y-127442466D01*
X228332454Y-127442466D02*
X228265787Y-127475800D01*
X228565787Y-127875800D02*
X228499121Y-127909133D01*
X228499121Y-127909133D02*
X228332454Y-127909133D01*
X228332454Y-127909133D02*
X228265787Y-127875800D01*
X228265787Y-127875800D02*
X228232454Y-127809133D01*
X228232454Y-127809133D02*
X228232454Y-127742466D01*
X228232454Y-127742466D02*
X228265787Y-127675800D01*
X228265787Y-127675800D02*
X228332454Y-127642466D01*
X228332454Y-127642466D02*
X228499121Y-127642466D01*
X228499121Y-127642466D02*
X228565787Y-127609133D01*
X228899120Y-127442466D02*
X228899120Y-127909133D01*
X228899120Y-127509133D02*
X228932454Y-127475800D01*
X228932454Y-127475800D02*
X228999120Y-127442466D01*
X228999120Y-127442466D02*
X229099120Y-127442466D01*
X229099120Y-127442466D02*
X229165787Y-127475800D01*
X229165787Y-127475800D02*
X229199120Y-127542466D01*
X229199120Y-127542466D02*
X229199120Y-127909133D01*
X229832453Y-127909133D02*
X229832453Y-127542466D01*
X229832453Y-127542466D02*
X229799120Y-127475800D01*
X229799120Y-127475800D02*
X229732453Y-127442466D01*
X229732453Y-127442466D02*
X229599120Y-127442466D01*
X229599120Y-127442466D02*
X229532453Y-127475800D01*
X229832453Y-127875800D02*
X229765787Y-127909133D01*
X229765787Y-127909133D02*
X229599120Y-127909133D01*
X229599120Y-127909133D02*
X229532453Y-127875800D01*
X229532453Y-127875800D02*
X229499120Y-127809133D01*
X229499120Y-127809133D02*
X229499120Y-127742466D01*
X229499120Y-127742466D02*
X229532453Y-127675800D01*
X229532453Y-127675800D02*
X229599120Y-127642466D01*
X229599120Y-127642466D02*
X229765787Y-127642466D01*
X229765787Y-127642466D02*
X229832453Y-127609133D01*
X232000000Y-127000000D02*
X231500000Y-126000000D01*
D11*
X231575000Y-127000000D02*
G75*
G02*
X231425000Y-127000000I-75000J0D01*
G01*
X231425000Y-127000000D02*
G75*
G02*
X231575000Y-127000000I75000J0D01*
G01*
D10*
X231500000Y-126000000D02*
X231000000Y-127000000D01*
X231500000Y-128000000D02*
X232000000Y-127000000D01*
X231500000Y-128000000D02*
X231000000Y-127000000D01*
D11*
X230713095Y-121449819D02*
X230713095Y-122259342D01*
X230713095Y-122259342D02*
X230760714Y-122354580D01*
X230760714Y-122354580D02*
X230808333Y-122402200D01*
X230808333Y-122402200D02*
X230903571Y-122449819D01*
X230903571Y-122449819D02*
X231094047Y-122449819D01*
X231094047Y-122449819D02*
X231189285Y-122402200D01*
X231189285Y-122402200D02*
X231236904Y-122354580D01*
X231236904Y-122354580D02*
X231284523Y-122259342D01*
X231284523Y-122259342D02*
X231284523Y-121449819D01*
X232236904Y-121449819D02*
X231760714Y-121449819D01*
X231760714Y-121449819D02*
X231713095Y-121926009D01*
X231713095Y-121926009D02*
X231760714Y-121878390D01*
X231760714Y-121878390D02*
X231855952Y-121830771D01*
X231855952Y-121830771D02*
X232094047Y-121830771D01*
X232094047Y-121830771D02*
X232189285Y-121878390D01*
X232189285Y-121878390D02*
X232236904Y-121926009D01*
X232236904Y-121926009D02*
X232284523Y-122021247D01*
X232284523Y-122021247D02*
X232284523Y-122259342D01*
X232284523Y-122259342D02*
X232236904Y-122354580D01*
X232236904Y-122354580D02*
X232189285Y-122402200D01*
X232189285Y-122402200D02*
X232094047Y-122449819D01*
X232094047Y-122449819D02*
X231855952Y-122449819D01*
X231855952Y-122449819D02*
X231760714Y-122402200D01*
X231760714Y-122402200D02*
X231713095Y-122354580D01*
X221954819Y-120511904D02*
X222764342Y-120511904D01*
X222764342Y-120511904D02*
X222859580Y-120464285D01*
X222859580Y-120464285D02*
X222907200Y-120416666D01*
X222907200Y-120416666D02*
X222954819Y-120321428D01*
X222954819Y-120321428D02*
X222954819Y-120130952D01*
X222954819Y-120130952D02*
X222907200Y-120035714D01*
X222907200Y-120035714D02*
X222859580Y-119988095D01*
X222859580Y-119988095D02*
X222764342Y-119940476D01*
X222764342Y-119940476D02*
X221954819Y-119940476D01*
X222288152Y-119035714D02*
X222954819Y-119035714D01*
X221907200Y-119273809D02*
X222621485Y-119511904D01*
X222621485Y-119511904D02*
X222621485Y-118892857D01*
X236688095Y-116254819D02*
X236688095Y-117064342D01*
X236688095Y-117064342D02*
X236735714Y-117159580D01*
X236735714Y-117159580D02*
X236783333Y-117207200D01*
X236783333Y-117207200D02*
X236878571Y-117254819D01*
X236878571Y-117254819D02*
X237069047Y-117254819D01*
X237069047Y-117254819D02*
X237164285Y-117207200D01*
X237164285Y-117207200D02*
X237211904Y-117159580D01*
X237211904Y-117159580D02*
X237259523Y-117064342D01*
X237259523Y-117064342D02*
X237259523Y-116254819D01*
X238259523Y-117254819D02*
X237688095Y-117254819D01*
X237973809Y-117254819D02*
X237973809Y-116254819D01*
X237973809Y-116254819D02*
X237878571Y-116397676D01*
X237878571Y-116397676D02*
X237783333Y-116492914D01*
X237783333Y-116492914D02*
X237688095Y-116540533D01*
X212666667Y-129407200D02*
X212809524Y-129454819D01*
X212809524Y-129454819D02*
X213047619Y-129454819D01*
X213047619Y-129454819D02*
X213142857Y-129407200D01*
X213142857Y-129407200D02*
X213190476Y-129359580D01*
X213190476Y-129359580D02*
X213238095Y-129264342D01*
X213238095Y-129264342D02*
X213238095Y-129169104D01*
X213238095Y-129169104D02*
X213190476Y-129073866D01*
X213190476Y-129073866D02*
X213142857Y-129026247D01*
X213142857Y-129026247D02*
X213047619Y-128978628D01*
X213047619Y-128978628D02*
X212857143Y-128931009D01*
X212857143Y-128931009D02*
X212761905Y-128883390D01*
X212761905Y-128883390D02*
X212714286Y-128835771D01*
X212714286Y-128835771D02*
X212666667Y-128740533D01*
X212666667Y-128740533D02*
X212666667Y-128645295D01*
X212666667Y-128645295D02*
X212714286Y-128550057D01*
X212714286Y-128550057D02*
X212761905Y-128502438D01*
X212761905Y-128502438D02*
X212857143Y-128454819D01*
X212857143Y-128454819D02*
X213095238Y-128454819D01*
X213095238Y-128454819D02*
X213238095Y-128502438D01*
X213571429Y-128454819D02*
X213809524Y-129454819D01*
X213809524Y-129454819D02*
X214000000Y-128740533D01*
X214000000Y-128740533D02*
X214190476Y-129454819D01*
X214190476Y-129454819D02*
X214428572Y-128454819D01*
X215333333Y-129454819D02*
X214761905Y-129454819D01*
X215047619Y-129454819D02*
X215047619Y-128454819D01*
X215047619Y-128454819D02*
X214952381Y-128597676D01*
X214952381Y-128597676D02*
X214857143Y-128692914D01*
X214857143Y-128692914D02*
X214761905Y-128740533D01*
X223920833Y-123604819D02*
X223587500Y-123128628D01*
X223349405Y-123604819D02*
X223349405Y-122604819D01*
X223349405Y-122604819D02*
X223730357Y-122604819D01*
X223730357Y-122604819D02*
X223825595Y-122652438D01*
X223825595Y-122652438D02*
X223873214Y-122700057D01*
X223873214Y-122700057D02*
X223920833Y-122795295D01*
X223920833Y-122795295D02*
X223920833Y-122938152D01*
X223920833Y-122938152D02*
X223873214Y-123033390D01*
X223873214Y-123033390D02*
X223825595Y-123081009D01*
X223825595Y-123081009D02*
X223730357Y-123128628D01*
X223730357Y-123128628D02*
X223349405Y-123128628D01*
X224254167Y-122604819D02*
X224920833Y-122604819D01*
X224920833Y-122604819D02*
X224492262Y-123604819D01*
X238283333Y-124604819D02*
X237950000Y-124128628D01*
X237711905Y-124604819D02*
X237711905Y-123604819D01*
X237711905Y-123604819D02*
X238092857Y-123604819D01*
X238092857Y-123604819D02*
X238188095Y-123652438D01*
X238188095Y-123652438D02*
X238235714Y-123700057D01*
X238235714Y-123700057D02*
X238283333Y-123795295D01*
X238283333Y-123795295D02*
X238283333Y-123938152D01*
X238283333Y-123938152D02*
X238235714Y-124033390D01*
X238235714Y-124033390D02*
X238188095Y-124081009D01*
X238188095Y-124081009D02*
X238092857Y-124128628D01*
X238092857Y-124128628D02*
X237711905Y-124128628D01*
X239140476Y-123938152D02*
X239140476Y-124604819D01*
X238902381Y-123557200D02*
X238664286Y-124271485D01*
X238664286Y-124271485D02*
X239283333Y-124271485D01*
X218920833Y-125604819D02*
X218587500Y-125128628D01*
X218349405Y-125604819D02*
X218349405Y-124604819D01*
X218349405Y-124604819D02*
X218730357Y-124604819D01*
X218730357Y-124604819D02*
X218825595Y-124652438D01*
X218825595Y-124652438D02*
X218873214Y-124700057D01*
X218873214Y-124700057D02*
X218920833Y-124795295D01*
X218920833Y-124795295D02*
X218920833Y-124938152D01*
X218920833Y-124938152D02*
X218873214Y-125033390D01*
X218873214Y-125033390D02*
X218825595Y-125081009D01*
X218825595Y-125081009D02*
X218730357Y-125128628D01*
X218730357Y-125128628D02*
X218349405Y-125128628D01*
X219254167Y-124604819D02*
X219873214Y-124604819D01*
X219873214Y-124604819D02*
X219539881Y-124985771D01*
X219539881Y-124985771D02*
X219682738Y-124985771D01*
X219682738Y-124985771D02*
X219777976Y-125033390D01*
X219777976Y-125033390D02*
X219825595Y-125081009D01*
X219825595Y-125081009D02*
X219873214Y-125176247D01*
X219873214Y-125176247D02*
X219873214Y-125414342D01*
X219873214Y-125414342D02*
X219825595Y-125509580D01*
X219825595Y-125509580D02*
X219777976Y-125557200D01*
X219777976Y-125557200D02*
X219682738Y-125604819D01*
X219682738Y-125604819D02*
X219397024Y-125604819D01*
X219397024Y-125604819D02*
X219301786Y-125557200D01*
X219301786Y-125557200D02*
X219254167Y-125509580D01*
X221133333Y-115334819D02*
X220800000Y-114858628D01*
X220561905Y-115334819D02*
X220561905Y-114334819D01*
X220561905Y-114334819D02*
X220942857Y-114334819D01*
X220942857Y-114334819D02*
X221038095Y-114382438D01*
X221038095Y-114382438D02*
X221085714Y-114430057D01*
X221085714Y-114430057D02*
X221133333Y-114525295D01*
X221133333Y-114525295D02*
X221133333Y-114668152D01*
X221133333Y-114668152D02*
X221085714Y-114763390D01*
X221085714Y-114763390D02*
X221038095Y-114811009D01*
X221038095Y-114811009D02*
X220942857Y-114858628D01*
X220942857Y-114858628D02*
X220561905Y-114858628D01*
X221514286Y-114430057D02*
X221561905Y-114382438D01*
X221561905Y-114382438D02*
X221657143Y-114334819D01*
X221657143Y-114334819D02*
X221895238Y-114334819D01*
X221895238Y-114334819D02*
X221990476Y-114382438D01*
X221990476Y-114382438D02*
X222038095Y-114430057D01*
X222038095Y-114430057D02*
X222085714Y-114525295D01*
X222085714Y-114525295D02*
X222085714Y-114620533D01*
X222085714Y-114620533D02*
X222038095Y-114763390D01*
X222038095Y-114763390D02*
X221466667Y-115334819D01*
X221466667Y-115334819D02*
X222085714Y-115334819D01*
X221133333Y-112384819D02*
X220800000Y-111908628D01*
X220561905Y-112384819D02*
X220561905Y-111384819D01*
X220561905Y-111384819D02*
X220942857Y-111384819D01*
X220942857Y-111384819D02*
X221038095Y-111432438D01*
X221038095Y-111432438D02*
X221085714Y-111480057D01*
X221085714Y-111480057D02*
X221133333Y-111575295D01*
X221133333Y-111575295D02*
X221133333Y-111718152D01*
X221133333Y-111718152D02*
X221085714Y-111813390D01*
X221085714Y-111813390D02*
X221038095Y-111861009D01*
X221038095Y-111861009D02*
X220942857Y-111908628D01*
X220942857Y-111908628D02*
X220561905Y-111908628D01*
X222085714Y-112384819D02*
X221514286Y-112384819D01*
X221800000Y-112384819D02*
X221800000Y-111384819D01*
X221800000Y-111384819D02*
X221704762Y-111527676D01*
X221704762Y-111527676D02*
X221609524Y-111622914D01*
X221609524Y-111622914D02*
X221514286Y-111670533D01*
X229050057Y-109595238D02*
X229002438Y-109690476D01*
X229002438Y-109690476D02*
X228907200Y-109785714D01*
X228907200Y-109785714D02*
X228764342Y-109928571D01*
X228764342Y-109928571D02*
X228716723Y-110023809D01*
X228716723Y-110023809D02*
X228716723Y-110119047D01*
X228954819Y-110071428D02*
X228907200Y-110166666D01*
X228907200Y-110166666D02*
X228811961Y-110261904D01*
X228811961Y-110261904D02*
X228621485Y-110309523D01*
X228621485Y-110309523D02*
X228288152Y-110309523D01*
X228288152Y-110309523D02*
X228097676Y-110261904D01*
X228097676Y-110261904D02*
X228002438Y-110166666D01*
X228002438Y-110166666D02*
X227954819Y-110071428D01*
X227954819Y-110071428D02*
X227954819Y-109880952D01*
X227954819Y-109880952D02*
X228002438Y-109785714D01*
X228002438Y-109785714D02*
X228097676Y-109690476D01*
X228097676Y-109690476D02*
X228288152Y-109642857D01*
X228288152Y-109642857D02*
X228621485Y-109642857D01*
X228621485Y-109642857D02*
X228811961Y-109690476D01*
X228811961Y-109690476D02*
X228907200Y-109785714D01*
X228907200Y-109785714D02*
X228954819Y-109880952D01*
X228954819Y-109880952D02*
X228954819Y-110071428D01*
X228954819Y-108690476D02*
X228954819Y-109261904D01*
X228954819Y-108976190D02*
X227954819Y-108976190D01*
X227954819Y-108976190D02*
X228097676Y-109071428D01*
X228097676Y-109071428D02*
X228192914Y-109166666D01*
X228192914Y-109166666D02*
X228240533Y-109261904D01*
X222784819Y-109833333D02*
X223499104Y-109833333D01*
X223499104Y-109833333D02*
X223641961Y-109880952D01*
X223641961Y-109880952D02*
X223737200Y-109976190D01*
X223737200Y-109976190D02*
X223784819Y-110119047D01*
X223784819Y-110119047D02*
X223784819Y-110214285D01*
X222784819Y-108880952D02*
X222784819Y-109357142D01*
X222784819Y-109357142D02*
X223261009Y-109404761D01*
X223261009Y-109404761D02*
X223213390Y-109357142D01*
X223213390Y-109357142D02*
X223165771Y-109261904D01*
X223165771Y-109261904D02*
X223165771Y-109023809D01*
X223165771Y-109023809D02*
X223213390Y-108928571D01*
X223213390Y-108928571D02*
X223261009Y-108880952D01*
X223261009Y-108880952D02*
X223356247Y-108833333D01*
X223356247Y-108833333D02*
X223594342Y-108833333D01*
X223594342Y-108833333D02*
X223689580Y-108880952D01*
X223689580Y-108880952D02*
X223737200Y-108928571D01*
X223737200Y-108928571D02*
X223784819Y-109023809D01*
X223784819Y-109023809D02*
X223784819Y-109261904D01*
X223784819Y-109261904D02*
X223737200Y-109357142D01*
X223737200Y-109357142D02*
X223689580Y-109404761D01*
X234166666Y-107954819D02*
X234166666Y-108669104D01*
X234166666Y-108669104D02*
X234119047Y-108811961D01*
X234119047Y-108811961D02*
X234023809Y-108907200D01*
X234023809Y-108907200D02*
X233880952Y-108954819D01*
X233880952Y-108954819D02*
X233785714Y-108954819D01*
X235071428Y-108288152D02*
X235071428Y-108954819D01*
X234833333Y-107907200D02*
X234595238Y-108621485D01*
X234595238Y-108621485D02*
X235214285Y-108621485D01*
X217589819Y-119208333D02*
X218304104Y-119208333D01*
X218304104Y-119208333D02*
X218446961Y-119255952D01*
X218446961Y-119255952D02*
X218542200Y-119351190D01*
X218542200Y-119351190D02*
X218589819Y-119494047D01*
X218589819Y-119494047D02*
X218589819Y-119589285D01*
X217589819Y-118827380D02*
X217589819Y-118208333D01*
X217589819Y-118208333D02*
X217970771Y-118541666D01*
X217970771Y-118541666D02*
X217970771Y-118398809D01*
X217970771Y-118398809D02*
X218018390Y-118303571D01*
X218018390Y-118303571D02*
X218066009Y-118255952D01*
X218066009Y-118255952D02*
X218161247Y-118208333D01*
X218161247Y-118208333D02*
X218399342Y-118208333D01*
X218399342Y-118208333D02*
X218494580Y-118255952D01*
X218494580Y-118255952D02*
X218542200Y-118303571D01*
X218542200Y-118303571D02*
X218589819Y-118398809D01*
X218589819Y-118398809D02*
X218589819Y-118684523D01*
X218589819Y-118684523D02*
X218542200Y-118779761D01*
X218542200Y-118779761D02*
X218494580Y-118827380D01*
X241116666Y-122284819D02*
X241116666Y-122999104D01*
X241116666Y-122999104D02*
X241069047Y-123141961D01*
X241069047Y-123141961D02*
X240973809Y-123237200D01*
X240973809Y-123237200D02*
X240830952Y-123284819D01*
X240830952Y-123284819D02*
X240735714Y-123284819D01*
X241545238Y-122380057D02*
X241592857Y-122332438D01*
X241592857Y-122332438D02*
X241688095Y-122284819D01*
X241688095Y-122284819D02*
X241926190Y-122284819D01*
X241926190Y-122284819D02*
X242021428Y-122332438D01*
X242021428Y-122332438D02*
X242069047Y-122380057D01*
X242069047Y-122380057D02*
X242116666Y-122475295D01*
X242116666Y-122475295D02*
X242116666Y-122570533D01*
X242116666Y-122570533D02*
X242069047Y-122713390D01*
X242069047Y-122713390D02*
X241497619Y-123284819D01*
X241497619Y-123284819D02*
X242116666Y-123284819D01*
X209124819Y-109833333D02*
X209839104Y-109833333D01*
X209839104Y-109833333D02*
X209981961Y-109880952D01*
X209981961Y-109880952D02*
X210077200Y-109976190D01*
X210077200Y-109976190D02*
X210124819Y-110119047D01*
X210124819Y-110119047D02*
X210124819Y-110214285D01*
X210124819Y-108833333D02*
X210124819Y-109404761D01*
X210124819Y-109119047D02*
X209124819Y-109119047D01*
X209124819Y-109119047D02*
X209267676Y-109214285D01*
X209267676Y-109214285D02*
X209362914Y-109309523D01*
X209362914Y-109309523D02*
X209410533Y-109404761D01*
X230761905Y-115454819D02*
X230761905Y-114454819D01*
X230761905Y-114454819D02*
X231000000Y-114454819D01*
X231000000Y-114454819D02*
X231142857Y-114502438D01*
X231142857Y-114502438D02*
X231238095Y-114597676D01*
X231238095Y-114597676D02*
X231285714Y-114692914D01*
X231285714Y-114692914D02*
X231333333Y-114883390D01*
X231333333Y-114883390D02*
X231333333Y-115026247D01*
X231333333Y-115026247D02*
X231285714Y-115216723D01*
X231285714Y-115216723D02*
X231238095Y-115311961D01*
X231238095Y-115311961D02*
X231142857Y-115407200D01*
X231142857Y-115407200D02*
X231000000Y-115454819D01*
X231000000Y-115454819D02*
X230761905Y-115454819D01*
X231714286Y-114550057D02*
X231761905Y-114502438D01*
X231761905Y-114502438D02*
X231857143Y-114454819D01*
X231857143Y-114454819D02*
X232095238Y-114454819D01*
X232095238Y-114454819D02*
X232190476Y-114502438D01*
X232190476Y-114502438D02*
X232238095Y-114550057D01*
X232238095Y-114550057D02*
X232285714Y-114645295D01*
X232285714Y-114645295D02*
X232285714Y-114740533D01*
X232285714Y-114740533D02*
X232238095Y-114883390D01*
X232238095Y-114883390D02*
X231666667Y-115454819D01*
X231666667Y-115454819D02*
X232285714Y-115454819D01*
X223261905Y-120604819D02*
X223261905Y-119604819D01*
X223261905Y-119604819D02*
X223500000Y-119604819D01*
X223500000Y-119604819D02*
X223642857Y-119652438D01*
X223642857Y-119652438D02*
X223738095Y-119747676D01*
X223738095Y-119747676D02*
X223785714Y-119842914D01*
X223785714Y-119842914D02*
X223833333Y-120033390D01*
X223833333Y-120033390D02*
X223833333Y-120176247D01*
X223833333Y-120176247D02*
X223785714Y-120366723D01*
X223785714Y-120366723D02*
X223738095Y-120461961D01*
X223738095Y-120461961D02*
X223642857Y-120557200D01*
X223642857Y-120557200D02*
X223500000Y-120604819D01*
X223500000Y-120604819D02*
X223261905Y-120604819D01*
X224785714Y-120604819D02*
X224214286Y-120604819D01*
X224500000Y-120604819D02*
X224500000Y-119604819D01*
X224500000Y-119604819D02*
X224404762Y-119747676D01*
X224404762Y-119747676D02*
X224309524Y-119842914D01*
X224309524Y-119842914D02*
X224214286Y-119890533D01*
X224833333Y-115359580D02*
X224785714Y-115407200D01*
X224785714Y-115407200D02*
X224642857Y-115454819D01*
X224642857Y-115454819D02*
X224547619Y-115454819D01*
X224547619Y-115454819D02*
X224404762Y-115407200D01*
X224404762Y-115407200D02*
X224309524Y-115311961D01*
X224309524Y-115311961D02*
X224261905Y-115216723D01*
X224261905Y-115216723D02*
X224214286Y-115026247D01*
X224214286Y-115026247D02*
X224214286Y-114883390D01*
X224214286Y-114883390D02*
X224261905Y-114692914D01*
X224261905Y-114692914D02*
X224309524Y-114597676D01*
X224309524Y-114597676D02*
X224404762Y-114502438D01*
X224404762Y-114502438D02*
X224547619Y-114454819D01*
X224547619Y-114454819D02*
X224642857Y-114454819D01*
X224642857Y-114454819D02*
X224785714Y-114502438D01*
X224785714Y-114502438D02*
X224833333Y-114550057D01*
X225166667Y-114454819D02*
X225833333Y-114454819D01*
X225833333Y-114454819D02*
X225404762Y-115454819D01*
X224039580Y-124716666D02*
X224087200Y-124764285D01*
X224087200Y-124764285D02*
X224134819Y-124907142D01*
X224134819Y-124907142D02*
X224134819Y-125002380D01*
X224134819Y-125002380D02*
X224087200Y-125145237D01*
X224087200Y-125145237D02*
X223991961Y-125240475D01*
X223991961Y-125240475D02*
X223896723Y-125288094D01*
X223896723Y-125288094D02*
X223706247Y-125335713D01*
X223706247Y-125335713D02*
X223563390Y-125335713D01*
X223563390Y-125335713D02*
X223372914Y-125288094D01*
X223372914Y-125288094D02*
X223277676Y-125240475D01*
X223277676Y-125240475D02*
X223182438Y-125145237D01*
X223182438Y-125145237D02*
X223134819Y-125002380D01*
X223134819Y-125002380D02*
X223134819Y-124907142D01*
X223134819Y-124907142D02*
X223182438Y-124764285D01*
X223182438Y-124764285D02*
X223230057Y-124716666D01*
X223134819Y-123811904D02*
X223134819Y-124288094D01*
X223134819Y-124288094D02*
X223611009Y-124335713D01*
X223611009Y-124335713D02*
X223563390Y-124288094D01*
X223563390Y-124288094D02*
X223515771Y-124192856D01*
X223515771Y-124192856D02*
X223515771Y-123954761D01*
X223515771Y-123954761D02*
X223563390Y-123859523D01*
X223563390Y-123859523D02*
X223611009Y-123811904D01*
X223611009Y-123811904D02*
X223706247Y-123764285D01*
X223706247Y-123764285D02*
X223944342Y-123764285D01*
X223944342Y-123764285D02*
X224039580Y-123811904D01*
X224039580Y-123811904D02*
X224087200Y-123859523D01*
X224087200Y-123859523D02*
X224134819Y-123954761D01*
X224134819Y-123954761D02*
X224134819Y-124192856D01*
X224134819Y-124192856D02*
X224087200Y-124288094D01*
X224087200Y-124288094D02*
X224039580Y-124335713D01*
X213383333Y-111179580D02*
X213335714Y-111227200D01*
X213335714Y-111227200D02*
X213192857Y-111274819D01*
X213192857Y-111274819D02*
X213097619Y-111274819D01*
X213097619Y-111274819D02*
X212954762Y-111227200D01*
X212954762Y-111227200D02*
X212859524Y-111131961D01*
X212859524Y-111131961D02*
X212811905Y-111036723D01*
X212811905Y-111036723D02*
X212764286Y-110846247D01*
X212764286Y-110846247D02*
X212764286Y-110703390D01*
X212764286Y-110703390D02*
X212811905Y-110512914D01*
X212811905Y-110512914D02*
X212859524Y-110417676D01*
X212859524Y-110417676D02*
X212954762Y-110322438D01*
X212954762Y-110322438D02*
X213097619Y-110274819D01*
X213097619Y-110274819D02*
X213192857Y-110274819D01*
X213192857Y-110274819D02*
X213335714Y-110322438D01*
X213335714Y-110322438D02*
X213383333Y-110370057D01*
X214240476Y-110608152D02*
X214240476Y-111274819D01*
X214002381Y-110227200D02*
X213764286Y-110941485D01*
X213764286Y-110941485D02*
X214383333Y-110941485D01*
X236489580Y-124666666D02*
X236537200Y-124714285D01*
X236537200Y-124714285D02*
X236584819Y-124857142D01*
X236584819Y-124857142D02*
X236584819Y-124952380D01*
X236584819Y-124952380D02*
X236537200Y-125095237D01*
X236537200Y-125095237D02*
X236441961Y-125190475D01*
X236441961Y-125190475D02*
X236346723Y-125238094D01*
X236346723Y-125238094D02*
X236156247Y-125285713D01*
X236156247Y-125285713D02*
X236013390Y-125285713D01*
X236013390Y-125285713D02*
X235822914Y-125238094D01*
X235822914Y-125238094D02*
X235727676Y-125190475D01*
X235727676Y-125190475D02*
X235632438Y-125095237D01*
X235632438Y-125095237D02*
X235584819Y-124952380D01*
X235584819Y-124952380D02*
X235584819Y-124857142D01*
X235584819Y-124857142D02*
X235632438Y-124714285D01*
X235632438Y-124714285D02*
X235680057Y-124666666D01*
X235584819Y-124333332D02*
X235584819Y-123714285D01*
X235584819Y-123714285D02*
X235965771Y-124047618D01*
X235965771Y-124047618D02*
X235965771Y-123904761D01*
X235965771Y-123904761D02*
X236013390Y-123809523D01*
X236013390Y-123809523D02*
X236061009Y-123761904D01*
X236061009Y-123761904D02*
X236156247Y-123714285D01*
X236156247Y-123714285D02*
X236394342Y-123714285D01*
X236394342Y-123714285D02*
X236489580Y-123761904D01*
X236489580Y-123761904D02*
X236537200Y-123809523D01*
X236537200Y-123809523D02*
X236584819Y-123904761D01*
X236584819Y-123904761D02*
X236584819Y-124190475D01*
X236584819Y-124190475D02*
X236537200Y-124285713D01*
X236537200Y-124285713D02*
X236489580Y-124333332D01*
D12*
%TO.C,U5*%
X231475000Y-121155000D02*
X233425000Y-121155000D01*
X231475000Y-121155000D02*
X229525000Y-121155000D01*
X231475000Y-116035000D02*
X233425000Y-116035000D01*
X231475000Y-116035000D02*
X229525000Y-116035000D01*
X234415000Y-121390000D02*
X233935000Y-121390000D01*
X234175000Y-121060000D01*
X234415000Y-121390000D01*
G36*
X234415000Y-121390000D02*
G01*
X233935000Y-121390000D01*
X234175000Y-121060000D01*
X234415000Y-121390000D01*
G37*
%TO.C,U4*%
X221685000Y-118250000D02*
X221685000Y-121250000D01*
X219415000Y-118250000D02*
X219415000Y-121250000D01*
X221880000Y-117730000D02*
X221600000Y-117730000D01*
X221600000Y-117450000D01*
X221880000Y-117730000D01*
G36*
X221880000Y-117730000D02*
G01*
X221600000Y-117730000D01*
X221600000Y-117450000D01*
X221880000Y-117730000D01*
G37*
%TO.C,U1*%
X238950000Y-121010000D02*
X235950000Y-121010000D01*
X238950000Y-117790000D02*
X235950000Y-117790000D01*
X239500000Y-120930000D02*
X239500000Y-120450000D01*
X239980000Y-120450000D01*
X239500000Y-120930000D01*
G36*
X239500000Y-120930000D02*
G01*
X239500000Y-120450000D01*
X239980000Y-120450000D01*
X239500000Y-120930000D01*
G37*
%TO.C,SW1*%
X209600000Y-128450000D02*
X209600000Y-125150000D01*
X209900000Y-128450000D02*
X209600000Y-128450000D01*
X212100000Y-128450000D02*
X212400000Y-128450000D01*
X212400000Y-128450000D02*
X212400000Y-125150000D01*
X209280000Y-127800000D02*
X209600000Y-127800000D01*
X208900000Y-127300000D02*
X209280000Y-127800000D01*
X208900000Y-127300000D02*
X208900000Y-126300000D01*
X208900000Y-126300000D02*
X209280000Y-125800000D01*
X209280000Y-125800000D02*
X209600000Y-125800000D01*
X209600000Y-125150000D02*
X209900000Y-125150000D01*
X212400000Y-125150000D02*
X212100000Y-125150000D01*
%TO.C,R7*%
X224314564Y-122235000D02*
X223860436Y-122235000D01*
X224314564Y-120765000D02*
X223860436Y-120765000D01*
%TO.C,R4*%
X237764564Y-123235000D02*
X237310436Y-123235000D01*
X237764564Y-121765000D02*
X237310436Y-121765000D01*
%TO.C,R3*%
X219314564Y-124235000D02*
X218860436Y-124235000D01*
X219314564Y-122765000D02*
X218860436Y-122765000D01*
%TO.C,R2*%
X221072936Y-115795000D02*
X221527064Y-115795000D01*
X221072936Y-117265000D02*
X221527064Y-117265000D01*
%TO.C,R1*%
X221072936Y-112845000D02*
X221527064Y-112845000D01*
X221072936Y-114315000D02*
X221527064Y-114315000D01*
%TO.C,Q1*%
X227210000Y-109937500D02*
X227210000Y-109287500D01*
X227210000Y-109937500D02*
X227210000Y-110587500D01*
X224090000Y-109937500D02*
X224090000Y-109287500D01*
X224090000Y-109937500D02*
X224090000Y-110587500D01*
X227490000Y-109015000D02*
X227160000Y-108775000D01*
X227490000Y-108535000D01*
X227490000Y-109015000D01*
G36*
X227490000Y-109015000D02*
G01*
X227160000Y-108775000D01*
X227490000Y-108535000D01*
X227490000Y-109015000D01*
G37*
%TO.C,J5*%
X222330000Y-108170000D02*
X222330000Y-109500000D01*
X221000000Y-108170000D02*
X222330000Y-108170000D01*
X219730000Y-108170000D02*
X217130000Y-108170000D01*
X219730000Y-108170000D02*
X219730000Y-110830000D01*
X217130000Y-108170000D02*
X217130000Y-110830000D01*
X219730000Y-110830000D02*
X217130000Y-110830000D01*
%TO.C,J4*%
X230630000Y-114830000D02*
X230630000Y-113500000D01*
X231960000Y-114830000D02*
X230630000Y-114830000D01*
X233230000Y-114830000D02*
X238370000Y-114830000D01*
X233230000Y-114830000D02*
X233230000Y-112230000D01*
X238370000Y-114830000D02*
X238370000Y-109630000D01*
X230630000Y-112230000D02*
X230630000Y-109630000D01*
X233230000Y-112230000D02*
X230630000Y-112230000D01*
X230630000Y-109630000D02*
X238370000Y-109630000D01*
D13*
%TO.C,J3*%
X209600000Y-123470000D02*
X210750000Y-123470000D01*
X209600000Y-114530000D02*
X209600000Y-123470000D01*
X210750000Y-114530000D02*
X209600000Y-114530000D01*
D12*
%TO.C,J2*%
X242780000Y-121830000D02*
X241450000Y-121830000D01*
X242780000Y-120500000D02*
X242780000Y-121830000D01*
X242780000Y-119230000D02*
X242780000Y-116630000D01*
X242780000Y-119230000D02*
X240120000Y-119230000D01*
X242780000Y-116630000D02*
X240120000Y-116630000D01*
X240120000Y-119230000D02*
X240120000Y-116630000D01*
%TO.C,J1*%
X210670000Y-110830000D02*
X210670000Y-109500000D01*
X212000000Y-110830000D02*
X210670000Y-110830000D01*
X213270000Y-110830000D02*
X215870000Y-110830000D01*
X213270000Y-110830000D02*
X213270000Y-108170000D01*
X215870000Y-110830000D02*
X215870000Y-108170000D01*
X213270000Y-108170000D02*
X215870000Y-108170000D01*
%TO.C,D2*%
X227540000Y-113685000D02*
X229460000Y-113685000D01*
X229460000Y-113685000D02*
X229460000Y-111000000D01*
X227540000Y-111000000D02*
X227540000Y-113685000D01*
%TO.C,D1*%
X225685000Y-119460000D02*
X225685000Y-117540000D01*
X225685000Y-117540000D02*
X223000000Y-117540000D01*
X223000000Y-119460000D02*
X225685000Y-119460000D01*
%TO.C,C7*%
X225288748Y-112265000D02*
X225811252Y-112265000D01*
X225288748Y-113735000D02*
X225811252Y-113735000D01*
%TO.C,C5*%
X222735000Y-124288748D02*
X222735000Y-124811252D01*
X221265000Y-124288748D02*
X221265000Y-124811252D01*
%TO.C,C4*%
X213288748Y-111765000D02*
X213811252Y-111765000D01*
X213288748Y-113235000D02*
X213811252Y-113235000D01*
%TO.C,C3*%
X235185000Y-123188748D02*
X235185000Y-123711252D01*
X233715000Y-123188748D02*
X233715000Y-123711252D01*
%TD*%
M02*
