%TF.GenerationSoftware,KiCad,Pcbnew,8.0.7*%
%TF.CreationDate,2025-01-08T21:55:33-07:00*%
%TF.ProjectId,Hat PCB,48617420-5043-4422-9e6b-696361645f70,rev?*%
%TF.SameCoordinates,Original*%
%TF.FileFunction,Paste,Top*%
%TF.FilePolarity,Positive*%
%FSLAX46Y46*%
G04 Gerber Fmt 4.6, Leading zero omitted, Abs format (unit mm)*
G04 Created by KiCad (PCBNEW 8.0.7) date 2025-01-08 21:55:33*
%MOMM*%
%LPD*%
G01*
G04 APERTURE LIST*
G04 Aperture macros list*
%AMRoundRect*
0 Rectangle with rounded corners*
0 $1 Rounding radius*
0 $2 $3 $4 $5 $6 $7 $8 $9 X,Y pos of 4 corners*
0 Add a 4 corners polygon primitive as box body*
4,1,4,$2,$3,$4,$5,$6,$7,$8,$9,$2,$3,0*
0 Add four circle primitives for the rounded corners*
1,1,$1+$1,$2,$3*
1,1,$1+$1,$4,$5*
1,1,$1+$1,$6,$7*
1,1,$1+$1,$8,$9*
0 Add four rect primitives between the rounded corners*
20,1,$1+$1,$2,$3,$4,$5,0*
20,1,$1+$1,$4,$5,$6,$7,0*
20,1,$1+$1,$6,$7,$8,$9,0*
20,1,$1+$1,$8,$9,$2,$3,0*%
G04 Aperture macros list end*
%ADD10RoundRect,0.150000X0.825000X0.150000X-0.825000X0.150000X-0.825000X-0.150000X0.825000X-0.150000X0*%
%ADD11RoundRect,0.140000X-0.140000X0.205000X-0.140000X-0.205000X0.140000X-0.205000X0.140000X0.205000X0*%
%ADD12RoundRect,0.062500X-0.062500X0.337500X-0.062500X-0.337500X0.062500X-0.337500X0.062500X0.337500X0*%
%ADD13RoundRect,0.242500X0.342500X0.242500X-0.342500X0.242500X-0.342500X-0.242500X0.342500X-0.242500X0*%
%ADD14RoundRect,0.062500X0.412500X0.062500X-0.412500X0.062500X-0.412500X-0.062500X0.412500X-0.062500X0*%
%ADD15R,1.700000X0.900000*%
%ADD16RoundRect,0.250000X0.262500X0.450000X-0.262500X0.450000X-0.262500X-0.450000X0.262500X-0.450000X0*%
%ADD17RoundRect,0.250000X-0.262500X-0.450000X0.262500X-0.450000X0.262500X0.450000X-0.262500X0.450000X0*%
%ADD18RoundRect,0.150000X-0.150000X0.587500X-0.150000X-0.587500X0.150000X-0.587500X0.150000X0.587500X0*%
%ADD19R,1.200000X0.700000*%
%ADD20R,1.200000X0.760000*%
%ADD21R,1.200000X0.800000*%
%ADD22RoundRect,0.243750X0.456250X-0.243750X0.456250X0.243750X-0.456250X0.243750X-0.456250X-0.243750X0*%
%ADD23RoundRect,0.243750X0.243750X0.456250X-0.243750X0.456250X-0.243750X-0.456250X0.243750X-0.456250X0*%
%ADD24RoundRect,0.250000X-0.250000X-0.475000X0.250000X-0.475000X0.250000X0.475000X-0.250000X0.475000X0*%
%ADD25RoundRect,0.250000X-0.475000X0.250000X-0.475000X-0.250000X0.475000X-0.250000X0.475000X0.250000X0*%
G04 APERTURE END LIST*
D10*
%TO.C,U5*%
X233950000Y-120500000D03*
X233950000Y-119230000D03*
X233950000Y-117960000D03*
X233950000Y-116690000D03*
X229000000Y-116690000D03*
X229000000Y-117960000D03*
X229000000Y-119230000D03*
X229000000Y-120500000D03*
%TD*%
D11*
%TO.C,U4*%
X220900000Y-119325000D03*
X220200000Y-119325000D03*
X220900000Y-120175000D03*
X220200000Y-120175000D03*
D12*
X221300000Y-118300000D03*
X220800000Y-118300000D03*
X220300000Y-118300000D03*
X219800000Y-118300000D03*
X219800000Y-121200000D03*
X220300000Y-121200000D03*
X220800000Y-121200000D03*
X221300000Y-121200000D03*
%TD*%
D13*
%TO.C,U1*%
X237450000Y-120000000D03*
X237450000Y-118800000D03*
D14*
X238850000Y-120150000D03*
X238850000Y-119650000D03*
X238850000Y-119150000D03*
X238850000Y-118650000D03*
X236050000Y-118650000D03*
X236050000Y-119150000D03*
X236050000Y-119650000D03*
X236050000Y-120150000D03*
%TD*%
D15*
%TO.C,SW1*%
X211000000Y-128500000D03*
X211000000Y-125100000D03*
%TD*%
D16*
%TO.C,R7*%
X225000000Y-121500000D03*
X223175000Y-121500000D03*
%TD*%
%TO.C,R4*%
X238450000Y-122500000D03*
X236625000Y-122500000D03*
%TD*%
%TO.C,R3*%
X220000000Y-123500000D03*
X218175000Y-123500000D03*
%TD*%
D17*
%TO.C,R2*%
X220387500Y-116530000D03*
X222212500Y-116530000D03*
%TD*%
%TO.C,R1*%
X220387500Y-113580000D03*
X222212500Y-113580000D03*
%TD*%
D18*
%TO.C,Q1*%
X226600000Y-109000000D03*
X224700000Y-109000000D03*
X225650000Y-110875000D03*
%TD*%
D19*
%TO.C,J3*%
X216080000Y-119500000D03*
X216080000Y-118500000D03*
D20*
X216080000Y-120520000D03*
X216080000Y-117480000D03*
D21*
X216080000Y-121750000D03*
X216080000Y-116250000D03*
%TD*%
D22*
%TO.C,D2*%
X228500000Y-112937500D03*
X228500000Y-111062500D03*
%TD*%
D23*
%TO.C,D1*%
X224937500Y-118500000D03*
X223062500Y-118500000D03*
%TD*%
D24*
%TO.C,C7*%
X224600000Y-113000000D03*
X226500000Y-113000000D03*
%TD*%
D25*
%TO.C,C5*%
X222000000Y-123600000D03*
X222000000Y-125500000D03*
%TD*%
D24*
%TO.C,C4*%
X212600000Y-112500000D03*
X214500000Y-112500000D03*
%TD*%
D25*
%TO.C,C3*%
X234450000Y-122500000D03*
X234450000Y-124400000D03*
%TD*%
M02*
