M48
; DRILL file {KiCad 8.0.7} date 2025-01-08T21:55:30-0700
; FORMAT={-:-/ absolute / inch / decimal}
; #@! TF.CreationDate,2025-01-08T21:55:30-07:00
; #@! TF.GenerationSoftware,Kicad,Pcbnew,8.0.7
; #@! TF.FileFunction,Plated,1,2,PTH
FMAT,2
INCH
; #@! TA.AperFunction,Plated,PTH,ViaDrill
T1C0.0118
; #@! TA.AperFunction,Plated,PTH,ComponentDrill
T2C0.0236
; #@! TA.AperFunction,Plated,PTH,ComponentDrill
T3C0.0394
%
G90
G05
T1
X8.2843Y-4.9852
X8.4836Y-4.4573
X8.5488Y-4.7811
X8.5495Y-4.5856
X8.563Y-4.9213
X8.6732Y-4.8062
X8.7061Y-4.975
X8.7872Y-4.6043
X8.8081Y-4.4144
X8.8769Y-4.277
X9.1839Y-4.8801
X9.265Y-4.6122
X9.4035Y-4.6477
T3
X8.3465Y-4.311
X8.4465Y-4.311
X8.6008Y-4.311
X8.7008Y-4.311
X9.1323Y-4.3685
X9.1323Y-4.4685
X9.2323Y-4.3685
X9.2323Y-4.4685
X9.3323Y-4.3685
X9.3323Y-4.4685
X9.5059Y-4.6441
X9.5059Y-4.7441
T2
G00X8.3661Y-4.515
M15
G01X8.3425Y-4.515
M16
G05
G00X8.3661Y-4.8551
M15
G01X8.3425Y-4.8551
M16
G05
G00X8.5157Y-4.515
M15
G01X8.4921Y-4.515
M16
G05
G00X8.5157Y-4.8551
M15
G01X8.4921Y-4.8551
M16
G05
M30
