%TF.GenerationSoftware,KiCad,Pcbnew,8.0.7*%
%TF.CreationDate,2025-01-03T21:58:43-07:00*%
%TF.ProjectId,Hat PCB,48617420-5043-4422-9e6b-696361645f70,rev?*%
%TF.SameCoordinates,Original*%
%TF.FileFunction,Soldermask,Top*%
%TF.FilePolarity,Negative*%
%FSLAX46Y46*%
G04 Gerber Fmt 4.6, Leading zero omitted, Abs format (unit mm)*
G04 Created by KiCad (PCBNEW 8.0.7) date 2025-01-03 21:58:43*
%MOMM*%
%LPD*%
G01*
G04 APERTURE LIST*
G04 Aperture macros list*
%AMRoundRect*
0 Rectangle with rounded corners*
0 $1 Rounding radius*
0 $2 $3 $4 $5 $6 $7 $8 $9 X,Y pos of 4 corners*
0 Add a 4 corners polygon primitive as box body*
4,1,4,$2,$3,$4,$5,$6,$7,$8,$9,$2,$3,0*
0 Add four circle primitives for the rounded corners*
1,1,$1+$1,$2,$3*
1,1,$1+$1,$4,$5*
1,1,$1+$1,$6,$7*
1,1,$1+$1,$8,$9*
0 Add four rect primitives between the rounded corners*
20,1,$1+$1,$2,$3,$4,$5,0*
20,1,$1+$1,$4,$5,$6,$7,0*
20,1,$1+$1,$6,$7,$8,$9,0*
20,1,$1+$1,$8,$9,$2,$3,0*%
G04 Aperture macros list end*
%ADD10R,1.700000X1.700000*%
%ADD11O,1.700000X1.700000*%
%ADD12RoundRect,0.135000X0.135000X0.185000X-0.135000X0.185000X-0.135000X-0.185000X0.135000X-0.185000X0*%
%ADD13RoundRect,0.135000X-0.135000X-0.185000X0.135000X-0.185000X0.135000X0.185000X-0.135000X0.185000X0*%
%ADD14RoundRect,0.250000X0.475000X-0.250000X0.475000X0.250000X-0.475000X0.250000X-0.475000X-0.250000X0*%
%ADD15RoundRect,0.250000X-0.475000X0.250000X-0.475000X-0.250000X0.475000X-0.250000X0.475000X0.250000X0*%
%ADD16RoundRect,0.062500X-0.412500X-0.062500X0.412500X-0.062500X0.412500X0.062500X-0.412500X0.062500X0*%
%ADD17R,1.450000X2.400000*%
%ADD18RoundRect,0.147500X0.147500X0.172500X-0.147500X0.172500X-0.147500X-0.172500X0.147500X-0.172500X0*%
%ADD19RoundRect,0.062500X-0.337500X-0.062500X0.337500X-0.062500X0.337500X0.062500X-0.337500X0.062500X0*%
%ADD20R,1.700000X1.400000*%
%ADD21RoundRect,0.250000X-0.250000X-0.475000X0.250000X-0.475000X0.250000X0.475000X-0.250000X0.475000X0*%
%ADD22RoundRect,0.135000X0.185000X-0.135000X0.185000X0.135000X-0.185000X0.135000X-0.185000X-0.135000X0*%
%ADD23R,1.600000X0.550000*%
%ADD24R,0.550000X1.600000*%
%ADD25RoundRect,0.175000X-0.175000X-0.425000X0.175000X-0.425000X0.175000X0.425000X-0.175000X0.425000X0*%
%ADD26RoundRect,0.190000X0.190000X0.410000X-0.190000X0.410000X-0.190000X-0.410000X0.190000X-0.410000X0*%
%ADD27RoundRect,0.200000X0.200000X0.400000X-0.200000X0.400000X-0.200000X-0.400000X0.200000X-0.400000X0*%
%ADD28RoundRect,0.175000X0.175000X0.425000X-0.175000X0.425000X-0.175000X-0.425000X0.175000X-0.425000X0*%
%ADD29RoundRect,0.190000X-0.190000X-0.410000X0.190000X-0.410000X0.190000X0.410000X-0.190000X0.410000X0*%
%ADD30RoundRect,0.200000X-0.200000X-0.400000X0.200000X-0.400000X0.200000X0.400000X-0.200000X0.400000X0*%
%ADD31O,1.100000X1.700000*%
%ADD32RoundRect,0.150000X0.587500X0.150000X-0.587500X0.150000X-0.587500X-0.150000X0.587500X-0.150000X0*%
%ADD33R,1.700000X0.900000*%
G04 APERTURE END LIST*
D10*
%TO.C,J1*%
X265950000Y-136050000D03*
D11*
X265950000Y-133510000D03*
%TD*%
D12*
%TO.C,R6*%
X248470000Y-147550000D03*
X247450000Y-147550000D03*
%TD*%
D13*
%TO.C,R5*%
X250917500Y-108000000D03*
X251937500Y-108000000D03*
%TD*%
%TO.C,R1*%
X242530000Y-125050000D03*
X243550000Y-125050000D03*
%TD*%
D10*
%TO.C,J5*%
X241050000Y-128010000D03*
D11*
X241050000Y-130550000D03*
%TD*%
D14*
%TO.C,C1*%
X259050000Y-123050000D03*
X259050000Y-121150000D03*
%TD*%
D15*
%TO.C,C3*%
X257937500Y-103375000D03*
X257937500Y-105275000D03*
%TD*%
D13*
%TO.C,R7*%
X252430000Y-140050000D03*
X253450000Y-140050000D03*
%TD*%
D16*
%TO.C,U3*%
X249987500Y-112225000D03*
X249987500Y-112725000D03*
X249987500Y-113225000D03*
X249987500Y-113725000D03*
X252787500Y-113725000D03*
X252787500Y-113225000D03*
X252787500Y-112725000D03*
X252787500Y-112225000D03*
D17*
X251387500Y-112975000D03*
%TD*%
D13*
%TO.C,R4*%
X249480000Y-98500000D03*
X250500000Y-98500000D03*
%TD*%
D18*
%TO.C,D1*%
X252950000Y-132550000D03*
X251980000Y-132550000D03*
%TD*%
D15*
%TO.C,C2*%
X259000000Y-112000000D03*
X259000000Y-113900000D03*
%TD*%
D13*
%TO.C,R3*%
X244480000Y-138500000D03*
X245500000Y-138500000D03*
%TD*%
D19*
%TO.C,U4*%
X250050000Y-144550000D03*
X250050000Y-145050000D03*
X250050000Y-145550000D03*
X250050000Y-146050000D03*
X252950000Y-146050000D03*
X252950000Y-145550000D03*
X252950000Y-145050000D03*
X252950000Y-144550000D03*
D20*
X251500000Y-145300000D03*
%TD*%
D10*
%TO.C,J4*%
X245000000Y-114040000D03*
D11*
X242460000Y-114040000D03*
X245000000Y-111500000D03*
X242460000Y-111500000D03*
X245000000Y-108960000D03*
X242460000Y-108960000D03*
%TD*%
D21*
%TO.C,C5*%
X258050000Y-133550000D03*
X259950000Y-133550000D03*
%TD*%
D22*
%TO.C,R2*%
X258490000Y-126610000D03*
X258490000Y-125590000D03*
%TD*%
D21*
%TO.C,C4*%
X247550000Y-141550000D03*
X249450000Y-141550000D03*
%TD*%
D23*
%TO.C,U1*%
X246000000Y-120500000D03*
X246000000Y-121300000D03*
X246000000Y-122100000D03*
X246000000Y-122900000D03*
X246000000Y-123700000D03*
X246000000Y-124500000D03*
X246000000Y-125300000D03*
X246000000Y-126100000D03*
D24*
X247450000Y-127550000D03*
X248250000Y-127550000D03*
X249050000Y-127550000D03*
X249850000Y-127550000D03*
X250650000Y-127550000D03*
X251450000Y-127550000D03*
X252250000Y-127550000D03*
X253050000Y-127550000D03*
D23*
X254500000Y-126100000D03*
X254500000Y-125300000D03*
X254500000Y-124500000D03*
X254500000Y-123700000D03*
X254500000Y-122900000D03*
X254500000Y-122100000D03*
X254500000Y-121300000D03*
X254500000Y-120500000D03*
D24*
X253050000Y-119050000D03*
X252250000Y-119050000D03*
X251450000Y-119050000D03*
X250650000Y-119050000D03*
X249850000Y-119050000D03*
X249050000Y-119050000D03*
X248250000Y-119050000D03*
X247450000Y-119050000D03*
%TD*%
D25*
%TO.C,P1*%
X251130000Y-150170000D03*
D26*
X253150000Y-150170000D03*
D27*
X254380000Y-150170000D03*
D28*
X252130000Y-150170000D03*
D29*
X250110000Y-150170000D03*
D30*
X248880000Y-150170000D03*
D31*
X247310000Y-150250000D03*
X247310000Y-154050000D03*
X255950000Y-150250000D03*
X255950000Y-154050000D03*
%TD*%
D32*
%TO.C,Q1*%
X242500000Y-120900000D03*
X242500000Y-119000000D03*
X240625000Y-119950000D03*
%TD*%
D33*
%TO.C,SW1*%
X247450000Y-135250000D03*
X247450000Y-131850000D03*
%TD*%
D10*
%TO.C,J2*%
X263937500Y-102100000D03*
D11*
X263937500Y-104640000D03*
%TD*%
D10*
%TO.C,J3*%
X263437500Y-112100000D03*
D11*
X263437500Y-114640000D03*
%TD*%
D16*
%TO.C,U2*%
X248487500Y-101725000D03*
X248487500Y-102225000D03*
X248487500Y-102725000D03*
X248487500Y-103225000D03*
X251287500Y-103225000D03*
X251287500Y-102725000D03*
X251287500Y-102225000D03*
X251287500Y-101725000D03*
D17*
X249887500Y-102475000D03*
%TD*%
M02*
